<?xml version="1.0" encoding="utf-8"?>
<!-- Generator: Adobe Illustrator 17.0.0, SVG Export Plug-In . SVG Version: 6.00 Build 0)  -->
<!DOCTYPE svg PUBLIC "-//W3C//DTD SVG 1.1//EN" "http://www.w3.org/Graphics/SVG/1.1/DTD/svg11.dtd">
<svg version="1.1" id="Layer_1" xmlns="http://www.w3.org/2000/svg" xmlns:xlink="http://www.w3.org/1999/xlink" x="0px" y="0px"
	 width="197.824px" height="25px" viewBox="0 0 197.824 25" enable-background="new 0 0 197.824 25" xml:space="preserve">
<g>
	<polygon fill="#FFFFFF" points="20.217,19.652 20.217,12.74 12.692,12.74 12.692,19.652 9.922,19.652 9.922,4.015 12.692,4.015 
		12.692,10.08 20.217,10.08 20.217,4.015 22.985,4.015 22.985,19.652 	"/>
	<g>
		<path fill="#FFFFFF" d="M27.634,9.616h2.6v10.037h-2.6V9.616z M27.295,6.296c0-0.931,0.72-1.627,1.649-1.627
			c0.93,0,1.628,0.697,1.628,1.627s-0.698,1.649-1.628,1.649C28.015,7.945,27.295,7.227,27.295,6.296"/>
		<path fill="#FFFFFF" d="M41.603,19.652v-5.367c0-1.947-1.037-2.367-2.072-2.367c-1.034,0-2.071,0.402-2.071,2.324v5.41h-2.6V9.615
			h2.6v0.739c0.571-0.422,1.267-0.931,2.642-0.931c2.197,0,4.1,1.289,4.1,4.438v5.791H41.603z"/>
		<path fill="#FFFFFF" d="M53.247,11.918c-1.521,0-2.768,1.267-2.768,2.746c0,1.502,1.248,2.769,2.768,2.769
			c1.543,0,2.79-1.267,2.79-2.769C56.037,13.186,54.79,11.918,53.247,11.918 M56.037,18.998c-0.804,0.655-1.753,0.929-2.79,0.929
			c-2.959,0-5.325-2.368-5.325-5.263c0-2.915,2.366-5.24,5.325-5.24c1.015,0,1.966,0.274,2.79,0.931V9.616h2.601v9.318
			c0,5.367-3.424,6.065-5.391,6.065c-1.922,0-3.591-0.994-4.521-2.473l2.387-1.034c0.507,0.61,1.289,1.013,2.133,1.013
			c1.543,0,2.79-0.76,2.79-3.062V18.998z"/>
		<path fill="#FFFFFF" d="M64.365,16.525c0.929,0.804,2.049,1.034,2.768,1.034c0.93,0,1.226-0.378,1.226-0.738
			c0-1.501-5.092-0.571-5.092-4.185c0-1.84,1.31-3.213,3.55-3.213c0.887,0,2.514,0.211,3.656,1.267l-1.374,1.86
			c-0.887-0.611-1.712-0.758-2.261-0.758c-0.866,0-1.037,0.379-1.037,0.633c0,1.416,5.03,0.739,5.03,4.312
			c0,1.839-1.331,3.189-3.867,3.189c-1.859,0-3.065-0.719-3.973-1.415L64.365,16.525z"/>
		<path fill="#FFFFFF" d="M81.06,19.673c0,0-0.761,0.254-2.007,0.254c-1.965,0-2.981-1.288-2.981-3.252v-4.565h-1.584V9.615h1.584
			V6.211h2.598v3.404h2.665v2.494H78.67v4.014c0,0.698,0.191,1.354,1.122,1.354c0.656,0,1.269-0.106,1.269-0.106V19.673z"/>
		<path fill="#FFFFFF" d="M90.57,11.918c-1.522,0-2.768,1.267-2.768,2.746c0,1.502,1.246,2.769,2.768,2.769
			c1.544,0,2.791-1.268,2.791-2.769C93.362,13.186,92.114,11.918,90.57,11.918 M90.57,19.927c-2.958,0-5.325-2.367-5.325-5.263
			c0-2.915,2.367-5.24,5.325-5.24c2.979,0,5.351,2.325,5.351,5.24C95.921,17.56,93.55,19.927,90.57,19.927"/>
		<path fill="#FFFFFF" d="M106.685,19.652v-5.367c0-1.947-1.035-2.367-2.07-2.367c-1.036,0-2.07,0.402-2.07,2.324v5.41h-2.601V9.615
			h2.601v0.739c0.57-0.422,1.267-0.931,2.642-0.931c2.199,0,4.099,1.289,4.099,4.438v5.791H106.685z"/>
		<path fill="#FFFFFF" d="M122.196,15.362c0.868,0.993,1.903,2.03,3.636,2.03c1.774,0,2.474-1.1,2.474-2.072
			c0-3.064-7.059-1.943-7.059-7.08c0-2.831,2.132-4.501,5.049-4.501c1.395,0,2.705,0.381,4.206,1.479l-1.438,2.155
			c-0.886-0.781-1.924-1.099-2.894-1.099c-1.374,0-2.178,0.637-2.178,1.692c0,3.148,7.083,1.711,7.083,7.227
			c0,2.79-1.798,4.733-5.264,4.733c-1.84,0-3.721-0.547-5.348-2.769L122.196,15.362z"/>
		<path fill="#FFFFFF" d="M140.499,19.673c0,0-0.761,0.254-2.007,0.254c-1.967,0-2.981-1.288-2.981-3.252v-4.565h-1.585V9.615h1.585
			V6.211h2.6v3.404h2.664v2.494h-2.664v4.014c0,0.698,0.189,1.354,1.12,1.354c0.654,0,1.268-0.106,1.268-0.106V19.673z"/>
		<path fill="#FFFFFF" d="M151.467,9.615h2.599v5.895c0,3.148-1.881,4.417-4.711,4.417c-2.833,0-4.713-1.269-4.713-4.417V9.615
			h2.598v5.199c0,1.688,0.339,2.618,2.115,2.618c1.775,0,2.112-0.93,2.112-2.618V9.615z"/>
		<path fill="#FFFFFF" d="M162.521,11.918c-1.521,0-2.768,1.267-2.768,2.746c0,1.502,1.247,2.769,2.768,2.769
			c1.543,0,2.792-1.267,2.792-2.769C165.312,13.186,164.064,11.918,162.521,11.918 M165.312,19.652v-0.656
			c-0.804,0.656-1.755,0.931-2.792,0.931c-2.957,0-5.326-2.368-5.326-5.263c0-2.915,2.369-5.24,5.326-5.24
			c1.014,0,1.966,0.274,2.792,0.931v-6.34h2.599v15.638H165.312z"/>
		<path fill="#FFFFFF" d="M172.285,9.616h2.602v10.037h-2.602V9.616z M171.948,6.296c0-0.931,0.718-1.627,1.647-1.627
			c0.93,0,1.626,0.697,1.626,1.627s-0.696,1.649-1.626,1.649C172.666,7.945,171.948,7.227,171.948,6.296"/>
		<path fill="#FFFFFF" d="M184.247,11.918c-1.523,0-2.769,1.267-2.769,2.746c0,1.502,1.246,2.769,2.769,2.769
			c1.543,0,2.789-1.268,2.789-2.769C187.037,13.186,185.79,11.918,184.247,11.918 M184.247,19.927c-2.958,0-5.324-2.367-5.324-5.263
			c0-2.915,2.366-5.24,5.324-5.24c2.981,0,5.347,2.325,5.347,5.24C189.594,17.56,187.228,19.927,184.247,19.927"/>
	</g>
	<polygon fill="#FFFFFF" points="0,0 0,23.803 5.981,23.803 5.981,21.265 2.768,21.265 2.768,2.556 5.981,2.556 5.981,0 	"/>
	<polygon fill="#FFFFFF" points="191.842,0 191.842,2.556 195.055,2.556 195.055,21.265 191.842,21.265 191.842,23.803 
		197.824,23.803 197.824,0 	"/>
</g>
</svg>
