<?xml version="1.0" encoding="utf-8"?>
<!-- Generator: Adobe Illustrator 17.0.0, SVG Export Plug-In . SVG Version: 6.00 Build 0)  -->
<!DOCTYPE svg PUBLIC "-//W3C//DTD SVG 1.1//EN" "http://www.w3.org/Graphics/SVG/1.1/DTD/svg11.dtd">
<svg version="1.1" id="Layer_1" xmlns="http://www.w3.org/2000/svg" xmlns:xlink="http://www.w3.org/1999/xlink" x="0px" y="0px"
	 width="20px" height="20px" viewBox="0 0 20 20" enable-background="new 0 0 20 20" xml:space="preserve">
<g>
	<path fill="#D2D2D4" d="M16.136,0H3.866C1.734,0,0,1.733,0,3.865v4.082v8.19C0,18.268,1.734,20,3.866,20h12.269
		c2.132,0,3.865-1.732,3.865-3.863v-8.19V3.865C20.001,1.733,18.268,0,16.136,0 M17.246,2.304l0.441-0.001v0.439v2.95l-3.381,0.01
		l-0.011-3.389L17.246,2.304z M7.148,7.946c0.638-0.887,1.678-1.467,2.853-1.467c1.175,0,2.215,0.58,2.854,1.467
		c0.416,0.579,0.667,1.288,0.667,2.054c0,1.939-1.581,3.519-3.521,3.519c-1.941,0-3.52-1.58-3.52-3.519
		C6.481,9.234,6.729,8.525,7.148,7.946 M18.054,16.137c0,1.057-0.861,1.914-1.918,1.914H3.866c-1.059,0-1.916-0.857-1.916-1.914
		v-8.19h2.984C4.676,8.581,4.532,9.273,4.532,10c0,3.015,2.454,5.47,5.469,5.47c3.016,0,5.469-2.455,5.469-5.47
		c0-0.728-0.146-1.419-0.403-2.054h2.987V16.137z"/>
</g>
</svg>
