<?xml version="1.0" encoding="utf-8"?>
<!-- Generator: Adobe Illustrator 17.0.0, SVG Export Plug-In . SVG Version: 6.00 Build 0)  -->
<!DOCTYPE svg PUBLIC "-//W3C//DTD SVG 1.1//EN" "http://www.w3.org/Graphics/SVG/1.1/DTD/svg11.dtd">
<svg version="1.1" id="Layer_1" xmlns="http://www.w3.org/2000/svg" xmlns:xlink="http://www.w3.org/1999/xlink" x="0px" y="0px"
	 width="20.021px" height="20px" viewBox="0 0 20.021 20" enable-background="new 0 0 20.021 20" xml:space="preserve">
<g>
	<path fill="#D2D2D4" d="M2.407,0c1.327,0,2.406,1.079,2.406,2.407c0,1.329-1.079,2.408-2.406,2.408C1.075,4.815,0,3.736,0,2.407
		C0,1.079,1.075,0,2.407,0 M0.329,6.641h4.154V20H0.329V6.641z"/>
	<path fill="#D2D2D4" d="M7.087,6.642h3.983v1.824h0.057c0.555-1.051,1.909-2.157,3.93-2.157c4.201,0,4.978,2.766,4.978,6.363V20
		h-4.148v-6.496c0-1.55-0.031-3.543-2.158-3.543c-2.161,0-2.49,1.688-2.49,3.431V20H7.087V6.642z"/>
</g>
</svg>
