<?xml version="1.0" encoding="utf-8"?>
<!-- Generator: Adobe Illustrator 17.0.0, SVG Export Plug-In . SVG Version: 6.00 Build 0)  -->
<!DOCTYPE svg PUBLIC "-//W3C//DTD SVG 1.1//EN" "http://www.w3.org/Graphics/SVG/1.1/DTD/svg11.dtd">
<svg version="1.1" id="Layer_1" xmlns="http://www.w3.org/2000/svg" xmlns:xlink="http://www.w3.org/1999/xlink" x="0px" y="0px"
	 width="15.481px" height="20px" viewBox="0 0 15.481 20" enable-background="new 0 0 15.481 20" xml:space="preserve">
<g>
	<path fill="#9B9B9F" d="M9.284,14.454c-1.242,0-2.407-0.671-2.807-1.432c0,0-0.668,2.646-0.81,3.155
		c-0.496,1.807-1.96,3.611-2.074,3.762c-0.079,0.103-0.255,0.07-0.272-0.067c-0.031-0.23-0.403-2.506,0.035-4.365
		c0.221-0.933,1.478-6.258,1.478-6.258S4.467,8.514,4.467,7.43c0-1.701,0.987-2.972,2.218-2.972c1.045,0,1.547,0.785,1.547,1.724
		c0,1.051-0.668,2.621-1.013,4.076c-0.29,1.219,0.611,2.213,1.813,2.213c2.175,0,3.64-2.795,3.64-6.108
		c0-2.516-1.694-4.402-4.778-4.402c-3.483,0-5.654,2.599-5.654,5.503c0,1.001,0.294,1.706,0.757,2.252
		c0.213,0.252,0.243,0.354,0.165,0.641c-0.057,0.213-0.182,0.722-0.234,0.922c-0.076,0.292-0.311,0.395-0.574,0.287
		C0.747,10.91,0,9.153,0,7.177C0,3.913,2.751,0,8.21,0c4.387,0,7.271,3.174,7.271,6.582C15.481,11.088,12.976,14.454,9.284,14.454"
		/>
</g>
</svg>
