<?xml version="1.0" encoding="utf-8"?>
<!-- Generator: Adobe Illustrator 17.0.0, SVG Export Plug-In . SVG Version: 6.00 Build 0)  -->
<!DOCTYPE svg PUBLIC "-//W3C//DTD SVG 1.1//EN" "http://www.w3.org/Graphics/SVG/1.1/DTD/svg11.dtd">
<svg version="1.1" id="Layer_1" xmlns="http://www.w3.org/2000/svg" xmlns:xlink="http://www.w3.org/1999/xlink" x="0px" y="0px"
	 width="18.743px" height="20px" viewBox="0 0 18.743 20" enable-background="new 0 0 18.743 20" xml:space="preserve">
<g>
	<g>
		<path fill="#9B9B9F" d="M0.588,20L0,19.41l7.229-7.215c-1.472-1.273-2.405-3.154-2.405-5.248C4.824,3.117,7.946,0,11.784,0
			c3.838,0,6.96,3.117,6.96,6.948c0,3.83-3.121,6.946-6.96,6.946c-1.439,0-2.777-0.438-3.888-1.187L0.588,20z M11.784,0.833
			c-3.378,0-6.126,2.743-6.126,6.115c0,3.371,2.749,6.113,6.126,6.113c3.377,0,6.126-2.742,6.126-6.113
			C17.909,3.576,15.161,0.833,11.784,0.833z"/>
	</g>
</g>
</svg>
