<?xml version="1.0" encoding="utf-8"?>
<!-- Generator: Adobe Illustrator 17.0.0, SVG Export Plug-In . SVG Version: 6.00 Build 0)  -->
<!DOCTYPE svg PUBLIC "-//W3C//DTD SVG 1.1//EN" "http://www.w3.org/Graphics/SVG/1.1/DTD/svg11.dtd">
<svg version="1.1" id="Layer_1" xmlns="http://www.w3.org/2000/svg" xmlns:xlink="http://www.w3.org/1999/xlink" x="0px" y="0px"
	 width="22.5px" height="24px" viewBox="0 0 22.5 24" enable-background="new 0 0 22.5 24" xml:space="preserve">
<g>
	<g>
		<path fill="#D2D2D4" d="M0.707,24L0,23.293l8.675-8.658C6.909,13.106,5.79,10.849,5.79,8.337C5.79,3.74,9.536,0,14.142,0
			c4.606,0,8.352,3.74,8.352,8.338c0,4.596-3.746,8.335-8.352,8.335c-1.727,0-3.332-0.525-4.666-1.425L0.707,24z M14.142,1
			C10.088,1,6.79,4.292,6.79,8.337c0,4.045,3.298,7.335,7.352,7.335s7.352-3.291,7.352-7.335C21.493,4.292,18.195,1,14.142,1z"/>
	</g>
</g>
</svg>
