<?xml version="1.0" encoding="utf-8"?>
<!-- Generator: Adobe Illustrator 17.0.0, SVG Export Plug-In . SVG Version: 6.00 Build 0)  -->
<!DOCTYPE svg PUBLIC "-//W3C//DTD SVG 1.1//EN" "http://www.w3.org/Graphics/SVG/1.1/DTD/svg11.dtd">
<svg version="1.1" id="Layer_1" xmlns="http://www.w3.org/2000/svg" xmlns:xlink="http://www.w3.org/1999/xlink" x="0px" y="0px"
	 width="20px" height="20px" viewBox="0 0 20 20" enable-background="new 0 0 20 20" xml:space="preserve">
<g>
	<path fill="#9B9B9F" d="M20.007,3.836c-0.734,0.324-1.525,0.544-2.355,0.643c0.847-0.505,1.497-1.305,1.804-2.257
		c-0.793,0.468-1.671,0.807-2.604,0.99c-0.75-0.792-1.815-1.288-2.996-1.288c-2.268,0-4.104,1.826-4.104,4.078
		c0,0.318,0.035,0.63,0.104,0.929C6.447,6.76,3.423,5.136,1.399,2.671c-0.354,0.6-0.556,1.302-0.556,2.049
		c0,1.413,0.725,2.662,1.826,3.393C1.996,8.092,1.363,7.909,0.811,7.605v0.051c0,1.974,1.415,3.623,3.292,3.997
		c-0.344,0.095-0.707,0.144-1.082,0.144c-0.264,0-0.521-0.025-0.771-0.073c0.521,1.62,2.038,2.798,3.833,2.831
		c-1.404,1.094-3.174,1.746-5.096,1.746c-0.331,0-0.658-0.02-0.979-0.057c1.816,1.158,3.975,1.832,6.291,1.832
		c7.548,0,11.673-6.213,11.673-11.602c0-0.175-0.002-0.354-0.011-0.527C18.762,5.372,19.459,4.654,20.007,3.836"/>
</g>
</svg>
