<?xml version="1.0" encoding="iso-8859-1"?>
<!-- Generator: Adobe Illustrator 16.0.0, SVG Export Plug-In . SVG Version: 6.00 Build 0)  -->
<!DOCTYPE svg PUBLIC "-//W3C//DTD SVG 1.1//EN" "http://www.w3.org/Graphics/SVG/1.1/DTD/svg11.dtd">
<svg version="1.1" id="Layer_1" xmlns="http://www.w3.org/2000/svg" xmlns:xlink="http://www.w3.org/1999/xlink" x="0px" y="0px"
	 width="512px" height="512px" viewBox="0 0 512 512" style="enable-background:new 0 0 512 512;" xml:space="preserve">
<g>
	<path d="M491.876,288.119c-1.892-8.39-8.701-13.673-18.662-15.863c-8.3-1.824-22.876-1.783-45.189,8.768
		c-1.555,0.674-104.735,44.701-123.989,52.958c-2.967,1.272-3.99,5.469-3.99,5.469c-25.577,70.355-98.695,41.184-98.612,40.225
		c37.788,1.632,64.783-19.085,72.953-35.285c19.082-37.834-23.783-32.885-47.162-33.148c-87.568-0.985-86.284,20.485-133.243,36.157
		l-71.188,27.446c-1.821,0.748-2.657,2.395-3.045,4.142c-0.388,1.747-0.024,3.576,1.003,5.041l4.672,6.664
		c11.646,16.611,25.414,42.191,37.538,58.931c0.781,1.079,1.881,1.886,3.146,2.308c0.28,0.094,0.65,0.203,1.106,0.303
		c1.631,0.358,3.384,0.391,4.734,0.076l52.066-13.132c2.738-0.65,134.545,39.92,185.168,4.669l155.764-118.111
		c6.158-4.872,12.524-9.909,18.881-14.843C490.767,305.507,493.686,296.145,491.876,288.119z"/>
	<g>
		<path d="M308.832,53.738c-35.014,0-64.743,22.541-75.524,53.895c33.164,9.711,57.394,40.336,57.394,76.64
			c0,9.097-1.542,17.828-4.343,25.974c7.131,2.088,14.667,3.228,22.474,3.228c44.111,0,79.87-35.758,79.87-79.868
			S352.943,53.738,308.832,53.738z M324.866,176.851c0,3.267-2.648,5.916-5.915,5.916h-10.896c-3.267,0-5.915-2.648-5.915-5.916
			v-66.387l-6.743,3.64c-1.604,0.866-3.519,0.944-5.188,0.211c-1.669-0.733-2.908-2.195-3.356-3.962l-2.153-8.485
			c-0.668-2.635,0.545-5.387,2.942-6.669l18.781-10.052c0.858-0.459,1.817-0.7,2.791-0.7h9.735c3.267,0,5.915,2.648,5.915,5.915
			V176.851z"/>
	</g>
	<path d="M199.332,113.071c-43.005,0-77.867,34.863-77.867,77.868s34.862,77.868,77.867,77.868c43.006,0,77.87-34.863,77.87-77.868
		S242.338,113.071,199.332,113.071z M214.964,233.101c0,3.186-2.583,5.768-5.767,5.768h-10.623c-3.185,0-5.767-2.582-5.767-5.768
		v-64.725l-6.574,3.549c-1.564,0.845-3.431,0.92-5.058,0.206c-1.627-0.714-2.835-2.14-3.272-3.862l-2.099-8.273
		c-0.651-2.569,0.532-5.252,2.869-6.502l18.311-9.801c0.837-0.448,1.771-0.683,2.721-0.683h9.492c3.185,0,5.767,2.582,5.767,5.767
		V233.101z"/>
</g>
</svg>
