<svg xmlns="http://www.w3.org/2000/svg" xmlns:xlink="http://www.w3.org/1999/xlink" 
	 viewBox="1.3 0 94.1 96.8">
	<path d="M62.6,0H39.5C29.2,0,22.1,2.3,15.7,7.6c-5,4.4-8.1,10.7-8.1,16.9c0,9.6,7.3,19.8,20.9,19.8
	c1.3,0,2.8-0.1,4-0.3l-0.2,0.5c-0.5,1.3-1.1,2.5-1.1,4.5c0,3.8,1.8,6.1,3.6,8.3l0.2,0.3l-0.4,0c-5.6,0.4-16,1.1-23.7,5.8
	c-9,5.4-9.7,13.1-9.7,15.4c0,9,8.4,18.1,27.1,18.1c21.8,0,33.1-12,33.1-23.9c0-8.8-5.1-13.1-10.6-17.7l-4.6-3.6
	c-1.4-1.2-3.2-2.6-3.2-5.4c0-2.7,1.8-4.4,3.3-6l0.2-0.2c5-3.9,10.6-8.4,10.6-18c0-9.7-6-14.6-8.9-17H56c0.1,0,0.2,0,0.3-0.1l6.6-4.2
	c0.2-0.1,0.3-0.3,0.2-0.6C63,0.1,62.8,0,62.6,0z M34.6,91.5c-13.3,0-22.2-6.2-22.2-15.4c0-6,3.6-10.4,10.8-13c5.7-1.9,13.2-2,13.2-2
	c1.3,0,1.9,0,2.9,0.1c9.3,6.6,13.7,10.1,13.7,16.7C53.1,86.3,46,91.5,34.6,91.5z M34.5,40.8c-11.1,0-15.8-14.6-15.8-22.5
	c0-4,0.9-7,2.8-9.4c2-2.5,5.5-4.2,8.8-4.2c10.2,0,15.9,13.7,15.9,23.2c0,1.5,0,6.1-3.1,9.2C40.9,39.3,37.5,40.8,34.5,40.8z M95,45.2
	H82.8V33.1c0-0.3-0.2-0.5-0.5-0.5h-5.2c-0.3,0-0.5,0.2-0.5,0.5v12.1H64.5c-0.3,0-0.5,0.2-0.5,0.5V51c0,0.3,0.2,0.5,0.5,0.5h12.1
	v12.2c0,0.3,0.2,0.5,0.5,0.5h5.2c0.3,0,0.5-0.2,0.5-0.5V51.5H95c0.3,0,0.5-0.2,0.5-0.5v-5.3C95.5,45.4,95.3,45.2,95,45.2z"/>
</svg>
