<svg xmlns="http://www.w3.org/2000/svg" xmlns:xlink="http://www.w3.org/1999/xlink"
	 viewBox="0 0 20 18.5">
	<path d="M13.3,12.3l-2.2,4.4l-0.4-2.8l0.6-0.5H9.9l-1.2,0l0.6,0.5l-0.3,2.8l-2.2-4.4C2.8,12.8,0,14.5,0,18.5l20,0
	C20,14.5,17.2,12.8,13.3,12.3z"/>
	<path d="M5.8,7.3C5.8,7.3,5.8,7.3,5.8,7.3c0.7,2.4,2.4,4.2,4.2,4.3c1.6-0.1,3.6-1.9,4.2-4.3c0.3,0,0.6-0.3,0.7-0.8
	c0.1-0.5-0.1-1-0.4-1c0,0,0,0-0.1,0c-0.1-4-2-5.4-4.4-5.5C7.6,0,5.4,1.7,5.5,5.5c0,0,0,0-0.1,0C5.2,5.5,5,6,5.1,6.5
	C5.2,7,5.5,7.4,5.8,7.3z"/>
</svg>
