<?xml version="1.0" encoding="iso-8859-1"?>
<!-- Generator: Adobe Illustrator 18.0.0, SVG Export Plug-In . SVG Version: 6.00 Build 0)  -->
<!DOCTYPE svg PUBLIC "-//W3C//DTD SVG 1.1//EN" "http://www.w3.org/Graphics/SVG/1.1/DTD/svg11.dtd">
<svg version="1.1" id="Capa_1" xmlns="http://www.w3.org/2000/svg" xmlns:xlink="http://www.w3.org/1999/xlink" x="0px" y="0px"
	 viewBox="0 0 12.805 14.403" style="enable-background:new 0 0 12.805 14.403;" xml:space="preserve">
<g id="_x34_4">
	<g>
		<path style="fill-rule:evenodd;clip-rule:evenodd;" d="M12.552,12.568l-2.839-3.49c0.708-0.893,1.078-2.12,1.067-3.723
			C10.755,1.761,8.946-0.024,5.353,0C1.759,0.026-0.025,1.836,0,5.431c0.025,3.595,1.835,5.378,5.428,5.352
			c0.944-0.006,1.755-0.144,2.449-0.396l2.929,3.601c0.392,0.483,1.101,0.555,1.583,0.163
			C12.872,13.757,12.945,13.049,12.552,12.568z M5.39,8.779c-2.238,0-3.357-1.121-3.357-3.359c0-2.24,1.119-3.358,3.357-3.358
			c2.238,0,3.357,1.118,3.357,3.358C8.748,7.658,7.628,8.779,5.39,8.779z"/>
	</g>
</g>
<g>
</g>
<g>
</g>
<g>
</g>
<g>
</g>
<g>
</g>
<g>
</g>
<g>
</g>
<g>
</g>
<g>
</g>
<g>
</g>
<g>
</g>
<g>
</g>
<g>
</g>
<g>
</g>
<g>
</g>
</svg>
