<?xml version="1.0" encoding="iso-8859-1"?>
<!-- Generator: Adobe Illustrator 16.0.0, SVG Export Plug-In . SVG Version: 6.00 Build 0)  -->
<!DOCTYPE svg PUBLIC "-//W3C//DTD SVG 1.1//EN" "http://www.w3.org/Graphics/SVG/1.1/DTD/svg11.dtd">
<svg version="1.1" xmlns="http://www.w3.org/2000/svg" xmlns:xlink="http://www.w3.org/1999/xlink" x="0px" y="0px"
	 width="22.039px" height="26.076px" viewBox="0 0 22.039 26.076" style="enable-background:new 0 0 22.039 26.076;"
	 xml:space="preserve">
<g id="c104_arrow">
	<path style="fill:#000000;" d="M11.536,0.368l9.994,9.719c0,0,1.218,1.155-0.108,1.155c-1.324,0-4.531,0-4.531,0s0,0.778,0,1.973
		c0,3.423,0,9.641,0,12.172c0,0,0.184,0.689-0.863,0.689c-1.043,0-9.532,0-10.28,0c-0.744,0-0.727-0.576-0.727-0.576
		c0-2.463,0-8.896,0-12.2c0-1.07,0-1.77,0-1.77s-2.57,0-4.184,0S0.44,10.322,0.44,10.322s8.791-9.08,9.742-10.032
		C10.875-0.404,11.536,0.368,11.536,0.368z"/>
</g>
<g id="Capa_1">
</g>
</svg>
