<svg xmlns="http://www.w3.org/2000/svg" xmlns:xlink="http://www.w3.org/1999/xlink"
	 viewBox="0 114.3 532.3 303.7">
	<path d="M472,241.3c7.6-9.8,13.6-17.6,18-23.6c32-42.5,45.8-69.6,41.6-81.5l-1.7-2.8c-1.1-1.7-4-3.2-8.6-4.6
	c-4.6-1.4-10.5-1.6-17.7-0.7l-79.8,0.6c-1.8-0.2-3.7-0.1-5.5,0.1c-1.8,0.3-3,0.6-3.6,0.8c-0.6,0.3-1,0.5-1.4,0.7l-1.1,0.8
	c-0.9,0.6-1.9,1.5-3,2.9c-1.1,1.4-2,3-2.8,4.9c-8.7,22.4-18.6,43.1-29.7,62.4c-6.8,11.5-13.1,21.4-18.8,29.8
	c-5.7,8.4-10.5,14.6-14.4,18.6c-3.9,4-7.4,7.2-10.5,9.6c-3.1,2.4-5.5,3.4-7.2,3.1c-1.7-0.4-3.2-0.7-4.7-1.1
	c-2.6-1.7-4.7-3.9-6.2-6.8c-1.6-2.9-2.6-6.5-3.2-10.8c-0.6-4.3-0.9-8.1-1-11.2c-0.1-3.1,0-7.6,0.1-13.3c0.2-5.7,0.3-9.6,0.3-11.6
	c0-7,0.1-14.6,0.4-22.9c0.3-8.2,0.5-14.7,0.7-19.5c0.2-4.8,0.3-9.9,0.3-15.2c0-5.3-0.3-9.6-1-12.6c-0.6-3-1.6-6-2.9-8.9
	c-1.3-2.9-3.2-5.1-5.7-6.6c-2.5-1.6-5.6-2.8-9.3-3.7c-9.8-2.2-22.3-3.4-37.4-3.6c-34.4-0.4-56.5,1.9-66.2,6.7
	c-3.9,2-7.4,4.8-10.5,8.3c-3.3,4.1-3.8,6.3-1.4,6.6c11.1,1.7,18.9,5.6,23.6,11.9l1.7,3.3c1.3,2.4,2.6,6.7,3.9,12.8
	c1.3,6.1,2.1,12.8,2.5,20.2c0.9,13.5,0.9,25,0,34.6c-0.9,9.6-1.8,17.1-2.6,22.4c-0.8,5.4-2.1,9.7-3.7,13c-1.7,3.3-2.8,5.4-3.3,6.1
	c-0.6,0.7-1,1.2-1.4,1.4c-2.4,0.9-4.9,1.4-7.5,1.4c-2.6,0-5.7-1.3-9.4-3.9c-3.7-2.6-7.5-6.1-11.5-10.7c-4-4.5-8.5-10.9-13.4-19
	c-5-8.1-10.2-17.7-15.5-28.8l-4.4-8c-2.8-5.2-6.6-12.7-11.4-22.6s-9.1-19.4-12.7-28.7c-1.5-3.9-3.7-6.8-6.7-8.9l-1.4-0.8
	c-0.9-0.7-2.4-1.5-4.4-2.4c-2-0.8-4.2-1.4-6.4-1.8l-75.9,0.6c-7.8,0-13,1.8-15.8,5.3l-1.1,1.7c-0.6,0.9-0.8,2.4-0.8,4.4
	c0,2,0.6,4.5,1.7,7.5c11.1,26.1,23.1,51.2,36.2,75.4c13,24.2,24.3,43.7,34,58.5c9.6,14.8,19.4,28.7,29.4,41.9s16.6,21.5,19.8,25.2
	c3.2,3.7,5.8,6.5,7.6,8.3l6.9,6.7c4.4,4.4,10.9,9.7,19.5,15.9c8.6,6.2,18.1,12.3,28.6,18.3c10.4,6,22.6,10.9,36.4,14.7
	c13.9,3.8,27.3,5.3,40.5,4.6h31.9c6.5-0.6,11.4-2.6,14.7-6.1l1.1-1.4c0.7-1.1,1.4-2.8,2.1-5.1c0.6-2.3,1-4.9,1-7.6
	c-0.2-7.9,0.4-15.1,1.8-21.5c1.4-6.4,3-11.2,4.7-14.4c1.8-3.2,3.7-6,6-8.2c2.2-2.2,3.8-3.5,4.7-4c0.9-0.5,1.7-0.8,2.2-1
	c4.4-1.5,9.6,0,15.7,4.3c6,4.4,11.6,9.7,16.9,16.1c5.3,6.4,11.6,13.5,19,21.5c7.4,7.9,13.9,13.9,19.4,17.7l5.5,3.3
	c3.7,2.2,8.5,4.2,14.4,6.1c5.9,1.8,11.1,2.3,15.5,1.4l71-1.1c7,0,12.5-1.1,16.4-3.5c3.9-2.3,6.2-4.9,6.9-7.6
	c0.7-2.8,0.8-5.9,0.1-9.4c-0.6-3.5-1.3-6-1.9-7.3c-0.6-1.4-1.3-2.5-1.8-3.5c-9.2-16.6-26.9-37.1-52.9-61.3l-0.6-0.6l-0.3-0.3
	l-0.3-0.3h-0.3c-11.8-11.3-19.3-18.9-22.4-22.7c-5.7-7.4-7-14.9-3.9-22.4C449.3,271.9,457.6,259.8,472,241.3z"/>
</svg>
