
<svg xmlns="http://www.w3.org/2000/svg" xmlns:xlink="http://www.w3.org/1999/xlink" x="0px" y="0px"
	 viewBox="0 0 129.816 129.816" xml:space="preserve">
	<path id="path3620" d="M105.121,115.251l-4.819-14.747c-0.557-1.693-1.825-3.062-3.477-3.736
	c-1.651-0.681-3.513-0.598-5.101,0.219c-16.885,8.693-36.892,8.658-53.728-0.051c-1.592-0.825-3.462-0.898-5.12-0.219
	c-1.658,0.685-2.924,2.062-3.473,3.764l-6.826,21.251c-0.6,1.852-0.272,3.941,0.876,5.516c1.143,1.569,2.969,2.568,4.915,2.568
	h73.074c3.448,0,6.172-2.792,6.172-6.154C107.614,123.168,106.123,118.315,105.121,115.251"/>
	<path id="path3622" d="M64.907,73.751c-14.942,0-27.062-12.113-27.062-27.068c0-14.939,12.118-27.064,27.062-27.064
	c14.942,0,27.068,12.125,27.068,27.064C91.975,61.64,79.854,73.751,64.907,73.751z M64.907,0
	C39.166,0,18.224,20.943,18.224,46.683c0,25.741,20.942,46.686,46.683,46.686c25.741,0,46.686-20.947,46.686-46.686
	C111.592,20.943,90.652,0,64.907,0"/>
	<path id="path3624" d="M59.832,46.5c-2.801,0-5.073-2.273-5.073-5.076c0-2.798,2.272-5.073,5.073-5.073
	c2.803,0,5.075,2.275,5.075,5.073C64.907,44.229,62.637,46.5,59.832,46.5z M64.907,29.771c-9.343,0-16.913,7.58-16.913,16.913
	c0,9.348,7.57,16.918,16.913,16.918c9.345,0,16.918-7.57,16.918-16.918C81.825,37.35,74.251,29.771,64.907,29.771"/>
</svg>
