<?xml version="1.0" standalone="no"?>
<!DOCTYPE svg PUBLIC "-//W3C//DTD SVG 1.1//EN" "http://www.w3.org/Graphics/SVG/1.1/DTD/svg11.dtd" >
<svg xmlns="http://www.w3.org/2000/svg" xmlns:xlink="http://www.w3.org/1999/xlink" version="1.1">
<metadata></metadata>
<defs>
<font id="nasteextralight" horiz-adv-x="1581" >
<font-face units-per-em="2048" ascent="1540" descent="-508" />
<missing-glyph horiz-adv-x="532" />
<glyph horiz-adv-x="0" />
<glyph horiz-adv-x="682" />
<glyph unicode=" "  horiz-adv-x="532" />
<glyph unicode="&#x09;" horiz-adv-x="532" />
<glyph unicode="&#xa0;" horiz-adv-x="532" />
<glyph unicode="!" horiz-adv-x="397" d="M119 51q0 31 22 53q23 23 56 23q30 0 53 -23q22 -22 22 -53q0 -33 -22 -55q-23 -23 -53 -23q-33 0 -56 23q-22 22 -22 55zM152 1176v206h96v-206l-23 -889h-51z" />
<glyph unicode="&#x22;" horiz-adv-x="616" d="M137 1176v206h96v-206l-22 -254h-51zM383 1176v206h96v-206l-22 -254h-51z" />
<glyph unicode="#" horiz-adv-x="1419" d="M76 412l16 88h283l69 383h-307l17 88h305l73 411h93l-74 -411h399l74 411h92l-74 -411h297l-16 -88h-295l-70 -383h320l-16 -88h-318l-74 -412h-92l74 412h-399l-74 -412h-92l73 412h-284zM467 500h399l70 383h-399z" />
<glyph unicode="$" horiz-adv-x="1263" d="M63 176l52 68q98 -84 215 -131q119 -47 227 -62v611q-144 41 -215 81q-84 48 -129 95q-46 49 -61 98q-17 56 -17 96q-3 70 25 137q25 61 84 113q56 50 135 80q85 32 178 35v215h68v-215q39 -2 116 -13q63 -9 131 -30q74 -23 134 -51q66 -31 120 -76l-49 -68 q-55 49 -106 72q-72 33 -119 47q-63 18 -119 27q-59 9 -104 12v-580q12 -4 16 -6q2 -1 17 -6q141 -33 221 -63q95 -36 149 -76q58 -43 86 -97q27 -53 27 -122q0 -75 -31 -148t-88 -127t-152 -90q-88 -33 -215 -33h-30v-205h-68v203q-128 15 -258 64t-240 145zM244 1047 q0 -43 16 -86q15 -40 55 -74t101 -64q62 -30 153 -57v559q-165 -9 -245 -86t-80 -190v-2zM637 55h31l-9 -2q101 0 175 27q69 25 122 72q50 44 74 102q25 61 25 119q0 53 -25 98q-24 44 -74 74q-54 33 -125 55q-91 28 -178 49l-16 4v-598z" />
<glyph unicode="%" horiz-adv-x="1531" d="M72 1083q0 65 24 123q24 59 68 103q43 43 104 67q64 25 133 25q72 0 136 -25q61 -24 104 -67q45 -45 68 -101q24 -58 24 -125t-24 -125t-68 -102q-45 -45 -104 -68q-62 -24 -136 -24q-75 0 -137 27q-61 27 -104 73t-64 105q-22 61 -22 121zM166 1079l2 2q0 -57 20 -98 q21 -44 56 -74q36 -32 75 -45q41 -14 87 -14q44 0 90 16q40 14 73 47q31 31 49 74q19 46 19 94q0 55 -21 99q-22 45 -55 71q-38 30 -76 43q-49 17 -86 17q-39 0 -88 -17q-35 -12 -75 -47q-34 -30 -52 -73q-18 -44 -18 -95zM309 -6l799 1382h104l-798 -1382h-105zM799 285 q0 65 24 123t68 102q45 45 104 68q61 24 133 24q74 0 136 -24q59 -23 104 -68q46 -46 68 -100q24 -59 24 -125q0 -67 -24 -125q-24 -59 -68 -103q-43 -43 -104 -67q-64 -25 -136 -25q-76 0 -137 27q-59 26 -104 74q-43 46 -64 104q-22 61 -22 121zM889 283q0 -58 20 -99 q20 -42 56 -73q36 -32 75 -45q44 -15 86 -15l2 2q42 0 91 17q40 14 73 47q32 32 49 73q19 46 19 95q0 55 -21 98q-22 47 -55 72q-38 30 -76 43q-46 16 -86 16q-42 0 -88 -16q-36 -13 -76 -47q-32 -28 -51 -74q-18 -43 -18 -94z" />
<glyph unicode="&#x26;" horiz-adv-x="1396" d="M84 336q0 136 98 246q99 111 283 184q-71 76 -117 156q-45 77 -45 172q0 66 27 125q27 58 73 98q48 41 111 65q67 25 137 25q76 0 140 -25q61 -24 104 -67q45 -45 68 -98q24 -55 24 -119q0 -126 -92 -215q-94 -91 -260 -148l377 -373q52 68 104 162q38 69 94 187l88 -41 q-54 -118 -104 -203q-61 -104 -113 -172l265 -260l-70 -68l-256 254v-6q-109 -121 -229 -184q-122 -64 -267 -64q-91 0 -176 29q-78 27 -139 78q-58 49 -92 116q-33 65 -33 146zM184 330q0 -58 29 -111q26 -47 74 -86q46 -37 108 -55q65 -19 133 -19l2 -4q126 0 230 58 q108 60 196 161l-419 414q-165 -61 -256 -149q-97 -94 -97 -209zM397 1092l2 -2q0 -85 50 -156q49 -70 114 -135l6 2q64 19 129 49q59 27 103 65t67 80q25 45 25 97q0 90 -66 153q-65 62 -176 62q-51 0 -98 -15q-43 -14 -80 -43q-34 -27 -55 -67t-21 -90z" />
<glyph unicode="'" horiz-adv-x="370" d="M137 1176v206h96v-206l-22 -254h-51z" />
<glyph unicode="(" horiz-adv-x="657" d="M88 449q0 324 131 583q132 261 383 430l41 -63q-232 -170 -348 -408q-117 -240 -117 -542q0 -303 117 -543q117 -239 348 -406l-41 -65q-251 169 -383 430q-131 259 -131 584z" />
<glyph unicode=")" horiz-adv-x="657" d="M14 -500v-4q231 167 348 406q117 240 117 542q0 305 -117 545q-117 241 -348 410l41 63q251 -169 383 -430q131 -259 131 -583q0 -325 -131 -584q-132 -261 -383 -430z" />
<glyph unicode="*" horiz-adv-x="829" d="M102 1151l27 82l242 -80v256h86v-256l241 80l27 -82l-242 -80l150 -205l-70 -49l-149 205l-150 -207l-69 51l149 205z" />
<glyph unicode="+" horiz-adv-x="1038" d="M96 455v88h379v379h88v-379h379v-88h-379v-379h-88v379h-379z" />
<glyph unicode="," horiz-adv-x="419" d="M133 53q0 30 23 53t55 23q39 0 57 -27q19 -28 19 -63q0 -66 -29 -135q-26 -61 -84 -129l-41 22l4 6q24 46 37 84q17 50 25 93q-29 3 -47 24q-19 22 -19 49z" />
<glyph unicode="-" horiz-adv-x="1116" d="M135 455v88h846v-88h-846z" />
<glyph unicode="." horiz-adv-x="419" d="M133 51q0 30 23 53t55 23q30 0 53 -23t23 -53q0 -32 -23 -55t-53 -23q-32 0 -55 23t-23 55z" />
<glyph unicode="/" horiz-adv-x="694" d="M104 0l394 1382h92l-393 -1382h-93z" />
<glyph unicode="0" horiz-adv-x="1370" d="M111 692q0 183 45 314q47 137 123 225t182 135q102 45 223 45t223 -45q106 -47 185 -135q77 -86 125 -225q45 -131 45 -314q0 -184 -45 -315q-47 -136 -125 -223q-81 -90 -185 -136q-102 -45 -223 -45t-223 45q-104 46 -182 136q-77 89 -123 223q-45 131 -45 315z M209 690q0 -153 37 -268q38 -118 102 -197q65 -80 152 -121t184 -41q96 0 186 41q89 41 154 121q64 79 102 197q37 115 37 268t-37 268q-38 118 -102 197q-65 80 -154 121q-90 41 -186 41q-97 0 -184 -41t-152 -121q-64 -79 -102 -197q-37 -115 -37 -268z" />
<glyph unicode="1" horiz-adv-x="849" d="M70 1178l358 204h92v-1296h297v-86h-688v86h299v1190l-317 -178z" />
<glyph unicode="2" horiz-adv-x="1202" d="M109 1210q119 104 245 152q128 49 262 49q102 0 185 -27q82 -27 141 -77q62 -52 90 -119q31 -73 31 -154q0 -121 -64 -200q-66 -82 -159 -142q-91 -59 -205 -110q-103 -46 -205 -109q-98 -61 -160 -137q-63 -78 -63 -199v-51h905v-86h-999l4 139q0 103 37 176 q40 78 96 134q54 54 135 100q56 32 158 80q19 9 73.5 34t83.5 39q79 39 136 84q58 46 96 105q37 58 37 139q0 68 -27 121q-26 50 -74 92t-110 62q-61 20 -142 20q-117 0 -233 -45q-118 -46 -223 -137z" />
<glyph unicode="3" horiz-adv-x="1167" d="M86 170l51 68q110 -93 223 -138t236 -45q87 0 154 25q65 24 108 67t64 99q20 53 20 116q0 158 -125 234q-128 78 -356 78l2 96q162 0 252 33q99 36 145 82q52 52 66 100q16 56 16 92q0 73 -33 117q-37 50 -86 78q-56 32 -116 43q-65 12 -123 12q-127 0 -228 -49 t-184 -135l-51 67q100 97 215 150q111 51 250 51q78 0 157 -18q84 -19 146 -58t106 -104q43 -64 43 -154q0 -45 -12 -98t-45 -100t-86 -88q-54 -41 -129 -68q130 -50 203 -141t73 -217q0 -74 -26 -142q-27 -70 -82 -125t-139 -90t-197 -35l-4 -4q-129 0 -260 49 q-129 48 -248 152z" />
<glyph unicode="4" horiz-adv-x="1214" d="M45 326v88l762 968h94v-968h256v-88h-256v-326h-92v326h-764zM154 414h655v852z" />
<glyph unicode="5" horiz-adv-x="1198" d="M78 164l51 67q114 -97 227 -139q116 -43 240 -43q119 0 197 37q81 38 129 92q50 56 71 123q23 74 23 131q0 84 -35 152q-33 64 -96 112q-64 48 -148 72q-89 25 -186 25q-93 0 -184 -21q-98 -22 -185 -61l80 663h785l-19 -86h-686l-57 -442q58 21 127 33q67 12 139 12 q123 0 221 -33q105 -36 176 -92q74 -58 117 -141q43 -82 43 -185q0 -72 -29 -161q-27 -83 -90 -152q-62 -68 -160 -111t-235 -43l2 -12q-135 0 -266 49q-133 50 -252 154z" />
<glyph unicode="6" horiz-adv-x="1261" d="M115 506v29q0 252 53 423q52 167 145 271q89 100 215 141q125 41 263 41q81 0 155 -12q66 -11 152 -31l-37 -86q-84 18 -135 25q-72 10 -135 10q-105 0 -199 -27q-97 -28 -172 -94q-77 -68 -129 -178q-53 -112 -74 -281q72 72 176 115t238 43q92 0 198 -29 q98 -27 177 -84q74 -54 124 -137t50 -192l6 4q0 -104 -43 -191q-43 -88 -117 -153q-72 -63 -172 -101q-98 -37 -209 -37q-106 0 -196 33q-100 36 -170 101q-73 67 -119 165q-45 96 -45 232zM211 506q0 -112 37 -193q37 -82 98 -137t141 -82q77 -26 164 -26l-4 -5 q88 0 170 31q78 30 139 84q58 52 93 123q34 69 34 152q0 89 -39 151q-42 67 -100 111t-141 69t-166 25q-86 0 -166 -25t-135 -63q-57 -39 -92 -96q-33 -53 -33 -119z" />
<glyph unicode="7" horiz-adv-x="1097" d="M55 1296v86h1049l-799 -1382h-102l749 1296h-897z" />
<glyph unicode="8" horiz-adv-x="1357" d="M106 362q0 136 80 222q79 85 213 129q-102 39 -168 121q-63 78 -63 198q0 93 41 164q41 72 110 117q70 46 164 71q95 25 197 25q106 0 201 -25q97 -25 163 -69q70 -47 111 -117q41 -71 41 -162q0 -120 -63 -198q-66 -81 -172 -121q136 -44 215 -129t79 -221 q0 -101 -45 -172q-47 -75 -125 -123q-81 -50 -184 -74q-109 -25 -223 -25l2 -4q-114 0 -223 25q-106 24 -183 74q-76 49 -122 122t-46 172zM201 350q0 -74 37 -129q36 -54 102 -92q62 -36 152 -55t184 -19v-2q93 0 186 19q91 19 154 55q66 38 102 92q37 55 37 129t-37 129 q-35 52 -102 94q-68 42 -154 60q-88 18 -186 18t-184 -18q-90 -19 -152 -58q-67 -42 -102 -94q-37 -55 -37 -129zM262 1032q0 -69 33 -119q32 -49 90 -88q54 -36 133 -55q76 -18 162 -18l-4 -4q86 0 162 18q78 18 135 55q59 38 92 88t33 121q0 73 -33 123q-35 54 -92 90 q-57 37 -135 55q-81 19 -162 19t-162 -19q-76 -18 -131 -55q-54 -37 -88 -88q-33 -50 -33 -123z" />
<glyph unicode="9" horiz-adv-x="1261" d="M80 922q0 106 45 192q48 92 119 154q68 59 170 100q93 37 200 37q105 0 195 -33q100 -37 172 -100q77 -68 123 -166q47 -100 47 -232v-28q0 -253 -53 -424q-52 -167 -144 -270q-91 -101 -215 -142q-125 -41 -262 -41l-10 -8q-83 0 -156 12q-56 9 -149 31l37 86 q71 -15 135 -24q79 -11 135 -11q105 0 211 29q96 26 172 96q73 67 123 182q50 116 65 289q-75 -75 -190 -125q-113 -49 -244 -49q-85 0 -180 25q-94 25 -170 80q-77 56 -127 139q-49 82 -49 201zM176 926q0 -92 41 -160t105 -111q60 -41 145 -63q79 -21 160 -21q86 0 166 25 q73 23 135 66q57 39 92 96q35 56 35 119q0 109 -37 190q-39 86 -98 139q-64 57 -142 84q-85 29 -162 29l2 -4q-80 0 -165 -29q-80 -27 -142 -80q-60 -51 -98 -123q-37 -70 -37 -157z" />
<glyph unicode=":" horiz-adv-x="423" d="M135 51q0 30 23 53t55 23q30 0 53 -23t23 -53q0 -32 -23 -55t-53 -23q-32 0 -55 23t-23 55zM135 965q0 30 23 53q22 22 55 22q31 0 53 -22q23 -23 23 -53q0 -33 -23 -56q-22 -22 -53 -22q-33 0 -55 22q-23 23 -23 56z" />
<glyph unicode=";" horiz-adv-x="423" d="M135 53q0 30 23 53t55 23q39 0 57 -27q19 -28 19 -63q0 -66 -29 -135q-26 -61 -84 -129l-41 22l4 6q24 46 37 84q17 50 25 93q-29 3 -47 24q-19 22 -19 49zM135 965q0 30 23 53q22 22 55 22q31 0 53 -22q23 -23 23 -53q0 -33 -23 -56q-22 -22 -53 -22q-33 0 -55 22 q-23 23 -23 56z" />
<glyph unicode="&#x3c;" horiz-adv-x="1079" d="M80 465v106l868 394v-99l-786 -350l784 -348v-96z" />
<glyph unicode="=" horiz-adv-x="1136" d="M145 246v88h846v-88h-846zM145 676v88h846v-88h-846z" />
<glyph unicode="&#x3e;" horiz-adv-x="1077" d="M129 866v99l868 -394v-106l-866 -393v96l784 348z" />
<glyph unicode="?" horiz-adv-x="1089" d="M70 1223q103 89 221 135q116 45 246 45q102 0 190 -31q87 -30 150 -82q62 -51 98 -127q35 -75 35 -162q0 -77 -31 -153q-30 -74 -92 -133q-61 -59 -150 -99q-87 -40 -213 -49v-340h-92v404q111 0 203 28q91 28 151 76q64 51 93 117q30 68 30 145t-26 133q-27 58 -76 101 q-47 42 -119 63q-77 23 -153 23q-123 0 -230 -43q-109 -44 -184 -119zM401 37q0 30 23 53t55 23q30 0 53 -23t23 -53q0 -32 -23 -55t-53 -23q-32 0 -55 23t-23 55z" />
<glyph unicode="@" horiz-adv-x="1705" d="M92 500q0 129 53 256q52 125 152 225q98 98 240 160q140 61 317 61q144 0 274 -43q134 -44 234 -125q102 -83 164 -203q61 -119 61 -276q0 -89 -18 -172q-18 -81 -56 -147t-92 -105q-53 -39 -125 -39q-63 0 -112 43t-58 113q-56 -74 -135 -117t-170 -43q-74 0 -147 31 q-68 29 -125 86q-56 56 -86 129q-31 76 -31 164q0 83 31 159q30 73 86 129q57 57 125 86q73 31 147 31q92 0 174 -43q84 -44 138 -119l10 140h67v-611q0 -39 25 -67q24 -27 61 -27q52 0 90 35q40 37 62 88q26 59 37 123q12 68 12 135q0 141 -51 246q-53 109 -137 178 q-87 72 -203 109q-112 36 -246 36q-168 0 -293 -55q-123 -54 -211 -145q-85 -87 -129 -201q-43 -110 -43 -221q0 -101 37 -205q36 -100 109 -186q72 -84 176 -136q102 -51 242 -51v-82l-13 -8q-147 0 -270 60q-121 59 -203 153q-84 96 -127 215t-43 236zM514 504 q0 -59 23 -123q21 -59 61 -105q41 -47 94 -73q56 -27 119 -27q59 0 117 25q56 24 98 69q44 47 68 105q24 59 24 129t-24 129q-24 58 -68 102q-45 45 -98 68q-56 24 -117 24v-2q-66 0 -119 -26t-94 -70q-40 -43 -61 -102q-23 -64 -23 -123z" />
<glyph unicode="A" horiz-adv-x="1376" d="M18 0l617 1382h106l617 -1382h-101l-184 416h-770l-184 -416h-101zM340 500h696l-348 782z" />
<glyph unicode="B" horiz-adv-x="1431" d="M207 0v1382l655 -2q91 0 156 -26q70 -28 115 -76q48 -51 71 -113q25 -67 25 -137q0 -89 -37 -162q-38 -75 -96 -121q115 -40 180 -139q63 -97 63 -223q0 -77 -24 -147t-74 -123q-49 -52 -119 -82q-73 -31 -161 -31h-754zM289 78h661q70 0 123 24t90 64q38 41 56 96 q18 56 18 117t-18 117t-52 96q-33 39 -86 63q-55 25 -123 25h-663zM295 764h623q52 0 92 24q39 23 67 62q29 40 43 84q15 46 15 92q0 48 -15 98q-15 49 -49 86q-36 39 -86 62q-53 24 -123 24h-567v-532z" />
<glyph unicode="C" horiz-adv-x="1421" d="M82 688q0 152 55 283q52 125 152 229q93 97 225 154q128 55 279 55q80 0 151 -14q75 -15 152 -43q74 -27 139 -68q69 -43 115 -92l-62 -55q-40 46 -98 80q-59 35 -127 59q-74 26 -137 37q-70 12 -131 12q-130 0 -240 -49q-114 -51 -195 -135q-82 -85 -129 -203t-47 -248 q0 -133 49 -246q48 -111 134 -200q83 -86 196 -135q115 -50 246 -50q60 0 133 13q64 11 133 37q68 25 121 61t98 84l60 -64l-8 -4q-97 -103 -246 -159q-148 -56 -301 -56q-151 0 -281 56t-227 153q-98 98 -154 228q-55 128 -55 280z" />
<glyph unicode="D" horiz-adv-x="1558" d="M205 -4v1382l575 6q142 0 264 -55q126 -57 216 -147q92 -92 145 -219t53 -271q0 -145 -49 -270t-139 -221q-87 -93 -213 -150q-122 -55 -271 -55h-581zM297 80h489q127 0 234 49q109 50 184 131q77 83 121 195q43 110 43 235q0 126 -43 236t-119 192q-75 81 -184 131 q-107 49 -234 49h-489z" />
<glyph unicode="E" horiz-adv-x="1247" d="M207 0v1382h921v-84h-829v-536h788v-84h-788v-594h836v-84h-928z" />
<glyph unicode="F" horiz-adv-x="1241" d="M207 0v1382h923v-84h-831v-585h791v-84h-791v-629h-92z" />
<glyph unicode="G" horiz-adv-x="1540" d="M92 682q0 148 60 283q57 129 157 229q99 99 230 154t276 55q92 0 172 -14q81 -14 166 -43q78 -26 147 -68q72 -44 121 -92l-61 -60q-95 89 -240 142t-307 53q-127 0 -240 -49q-111 -48 -198 -135q-83 -83 -137 -203q-52 -116 -52 -248q0 -133 52 -246t139 -200 q86 -86 207 -136q119 -49 254 -49q44 0 127 11q60 8 135 28q60 16 127 47q53 25 98 66v371h-407v84h499v-494l2 -10q-45 -44 -112 -82q-68 -38 -148 -62q-86 -26 -162 -37q-83 -12 -159 -12q-159 0 -293 55t-236 154q-100 97 -159 227q-58 128 -58 281z" />
<glyph unicode="H" d="M207 0v1382h92v-626h983v626h92v-1382h-92v672h-983v-672h-92z" />
<glyph unicode="I" horiz-adv-x="505" d="M207 0v1382h92v-1382h-92z" />
<glyph unicode="J" horiz-adv-x="1134" d="M29 225l65 54q70 -120 189 -173q114 -51 233 -51q158 0 246 88q90 90 90 260v977h92v-970q0 -106 -31 -191q-30 -82 -88 -137t-137 -82q-80 -27 -176 -27h-6q-159 0 -283 68t-194 184z" />
<glyph unicode="K" horiz-adv-x="1312" d="M207 0v1382h92v-807l868 807h121l-680 -637l711 -745h-125l-655 682l-240 -225v-457h-92z" />
<glyph unicode="L" horiz-adv-x="1169" d="M207 0v1382h92v-1298h836v-84h-928z" />
<glyph unicode="M" horiz-adv-x="1880" d="M207 0v1382h92l641 -1185l641 1185h92v-1382h-92v1210l-590 -1097h-104l-588 1097v-1210h-92z" />
<glyph unicode="N" d="M207 0v1382h92l983 -1241v1241h92v-1382h-92l-983 1239v-1239h-92z" />
<glyph unicode="O" horiz-adv-x="1660" d="M88 688q0 146 59 279q57 128 158 229q98 98 234 154q134 55 288 55q155 0 289 -55q136 -56 234 -154q100 -100 157 -229q60 -135 60 -279q0 -150 -58 -278q-59 -130 -157 -228q-96 -96 -234 -153q-136 -56 -289 -56l-4 -2q-152 0 -288 56q-138 57 -234 153 q-100 100 -158 228q-57 126 -57 280zM184 684q0 -131 52 -244t139 -200t203 -136t247 -49h-6q134 0 250 49t203 136t139 200q51 111 51 244q0 132 -51 246q-54 120 -137 203t-203 137q-114 51 -248 51t-248 -51q-118 -53 -202 -137q-83 -83 -137 -203q-52 -116 -52 -246z " />
<glyph unicode="P" horiz-adv-x="1357" d="M207 -8v1382h616q111 0 195 -37q85 -37 143 -98q61 -64 90 -141q31 -82 31 -162t-31 -168t-88 -154q-58 -67 -143 -110t-197 -43h-524v-469h-92zM299 545h524q93 0 160 37q66 37 113 96q45 57 67 127q23 74 23 133q0 64 -21 129t-67 117q-49 56 -113 84q-67 30 -160 30 h-526v-753z" />
<glyph unicode="Q" horiz-adv-x="1660" d="M92 688q0 144 60 279q57 129 157 229q98 98 234 154q134 55 288 55q155 0 289 -55q136 -56 234 -154q100 -100 157 -229q60 -135 60 -279q0 -130 -43 -246q-44 -118 -123 -209t-186 -155t-234 -88l125 -29l393 -113v-96l-796 232l4 -4q-131 21 -246 86q-113 64 -197 157 q-81 90 -129 213q-47 121 -47 252zM193 684q0 -135 51 -246q52 -113 139 -200t203 -136t248 -49h-7q134 0 250 49t203 136t139 200q51 111 51 246q0 134 -51 248q-54 120 -137 203q-85 85 -203 135q-116 49 -248 49q-131 0 -247 -49q-118 -50 -203 -135q-83 -83 -137 -203 q-51 -114 -51 -248z" />
<glyph unicode="R" horiz-adv-x="1374" d="M211 -10v1382h694q90 0 160 -37q72 -38 119 -94q49 -58 73 -135q25 -80 25 -156q0 -75 -20 -139q-21 -66 -62 -123q-42 -57 -98 -96q-58 -40 -131 -55l264 -547h-98l-263 540h-571v-540h-92zM299 614h602q69 0 123 31q50 29 86 80q35 51 53 111q19 65 19 122 q0 58 -19 123t-51 111q-37 53 -86 78q-54 28 -123 28h-604v-684z" />
<glyph unicode="S" horiz-adv-x="1232" d="M61 188l52 68l-23 -14q57 -51 127 -90q68 -38 139 -62q75 -26 142 -37q70 -12 133 -12q101 0 174 27t123 71q48 42 73 103t25 118q0 54 -25 99q-24 43 -73 73q-57 35 -125 56q-91 28 -178 49q-159 37 -258 84q-100 47 -154 98q-57 54 -74 107q-18 55 -18 106v12 q0 66 29 132q28 64 90 116q61 51 145 78q92 29 190 29q57 0 117 -8q70 -9 142 -27q80 -20 147 -51q81 -38 133 -82l-49 -68q-51 45 -117 76q-74 34 -131 47q-84 19 -129 23q-62 6 -106 6q-182 0 -271 -80q-88 -79 -88 -199q0 -48 23 -96q20 -41 71 -80q46 -35 134 -67 q101 -37 202 -62q141 -33 221 -63q97 -37 150 -76q59 -44 86 -96t27 -123q0 -75 -31 -148t-88 -127t-152 -90q-88 -33 -215 -33q-64 0 -147 13q-72 11 -154 37q-77 24 -151 65q-76 42 -138 98z" />
<glyph unicode="T" horiz-adv-x="1249" d="M29 1298v84h1192v-84h-549v-1298h-92v1298h-551z" />
<glyph unicode="U" horiz-adv-x="1507" d="M184 522v860h92l-4 -860q0 -120 39 -205q41 -90 107 -147q68 -59 153 -86q92 -29 183 -29q90 0 182 29q86 27 151 86q66 60 103 147t37 205v860h92v-860q0 -138 -45 -237q-46 -101 -123 -172t-180 -105q-107 -35 -217 -35q-112 0 -219 35t-183 105q-77 71 -123 172 q-45 99 -45 237z" />
<glyph unicode="V" horiz-adv-x="1380" d="M16 1382h103l573 -1300l570 1300h102l-621 -1382h-106z" />
<glyph unicode="W" horiz-adv-x="2084" d="M37 1382h102l457 -1267l397 1267h101l399 -1271l455 1271h100l-502 -1382h-100l-402 1253l-403 -1253h-102z" />
<glyph unicode="X" horiz-adv-x="1292" d="M2 0l592 713l-547 669h119l489 -608l494 608h113l-551 -680l569 -702h-115l-514 641l-532 -641h-117z" />
<glyph unicode="Y" horiz-adv-x="1366" d="M10 1382h107l567 -800l561 800h113l-629 -888v-494h-92v494z" />
<glyph unicode="Z" horiz-adv-x="1230" d="M51 0v57l971 1241h-948v84h1083v-53l-975 -1245h998v-84h-1129z" />
<glyph unicode="[" horiz-adv-x="430" d="M147 -512v1894h191v-86h-98v-1722h98v-86h-191z" />
<glyph unicode="\" horiz-adv-x="694" d="M104 1382h93l393 -1382h-92z" />
<glyph unicode="]" horiz-adv-x="430" d="M92 -426h98v1722h-98v86h191v-1894h-191v86z" />
<glyph unicode="^" horiz-adv-x="976" d="M102 700l332 682h107l331 -684h-98l-289 605l-286 -603h-97z" />
<glyph unicode="_" horiz-adv-x="1193" d="M0 -154h1194v-88h-1194v88z" />
<glyph unicode="`" horiz-adv-x="450" d="M84 1384h102l185 -258h-103z" />
<glyph unicode="a" horiz-adv-x="1058" d="M66 283q0 77 30 133q28 52 84 92q54 38 123 59q70 21 154 27l360 22v111q0 112 -78 172q-75 57 -219 57q-76 0 -168 -12q-97 -13 -178 -51l-31 76q87 38 185 53q106 16 192 16q185 0 285 -80q98 -79 98 -225v-733h-67l-17 162l4 -2q-106 -84 -209 -137q-101 -52 -217 -52 q-79 0 -143 25q-61 24 -104 67t-64 99q-20 53 -20 121zM160 287q0 -47 14 -88q13 -36 47 -76q28 -32 80 -51t117 -19h-4q57 0 110 15q55 16 101 38q44 21 96 60q54 40 98 74v311l-336 -27q-71 -6 -129 -18q-54 -11 -102 -41q-43 -27 -68 -72q-24 -43 -24 -106z" />
<glyph unicode="b" horiz-adv-x="1269" d="M158 0v1458h86v-565l-11 -115q68 120 185 191q118 71 252 71q106 0 196 -43q97 -46 164 -116q71 -74 111 -172q41 -100 41 -207q0 -109 -41 -209q-39 -96 -111 -168q-70 -71 -162 -111q-93 -41 -194 -41l-4 -2q-127 0 -244 66q-113 64 -184 176l-17 -213h-67zM236 496 q0 -98 34 -179q35 -84 92 -141t138 -92q76 -33 170 -33l-11 -8q97 0 172 37q82 40 134 98q56 62 86 144t30 174q0 96 -30 178q-30 83 -86 145t-131 99q-73 36 -168 36q-92 0 -168 -36q-80 -38 -138 -99q-56 -59 -92 -145q-32 -77 -32 -178z" />
<glyph unicode="c" horiz-adv-x="1060" d="M78 498q0 121 43 219q44 100 117 170q72 69 168 110q91 39 200 39q111 0 209 -39q103 -41 174 -112l-65 -60q-59 60 -136 97q-73 36 -178 36q-94 0 -172 -34q-76 -33 -137 -97q-56 -59 -92 -145q-33 -79 -33 -182q0 -102 33 -181q35 -84 92 -141q56 -56 139 -92 q76 -33 172 -33q101 0 179 37q84 40 139 100l63 -59l-10 -2q-70 -76 -170 -117t-209 -41q-105 0 -198 37q-94 38 -168 105q-74 68 -117 166t-43 219z" />
<glyph unicode="d" horiz-adv-x="1271" d="M80 502q0 115 43 213q45 102 113 170q71 71 161 114t195 43q125 0 246 -65q118 -63 190 -189l-10 107v565h86v-1458h-68l-16 213v-6q-69 -109 -184 -174q-113 -64 -244 -64q-102 0 -195 41q-90 40 -161 111q-70 70 -113 168t-43 211zM176 498q0 -86 31 -168 q30 -80 86 -142q55 -61 131 -98q75 -37 172 -37l-4 2q87 0 168 35q83 36 139 92t92 142q35 84 35 178q0 99 -33 178q-36 86 -92 145q-59 62 -137 99t-168 37q-98 0 -172 -39q-75 -40 -131 -105q-56 -66 -86 -147q-31 -85 -31 -172z" />
<glyph unicode="e" horiz-adv-x="1148" d="M82 498q0 115 43 213q44 100 113 172q71 74 161 114q93 41 193 41q97 0 184 -37q92 -39 156 -106q68 -71 108 -172q41 -103 41 -223h-903q0 -104 37 -185q38 -84 98 -141q63 -60 146 -90q85 -31 178 -31q105 0 186 37q83 38 142 103l61 -62l-6 2q-76 -76 -174 -119 t-215 -43q-109 0 -207 37q-96 37 -174 105q-77 68 -123 166q-45 96 -45 219zM184 565l801 17q-9 84 -43 153q-34 70 -86 119q-56 53 -119 78q-73 29 -143 29l2 -3q-80 0 -150 -30q-68 -29 -124 -82t-93 -125q-36 -70 -45 -156z" />
<glyph unicode="f" horiz-adv-x="491" d="M82 938v80h88v133q0 71 27 129t73 98q47 41 105 62q61 22 123 22v-80q-48 0 -92 -18q-37 -16 -76 -49q-32 -28 -51 -74t-19 -94v-133h221v-31l-20 -49h-201l-4 -930h-86v934h-88z" />
<glyph unicode="g" horiz-adv-x="1269" d="M76 504q0 113 43 211q45 103 112 170q69 69 162 110t195 41q66 0 123 -14q60 -15 116 -45q54 -29 105 -74q50 -44 86 -100l16 209h68v-992q0 -93 -31 -178q-30 -82 -88 -143q-57 -60 -152 -96q-93 -35 -217 -35l-16 -2q-105 0 -229 28q-115 26 -242 80l35 70 q109 -52 225 -76q114 -24 213 -24q123 0 201 34q77 33 125 91q44 53 63 120q19 68 19 127v187q-70 -110 -185 -172t-239 -62q-102 0 -195 41q-91 40 -162 111q-68 68 -110 170q-41 100 -41 213zM178 506q0 -87 31 -172q30 -83 86 -148q52 -60 133 -100q75 -37 166 -37 q86 0 164 35q76 34 135 96q57 60 96 146q37 81 37 182q0 99 -37 180q-38 85 -94 143q-57 60 -135 95t-164 35l-4 -5q-93 0 -166 -36q-75 -37 -131 -99q-57 -63 -86 -143q-31 -85 -31 -172z" />
<glyph unicode="h" horiz-adv-x="1241" d="M162 0v1462h86v-526l-10 -137q81 109 190 176q110 67 238 67q70 0 147 -24q79 -25 139 -76q64 -55 103 -131q41 -80 41 -190v-619h-86v619q0 86 -31 153q-30 64 -80 105q-48 40 -111 61q-62 21 -122 21l-4 -5q-66 0 -130 -22q-54 -18 -112 -60q-55 -39 -96 -86 q-39 -44 -76 -104v-684h-86z" />
<glyph unicode="i" horiz-adv-x="413" d="M135 1333q0 30 23 53t55 23q30 0 53 -23t23 -53q0 -32 -23 -55t-53 -23q-32 0 -55 23t-23 55zM164 0v1014h86v-1014h-86z" />
<glyph unicode="j" horiz-adv-x="413" d="M-70 -401q50 0 93 18q41 17 73 49q31 31 49 74q19 46 19 94v1180h86v-1180l8 -4q0 -70 -27 -129q-27 -58 -73 -98q-47 -41 -105 -62q-61 -22 -123 -22v80zM129 1333q0 30 23 53t55 23q30 0 53 -23t23 -53q0 -32 -23 -55t-53 -23q-32 0 -55 23t-23 55z" />
<glyph unicode="k" horiz-adv-x="1048" d="M164 0v1462h86v-1059l612 611h123l-401 -400l450 -614h-104l-404 555l-276 -274v-281h-86z" />
<glyph unicode="l" horiz-adv-x="430" d="M172 0v1462h86v-1462h-86z" />
<glyph unicode="m" horiz-adv-x="1937" d="M154 -6v1014h67l15 -203q70 105 172 166q101 61 210 61q55 0 107 -14q54 -15 104 -45q51 -31 91 -80q41 -51 65 -117q71 115 178 185q109 71 223 71q66 0 136 -24q71 -24 129 -76q59 -53 96 -131t37 -191v-616h-86v616q0 90 -27 154q-26 62 -72 108q-43 43 -98 64 q-53 20 -110 20q-59 0 -117 -22q-48 -18 -100 -60q-49 -39 -87 -86q-30 -37 -73 -102q4 -20 4 -35v-37v-616h-86v616q0 87 -25 154t-67 109q-41 41 -99 63q-56 21 -112 21l-13 -9q-60 0 -118 -22q-54 -20 -103 -60q-48 -39 -86 -88q-39 -51 -69 -106v-682h-86z" />
<glyph unicode="n" horiz-adv-x="1243" d="M168 -4v1014h68l14 -205q79 113 188 172t232 59q76 0 153 -24q81 -25 140 -76q61 -52 98 -131q37 -78 37 -191v-616h-86v616q0 87 -31 154q-30 65 -80 109q-47 42 -110 63q-62 21 -125 21l2 -9q-65 0 -129 -22q-56 -19 -113 -60q-55 -39 -96 -86q-39 -44 -76 -104v-684 h-86z" />
<glyph unicode="o" horiz-adv-x="1196" d="M82 496q0 121 43 219q45 102 113 170q70 69 161 110q88 39 193 39q106 0 194 -39q97 -43 164 -110q68 -68 113 -170q43 -98 43 -217t-43 -217q-44 -100 -113 -166q-70 -67 -162 -105q-90 -37 -192 -37l-4 -4q-103 0 -193 37t-161 105q-70 67 -113 165t-43 220zM174 494 q0 -100 33 -179q35 -83 90 -141q53 -56 133 -92q73 -33 162 -33l-2 -4q86 0 164 35t135 92t92 141q33 79 33 181q0 99 -33 178q-36 86 -92 145q-57 60 -135 98q-75 37 -166 37q-87 0 -162 -34q-73 -33 -131 -97q-51 -57 -88 -145q-33 -79 -33 -182z" />
<glyph unicode="p" horiz-adv-x="1273" d="M147 -479v1495h68l16 -209q67 111 181 172q113 61 247 61q107 0 195 -36q97 -40 164 -107q68 -68 112 -168t44 -217q0 -118 -39 -213q-42 -102 -107 -170q-67 -70 -160 -111t-202 -41q-141 0 -256 68t-179 184l11 -104v-602zM236 516q0 -101 32 -178q36 -86 92 -145 q58 -61 138 -99q78 -37 172 -37q97 0 172 37q78 38 133 99q56 62 86 145q31 85 31 176q0 93 -31 178q-30 83 -86 142q-53 56 -133 92q-78 35 -166 35l-8 4q-92 0 -168 -33q-83 -36 -138 -94q-57 -60 -92 -144q-34 -81 -34 -178z" />
<glyph unicode="q" horiz-adv-x="1269" d="M84 510q0 111 41 211q39 96 111 168q68 68 163 110q93 41 197 41q131 0 244 -61q115 -62 184 -174l16 209h68v-1495h-86l-2 596l10 106q-70 -119 -186 -186q-118 -68 -252 -68q-107 0 -197 43q-91 44 -162 117q-69 72 -110 172q-39 95 -39 211zM168 500q0 -89 31 -174 t86 -146q53 -59 133 -98q75 -37 170 -37q92 0 170 37q79 37 137 98q55 58 92 146q35 84 35 178t-35 178q-35 83 -92 143t-135 95q-75 34 -166 34l-12 -4q-88 0 -166 -35t-131 -94q-57 -63 -86 -143q-31 -85 -31 -178z" />
<glyph unicode="r" horiz-adv-x="724" d="M164 -2v1014h67l17 -232q88 120 211 189q127 71 266 71v-79q-73 0 -150 -25q-75 -24 -135 -64q-61 -40 -110 -92q-53 -56 -80 -106v-674z" />
<glyph unicode="s" horiz-adv-x="980" d="M55 115l41 63l-8 -8q55 -37 119 -61q71 -27 125 -37q73 -14 117 -19q56 -6 94 -6q135 0 202 55q66 55 66 129v7q-3 91 -80 141q-76 49 -233 84q-117 23 -193 59t-117 74t-57 84q-14 41 -14 84q0 58 24 108q22 46 72 86q49 39 115 60q71 22 155 22q100 0 209 -28 q101 -26 180 -80l-38 -64q-71 41 -154 68t-182 27q-129 0 -211 -52q-80 -51 -80 -137v-6q0 -36 16 -68q15 -29 53 -57q41 -30 95 -49q59 -21 147 -39q209 -47 295 -119q90 -75 90 -180v-13q0 -52 -22 -100q-22 -49 -74 -88q-51 -39 -119 -59q-70 -21 -160 -21 q-108 0 -239 35q-129 34 -234 105z" />
<glyph unicode="t" horiz-adv-x="567" d="M63 930v80h125v262l86 49v-311h256v-49l-18 -31h-238v-664q0 -42 13 -86q12 -40 45 -69q35 -30 86 -45q60 -17 133 -17v-76l-4 -4q-90 0 -164 23q-68 21 -111 61q-42 39 -63 94t-21 119v664h-125z" />
<glyph unicode="u" horiz-adv-x="1204" d="M145 399v619h86v-619q0 -84 29 -153q26 -62 74 -107q45 -42 104 -63q58 -21 119 -21q66 0 127 25q62 25 109 61q52 39 90 86q42 51 71 105v682h86v-1014h-67l-15 207l-2 2q-76 -104 -180 -168t-221 -64q-64 0 -141 25q-73 24 -131 76q-59 53 -99 131q-39 77 -39 190z" />
<glyph unicode="v" horiz-adv-x="1032" d="M37 1014h96l383 -926l383 926h96l-432 -1014h-96z" />
<glyph unicode="w" horiz-adv-x="1624" d="M49 1014h94l314 -922l307 922h96l311 -922l310 922h94l-358 -1014h-95l-309 920l-311 -920h-96z" />
<glyph unicode="x" horiz-adv-x="1007" d="M20 0l431 528l-394 486h113l334 -424l336 424h112l-393 -490l428 -524h-113l-372 465l-369 -465h-113z" />
<glyph unicode="y" horiz-adv-x="1036" d="M41 1014h96l375 -908l391 908h96l-479 -1108q-81 -190 -194 -291q-110 -98 -242 -98v82l-4 2q89 0 184 80t160 225l45 100z" />
<glyph unicode="z" horiz-adv-x="978" d="M57 0v80l729 854h-694v80h805v-80l-729 -854h747v-80h-858z" />
<glyph unicode="{" horiz-adv-x="612" d="M12 422v76q48 0 92 18q43 18 74 49t49 74q19 46 19 96v406q0 73 26 129t74 98q47 41 105 62q61 22 122 22v-76q-49 0 -92 -18q-36 -15 -75 -49q-33 -29 -52 -74q-18 -43 -18 -94v-406q0 -97 -47 -168q-45 -68 -121 -110q76 -39 121 -107q47 -71 47 -168v-381 q0 -51 18 -94q19 -45 52 -74q38 -33 77 -49q43 -18 92 -18v-76l-2 2q-58 0 -122 23q-59 21 -105 61q-48 42 -74 98t-26 129v381q0 51 -19 97q-17 41 -49 73q-31 31 -74 49q-46 19 -92 19z" />
<glyph unicode="|" horiz-adv-x="380" d="M147 -512v1974h86v-1974h-86z" />
<glyph unicode="}" horiz-adv-x="612" d="M35 -451q46 0 92 19q43 18 74 49t49 74t18 96v401q0 99 47 170q46 70 121 111q-74 38 -121 109t-47 170v385q0 53 -18 96t-49 74t-74 49q-44 18 -92 18v76q59 0 123 -23q58 -21 104 -61q48 -42 74 -98t26 -129v-385q0 -49 19 -95q19 -45 51 -73q39 -34 78 -50 q44 -18 92 -18v-76q-48 0 -92 -18q-37 -16 -76 -49q-32 -28 -51 -74q-18 -44 -18 -94v-402q0 -71 -27 -129q-26 -56 -74 -98q-46 -40 -104 -61q-64 -23 -123 -23v76z" />
<glyph unicode="~" horiz-adv-x="1042" d="M152 516q0 52 18 92q19 43 45 66q29 26 61 37q34 12 72 12q46 0 92 -18q40 -15 92 -39q46 -21 93 -39q49 -19 92 -19q36 0 67 25q30 24 39 96h72q0 -102 -49 -160q-48 -57 -141 -57q-57 0 -103 18t-90 39q-78 38 -86 41q-46 19 -86 19q-59 0 -80 -27q-22 -29 -31 -80h-75 z" />
<glyph unicode="&#xa2;" horiz-adv-x="1077" d="M72 496q0 118 39 209q42 98 106 165q65 68 154 113q82 42 184 51v281h86v-281q97 -9 184 -49q92 -42 154 -104l-70 -64q-61 67 -137 103t-172 36q-92 0 -168 -36q-78 -37 -137 -99q-56 -59 -92 -145q-33 -79 -33 -178q0 -100 33 -179q35 -84 92 -141q57 -58 137 -92 q76 -33 170 -33q97 0 178 37q87 40 142 100l63 -59l-8 -4q-61 -64 -152 -107q-84 -40 -184 -49v-295h-86v295q-100 9 -184 49q-86 40 -154 109q-63 63 -106 160q-39 88 -39 207z" />
<glyph unicode="&#xa3;" horiz-adv-x="1333" d="M72 696v68l155 16l-16 105q-21 137 18 233q41 100 117 164q80 67 180 96q108 31 211 31q67 0 137 -12q67 -11 136 -37q63 -23 123 -62q58 -37 104 -86l-55 -57q-45 45 -92 72q-52 30 -111 51q-63 22 -121 31q-68 10 -119 10q-86 0 -172 -25q-84 -24 -147 -73t-94 -127 t-13 -185l21 -123h448v-69l-434 -17l101 -612h641l24 246h60v-334h-1055l-10 59l233 25l-100 612h-170z" />
<glyph unicode="&#xa5;" horiz-adv-x="1323" d="M70 1382h106l488 -755l487 755h102l-413 -641h307v-86h-363l-77 -120v-117h440v-86h-440v-332h-93v332h-442v86h442v117l-77 120h-365v86h309z" />
<glyph unicode="&#xa8;" horiz-adv-x="716" d="M102 1305q0 34 27 55q28 22 51 22t49 -20q27 -21 27 -55q0 -42 -27 -60t-49 -18v-2q-24 0 -51 18t-27 60zM461 1303q0 35 26 55q28 22 52 22q23 0 49 -20t26 -55q0 -43 -26 -60q-27 -18 -49 -18v-2q-25 0 -52 18q-26 17 -26 60z" />
<glyph unicode="&#xa9;" horiz-adv-x="1640" d="M102 688q0 146 56 279q55 131 153 229q99 99 230 154t278 55q152 0 283 -55q129 -54 229 -154t154 -229q55 -131 55 -279q0 -150 -55 -278q-56 -130 -154 -228t-229 -153q-133 -56 -283 -56v-2q-145 0 -278 56t-230 153q-96 96 -153 228q-56 130 -56 280zM178 688 q0 -136 51 -250q50 -112 140 -205q86 -89 202 -141q114 -51 248 -51l-6 -2q136 0 250 51q116 52 205 141t139 207q49 116 49 250q0 136 -51 250q-55 122 -137 207q-85 88 -203 141q-114 51 -248 51t-248 -51q-116 -52 -202 -141q-84 -87 -138 -207q-51 -114 -51 -250z M385 676q0 97 35 178t96 139q60 57 139 88t164 31q94 0 170 -33q83 -36 139 -92l-57 -69q-48 54 -113 83q-70 31 -141 31q-72 0 -131 -26q-57 -25 -106 -74t-72 -111q-25 -67 -25 -141q0 -70 25 -137q23 -62 72 -111t106 -74q59 -26 133 -26q77 0 144 30t116 82l51 -63 l-4 -8q-55 -57 -139 -94q-76 -33 -172 -33q-88 0 -164 30q-74 29 -137 86q-57 52 -94 136q-35 81 -35 178z" />
<glyph unicode="&#xab;" horiz-adv-x="1011" d="M102 477v82l398 406v-109l-322 -334l320 -329v-121zM494 477v82l397 406v-109l-322 -334l320 -329v-121z" />
<glyph unicode="&#xad;" horiz-adv-x="1116" d="M135 455v88h846v-88h-846z" />
<glyph unicode="&#xae;" horiz-adv-x="1640" d="M102 688q0 146 56 279q55 131 153 229q99 99 230 154t278 55q152 0 283 -55q129 -54 229 -154t154 -229q55 -131 55 -279q0 -150 -55 -278q-56 -130 -154 -228t-229 -153q-133 -56 -283 -56v-2q-145 0 -278 56t-230 153q-96 96 -153 228q-56 130 -56 280zM178 688 q0 -136 51 -250q50 -112 140 -205q86 -89 202 -141q114 -51 248 -51l-6 -2q136 0 250 51q116 52 205 141t139 207q49 116 49 250q0 136 -51 250q-55 122 -137 207q-85 88 -203 141q-114 51 -248 51t-248 -51q-116 -52 -202 -141q-84 -87 -138 -207q-51 -114 -51 -250z M543 270v820h364q51 0 94 -21q47 -22 72 -55q29 -37 43 -80q17 -53 17 -94q0 -83 -48 -156q-47 -71 -135 -86l158 -326h-90l-158 322l-231 -2v-322h-86zM633 672h278q34 0 60 16q27 17 41 39q14 23 24 55q8 27 8 62q0 36 -8 63q-10 34 -24 56q-13 20 -41 38q-24 15 -60 15 h-278v-344z" />
<glyph unicode="&#xb4;" horiz-adv-x="450" d="M84 1126l184 258h103l-185 -258h-102z" />
<glyph unicode="&#xb8;" horiz-adv-x="499" d="M80 -322l24 74v-2q35 -28 68 -39q35 -12 70 -12t55 14q22 16 22 43q0 34 -49 49q-56 17 -135 17l55 182h82l-30 -104q99 -6 141 -37q41 -30 41 -96q0 -63 -51 -105q-52 -43 -135 -43q-58 0 -101 19q-37 16 -57 40z" />
<glyph unicode="&#xbb;" horiz-adv-x="1013" d="M123 856v109l397 -406v-82l-395 -405v121l319 329zM514 856v109l397 -406v-82l-395 -405v121l320 329z" />
<glyph unicode="&#x2c6;" horiz-adv-x="450" d="M-20 1124l184 258h119l184 -258h-102l-142 199l-141 -199h-102z" />
<glyph unicode="&#x2da;" horiz-adv-x="561" d="M80 1311q0 80 55 135t144 55q88 0 143 -55t55 -135q0 -82 -55 -137q-56 -56 -143 -56q-86 0 -142 56q-55 55 -55 137h-2zM170 1309q0 -57 35 -84q37 -29 74 -29l2 -4q46 0 77 31t31 82q0 59 -33 88q-35 30 -73 30q-45 0 -80 -30q-33 -29 -33 -84z" />
<glyph unicode="&#x2dc;" horiz-adv-x="661" d="M80 1237q3 71 47 109q42 36 102 36q35 0 62 -12q32 -14 55 -27q9 -5 51 -26q24 -12 54 -12q21 0 36 12q16 13 19 47h72q0 -74 -35 -115t-99 -41q-33 0 -65 13q-36 15 -57 26q-19 11 -56 27q-27 12 -55 12q-44 0 -53 -47h-76z" />
<glyph unicode="&#x401;" horiz-adv-x="1247" d="M207 -4v1382h921v-84h-829v-536h788v-84h-788v-594h836v-84h-928zM393 1608q0 34 27 55q30 23 51 23q22 0 49 -21t27 -55q0 -42 -27 -60t-49 -18v-2q-24 0 -51 18t-27 60zM793 1606q0 35 26 55q28 22 51 22q24 0 50 -20t26 -55q0 -43 -26 -60q-27 -18 -50 -18v-2 q-24 0 -51 18q-26 17 -26 60z" />
<glyph unicode="&#x402;" horiz-adv-x="1673" d="M29 1300v84h987v-84h-447v-466q128 61 250 84q126 24 234 24q129 0 227 -33q105 -35 172 -94q73 -63 109 -149q36 -85 36 -203l2 -4q0 -114 -36 -199q-38 -90 -105 -154q-66 -63 -166 -98t-223 -35v84q100 0 182 31q77 29 135 84q57 54 87 127t30 162q0 77 -24 147 q-24 71 -80 127q-55 55 -144 90q-90 35 -215 35q-20 0 -94 -4q-48 -3 -117 -16q-61 -12 -129 -33q-67 -21 -131 -55v-750h-92v1298h-448z" />
<glyph unicode="&#x403;" horiz-adv-x="1120" d="M207 0v1382h878v-84h-786v-1298h-92zM555 1479l184 258h103l-185 -258h-102z" />
<glyph unicode="&#x404;" horiz-adv-x="1437" d="M90 692q0 152 55 283q52 125 152 229q93 97 225 154q128 55 279 55q77 0 151 -14q76 -14 154 -43q74 -27 139 -68q69 -43 115 -92l-62 -55q-40 46 -98 80q-59 35 -127 59q-74 26 -137 37q-70 12 -135 12q-125 0 -230 -45q-107 -46 -190 -123q-81 -75 -131 -184 q-51 -112 -60 -229h723v-84h-725q6 -124 56 -236q47 -106 133 -192q84 -84 194 -130q112 -47 238 -47q60 0 133 13q64 11 133 37q68 25 121 61t98 84l60 -64l-2 3q-50 -53 -111 -93q-58 -38 -133 -67q-76 -29 -147 -43q-77 -15 -154 -15q-151 0 -281 56t-227 153 q-98 98 -154 228q-55 128 -55 280z" />
<glyph unicode="&#x405;" horiz-adv-x="1232" d="M61 188l52 68l-23 -14q57 -51 127 -90q68 -38 139 -62q75 -26 142 -37q70 -12 133 -12q101 0 174 27t123 71q48 42 73 103t25 118q0 54 -25 99q-24 43 -73 73q-57 35 -125 56q-91 28 -178 49q-159 37 -258 84q-100 47 -154 98q-57 54 -74 107q-18 55 -18 106 q-3 72 29 144q28 64 90 116q61 51 145 78q92 29 190 29q57 0 117 -8q70 -9 142 -27q80 -20 147 -51q81 -38 133 -82l-49 -68q-51 45 -117 76q-74 34 -131 47q-84 19 -129 23q-62 6 -106 6q-182 0 -271 -80q-88 -79 -88 -199q0 -48 23 -96q20 -41 71 -80q46 -35 134 -67 q101 -37 202 -62q141 -33 221 -63q97 -37 150 -76q59 -44 86 -96t27 -123q0 -75 -31 -148t-88 -127t-152 -90q-88 -33 -215 -33q-64 0 -147 13q-72 11 -154 37q-77 24 -151 65q-76 42 -138 98z" />
<glyph unicode="&#x406;" horiz-adv-x="505" d="M207 0v1382h92v-1382h-92z" />
<glyph unicode="&#x407;" horiz-adv-x="505" d="M-37 1608q0 34 27 55q30 23 51 23q22 0 49 -21t27 -55q0 -42 -27 -60t-49 -18v-2q-24 0 -51 18t-27 60zM207 -4v1382h92v-1382h-92zM362 1606q0 34 27 55q28 22 51 22t49 -20q27 -21 27 -55q0 -42 -27 -60t-49 -18v-2q-24 0 -51 18t-27 60z" />
<glyph unicode="&#x408;" horiz-adv-x="1134" d="M29 225l65 54q70 -120 189 -173q114 -51 233 -51q158 0 246 88q90 90 90 260v977h92v-970q0 -106 -31 -191q-30 -82 -88 -137t-137 -82q-80 -27 -176 -27h-6q-159 0 -283 68t-194 184z" />
<glyph unicode="&#x409;" horiz-adv-x="2232" d="M33 -27v84q39 0 88 17q44 15 78 49t55 80q22 49 22 110v1069h986v-606h522q93 0 160 -33q69 -34 118 -86q51 -55 74 -118q25 -70 25 -138t-25 -141q-24 -70 -74 -129q-48 -57 -118 -94t-160 -37h-615v1298h-800v-979h2q0 -84 -29 -153q-27 -65 -74 -109q-44 -41 -108 -63 q-61 -21 -127 -21zM1262 88h524q69 0 123 31q51 29 86 76q32 43 51 102q18 56 18 109q0 52 -18 104q-18 54 -51 92q-37 44 -86 66q-53 24 -123 24h-522z" />
<glyph unicode="&#x40a;" horiz-adv-x="2344" d="M205 0v1382h92v-608h983v608h92v-608h522q87 0 160 -31q66 -28 119 -84q51 -55 74 -118q24 -67 24 -138t-24 -141t-74 -129q-47 -56 -119 -94q-70 -37 -160 -37h-614v690l-983 -2v-690h-92zM1372 86h524q69 0 123 31q51 29 86 76q34 45 52 102q18 55 18 108t-18 105 t-52 92q-37 44 -86 66q-53 24 -123 24h-522z" />
<glyph unicode="&#x40b;" horiz-adv-x="1675" d="M25 1296v84h1028v-84h-467v-473q92 102 221 158q128 55 270 55q89 0 174 -24q88 -25 154 -76q68 -53 108 -131q41 -80 41 -191v-616h-92v616q0 90 -30 154q-29 62 -86 104t-125 62q-67 20 -148 20v-4q-155 0 -285 -71q-128 -70 -202 -179v-702h-92v1298h-469z" />
<glyph unicode="&#x40c;" horiz-adv-x="1312" d="M207 0v1382h92v-807l868 807h121l-680 -637l711 -745h-125l-655 682l-240 -225v-457h-92zM629 1479l184 258h102l-184 -258h-102z" />
<glyph unicode="&#x40e;" horiz-adv-x="1296" d="M41 1378h102l547 -975q63 85 109 185l383 790h104l-375 -764q-79 -165 -168 -286q-92 -124 -190 -201q-101 -78 -221 -119q-116 -39 -264 -39l6 86l-8 -2q70 0 141 15q62 13 145 47q69 28 144 84q70 53 135 129zM387 1737h76l8 -4q3 -36 18 -66q14 -28 43 -57 q28 -28 62 -43q35 -15 74 -15q34 0 73 17q34 15 60 41q29 29 41 57q17 39 22 70h80q-15 -129 -88 -199t-190 -70t-193 70q-77 71 -86 199z" />
<glyph unicode="&#x40f;" horiz-adv-x="1574" d="M205 0v1382h92v-1298h981v1298h92v-1382h-518l-14 -246h-72l-14 246h-547z" />
<glyph unicode="&#x410;" horiz-adv-x="1376" d="M18 0l617 1382h106l617 -1382h-101l-184 416h-770l-184 -416h-101zM340 500h696l-348 782z" />
<glyph unicode="&#x411;" horiz-adv-x="1333" d="M205 4v1382h837v-83h-745v-523h604q95 0 160 -32q70 -34 119 -86t73 -119q25 -70 25 -137q0 -69 -25 -142q-24 -71 -73 -129q-47 -56 -119 -94q-70 -37 -160 -37h-696zM297 88h606q69 0 123 31q51 29 86 76q32 43 51 102t19 109q0 49 -19 104q-18 54 -51 92 q-37 44 -86 66q-52 24 -123 24h-604z" />
<glyph unicode="&#x412;" horiz-adv-x="1431" d="M207 0v1382l655 -2q91 0 156 -26q70 -28 115 -76q48 -51 71 -113q25 -67 25 -137q0 -89 -37 -162q-38 -75 -96 -121q115 -40 180 -139q63 -97 63 -223q0 -77 -24 -147t-74 -123q-49 -52 -119 -82q-73 -31 -161 -31h-754zM289 78h661q70 0 123 24t90 64q38 41 56 96 q18 56 18 117t-18 117t-52 96q-33 39 -86 63q-55 25 -123 25h-663zM295 764h623q52 0 92 24q39 23 67 62q29 40 43 84q15 46 15 92q0 48 -15 98q-15 49 -49 86q-36 39 -86 62q-53 24 -123 24h-567v-532z" />
<glyph unicode="&#x413;" horiz-adv-x="1120" d="M207 0v1382h878v-84h-786v-1298h-92z" />
<glyph unicode="&#x414;" horiz-adv-x="1456" d="M49 86h154q142 337 209 657q68 325 59 639h762v-1298h133v-330h-78l-14 246l-1133 2l-14 -246h-78v330zM305 84h838v1214h-574q-6 -190 -26 -346q-21 -168 -58 -315q-44 -177 -82 -289q-51 -151 -98 -264z" />
<glyph unicode="&#x415;" horiz-adv-x="1247" d="M207 0v1382h921v-84h-829v-536h788v-84h-788v-594h836v-84h-928z" />
<glyph unicode="&#x416;" horiz-adv-x="2117" d="M-8 0l710 745l-679 637h120l869 -807v807h92v-807l868 807h121l-680 -637l711 -745h-125l-656 682l-239 -225v-457h-92v457l-240 225l-655 -682h-125z" />
<glyph unicode="&#x417;" horiz-adv-x="1300" d="M49 168l49 65q51 -40 133 -79q73 -34 152 -56q67 -18 154 -32q83 -13 141 -13q108 0 184 27q78 27 129 70q52 43 76 96q25 55 25 104q0 140 -156 228q-155 88 -444 88v84q187 0 301 30q109 29 174 78q63 47 80 98q18 53 18 97q0 65 -31 116q-30 49 -86 84q-57 36 -131 50 q-82 16 -166 16q-148 0 -264 -39q-122 -41 -244 -117l-49 58q102 85 242 133q143 49 319 49q99 0 203 -23q96 -21 164 -65q66 -43 108 -109q39 -62 39 -151q0 -49 -16 -105q-14 -50 -53 -98q-38 -46 -99 -84q-59 -36 -151 -61q163 -46 256 -136q92 -89 92 -221 q0 -71 -31 -141t-94 -121q-67 -54 -160 -84q-98 -31 -227 -31l-10 -8q-72 0 -154 12q-78 11 -166 37q-77 22 -161 62q-86 41 -146 92z" />
<glyph unicode="&#x418;" d="M207 0v1382h92v-1247l983 1247h92v-1382h-92v1245l-983 -1245h-92z" />
<glyph unicode="&#x419;" d="M215 -4v1382h92v-1247l983 1247h92v-1382h-92v1245l-983 -1245h-92zM532 1737h76l8 -4q3 -34 19 -66q14 -28 43 -57t61 -43q35 -15 74 -15q35 0 74 17q32 14 59 41q29 29 41 57q19 43 23 70h80q-15 -128 -89 -199q-73 -70 -190 -70t-193 70q-77 71 -86 199z" />
<glyph unicode="&#x41a;" horiz-adv-x="1312" d="M207 0v1382h92v-807l868 807h121l-680 -637l711 -745h-125l-655 682l-240 -225v-457h-92z" />
<glyph unicode="&#x41b;" horiz-adv-x="1468" d="M33 -27v84q39 0 88 17q44 15 78 49t55 80q22 49 22 110v1069h988v-1382h-93v1296h-802v-977h2q0 -84 -29 -153q-27 -65 -74 -109q-44 -41 -108 -63q-61 -21 -127 -21z" />
<glyph unicode="&#x41c;" horiz-adv-x="1880" d="M207 0v1382h92l641 -1185l641 1185h92v-1382h-92v1210l-590 -1097h-104l-588 1097v-1210h-92z" />
<glyph unicode="&#x41d;" d="M207 0v1382h92v-626h983v626h92v-1382h-92v672h-983v-672h-92z" />
<glyph unicode="&#x41e;" horiz-adv-x="1660" d="M88 688q0 146 59 279q57 128 158 229q98 98 234 154q134 55 288 55q155 0 289 -55q136 -56 234 -154q100 -100 157 -229q60 -135 60 -279q0 -150 -58 -278q-59 -130 -157 -228q-96 -96 -234 -153q-136 -56 -289 -56l-4 -2q-152 0 -288 56q-138 57 -234 153 q-100 100 -158 228q-57 126 -57 280zM184 684q0 -131 52 -244t139 -200t203 -136t247 -49h-6q134 0 250 49t203 136t139 200q51 111 51 244q0 132 -51 246q-54 120 -137 203t-203 137q-114 51 -248 51t-248 -51q-118 -53 -202 -137q-83 -83 -137 -203q-52 -116 -52 -246z " />
<glyph unicode="&#x41f;" d="M207 0v1382h1167v-1382h-92v1298h-983v-1298h-92z" />
<glyph unicode="&#x420;" horiz-adv-x="1357" d="M207 -8v1382h616q111 0 195 -37q85 -37 143 -98q61 -64 90 -141q31 -82 31 -162t-31 -168t-88 -154q-58 -67 -143 -110t-197 -43h-524v-469h-92zM299 545h524q93 0 160 37q66 37 113 96q45 57 67 127q23 74 23 133q0 64 -21 129t-67 117q-49 56 -113 84q-67 30 -160 30 h-526v-753z" />
<glyph unicode="&#x421;" horiz-adv-x="1421" d="M82 688q0 152 55 283q52 125 152 229q93 97 225 154q128 55 279 55q80 0 151 -14q75 -15 152 -43q74 -27 139 -68q69 -43 115 -92l-62 -55q-40 46 -98 80q-59 35 -127 59q-74 26 -137 37q-70 12 -131 12q-130 0 -240 -49q-114 -51 -195 -135q-82 -85 -129 -203t-47 -248 q0 -133 49 -246q48 -111 134 -200q83 -86 196 -135q115 -50 246 -50q60 0 133 13q64 11 133 37q68 25 121 61t98 84l60 -64l-8 -4q-97 -103 -246 -159q-148 -56 -301 -56q-151 0 -281 56t-227 153q-98 98 -154 228q-55 128 -55 280z" />
<glyph unicode="&#x422;" horiz-adv-x="1249" d="M29 1298v84h1192v-84h-549v-1298h-92v1298h-551z" />
<glyph unicode="&#x423;" horiz-adv-x="1296" d="M33 1382h102l547 -974q65 87 109 184l383 790h104l-375 -764q-79 -165 -168 -286q-92 -124 -190 -201q-101 -78 -221 -119q-116 -39 -265 -39l7 86l-9 -2q71 0 142 15q62 13 145 47q67 27 143 84q73 55 136 129z" />
<glyph unicode="&#x424;" horiz-adv-x="1712" d="M49 688q0 97 43 184q45 92 135 158q90 67 234 111q139 43 342 49v188h92v-188q202 -3 348 -47q148 -45 238 -111t135 -158q43 -87 43 -186t-43 -186q-45 -92 -135 -158t-238 -111q-139 -42 -348 -45v-188h-92l-2 186q-197 3 -340 47q-144 44 -234 111q-90 66 -135 158 q-43 87 -43 186zM143 684q0 -79 37 -152q36 -71 115 -131q72 -55 203 -94q128 -38 303 -41v838q-175 -3 -303 -41q-131 -39 -203 -94q-76 -58 -113 -131t-37 -152zM895 270q179 3 307 41q131 39 207 95q80 59 117 131q37 73 37 151v-2q0 79 -37 152q-38 75 -117 133 q-78 58 -207 96q-128 38 -307 41v-838z" />
<glyph unicode="&#x425;" horiz-adv-x="1292" d="M2 0l592 713l-547 669h119l489 -608l494 608h113l-551 -680l569 -702h-115l-514 641l-532 -641h-117z" />
<glyph unicode="&#x426;" horiz-adv-x="1593" d="M203 0v1382h92v-1298h985v1298h92v-1298h133v-330h-71l-15 246h-1216z" />
<glyph unicode="&#x427;" horiz-adv-x="1359" d="M86 1016v366h92v-372q0 -189 119 -283q122 -96 356 -96q77 0 195 16q113 15 213 55v680h92v-1382h-92l-4 621q-98 -40 -205 -58q-108 -18 -203 -18q-128 0 -233 30q-99 28 -178 91q-72 57 -113 147q-39 85 -39 203z" />
<glyph unicode="&#x428;" horiz-adv-x="2082" d="M207 0v1382h92v-1298h696v1298h92v-1298h697v1298h92v-1382h-1669z" />
<glyph unicode="&#x429;" horiz-adv-x="2093" d="M203 0v1382h92v-1298h696v1298h92v-1298h697v1298h92v-1298h133v-330h-72l-14 246h-1716z" />
<glyph unicode="&#x42a;" horiz-adv-x="1626" d="M29 1303v83h563v-606h584q94 0 159 -32q70 -34 119 -86q51 -54 74 -119q24 -68 24 -137q0 -72 -24 -142t-74 -129q-47 -56 -119 -94q-70 -37 -159 -37h-676v1299h-471zM592 88h586q68 0 122 31q51 29 86 76q34 45 52 102q18 56 18 109q0 52 -18 104t-52 92q-37 44 -86 66 q-52 24 -122 24h-584z" />
<glyph unicode="&#x42b;" horiz-adv-x="1855" d="M205 4v1382h92v-606h604q95 0 160 -32q70 -34 119 -86t73 -119q25 -70 25 -137q0 -69 -25 -142q-24 -71 -73 -129q-47 -56 -119 -94q-70 -37 -160 -37h-696zM297 88h606q69 0 123 31q51 29 86 76q32 43 51 102t19 109q0 49 -19 104q-18 54 -51 92q-37 44 -86 66 q-52 24 -123 24h-604zM1556 0v1382h93v-1382h-93z" />
<glyph unicode="&#x42c;" horiz-adv-x="1331" d="M205 4v1382h92v-606h584q94 0 159 -32q70 -34 119 -86q51 -54 74 -119q24 -68 24 -137q0 -72 -24 -142t-74 -129q-47 -56 -119 -94q-70 -37 -159 -37h-676zM297 88h586q69 0 123 31q51 29 86 76q32 43 51 102q18 56 18 109q0 52 -18 104q-18 54 -51 92q-37 44 -86 66 q-52 24 -123 24h-584z" />
<glyph unicode="&#x42d;" horiz-adv-x="1435" d="M74 186l59 60q39 -42 105 -82q65 -39 131 -62q71 -24 141 -36q76 -13 131 -13q120 0 229 47q105 45 187 127q78 78 129 189q49 107 55 233h-725v84h723q-9 123 -59 232t-129 188q-77 77 -189 125q-105 45 -229 45q-61 0 -131 -12q-63 -11 -137 -37q-64 -23 -127 -60 q-62 -37 -99 -79l-63 55q47 50 114 92q64 40 140 68q78 29 151 43q71 14 152 14q150 0 278 -55q134 -58 226 -154q98 -102 151 -229q55 -131 55 -283q0 -148 -55 -276q-56 -131 -149 -228q-92 -96 -221 -153q-127 -56 -271 -56l-8 -4q-71 0 -150 15q-71 13 -155 43 q-79 28 -144 67q-67 40 -116 92z" />
<glyph unicode="&#x42e;" horiz-adv-x="2162" d="M199 -8v1382h92v-629h303q12 138 74 259q62 122 159 208q101 90 228 142q125 51 274 51q155 0 289 -55t233 -154q101 -101 158 -229q59 -133 59 -279q0 -152 -57 -278q-58 -128 -158 -228q-97 -97 -233 -153t-289 -56l-2 -8q-151 0 -282 55q-132 56 -234 150 q-101 93 -160 221q-58 125 -61 271h-301v-670h-92zM688 680q0 -135 51 -246q52 -113 140 -201q86 -86 202 -135t248 -49h-6q134 0 250 49q118 50 203 135q86 86 139 201q51 111 51 246q0 132 -51 246q-53 118 -137 202q-85 85 -203 138q-114 51 -248 51t-248 -51 q-116 -52 -202 -138t-138 -202q-51 -114 -51 -246z" />
<glyph unicode="&#x42f;" horiz-adv-x="1415" d="M96 963q0 73 25 153q24 76 74 135q53 62 118 97q68 36 160 36h735v-1382h-92v541h-608l-262 -541h-103l265 547q-75 15 -132 55q-56 39 -98 96q-40 54 -61 123q-21 67 -21 140zM193 963q0 -61 18 -123t53 -109t86 -76q52 -30 123 -30h643v675h-645q-69 0 -123 -28 q-51 -26 -86 -76q-32 -46 -51 -111q-18 -61 -18 -122z" />
<glyph unicode="&#x430;" horiz-adv-x="1058" d="M66 283q0 77 30 133q28 52 84 92q54 38 123 59q70 21 154 27l360 22v111q0 112 -78 172q-75 57 -219 57q-76 0 -168 -12q-97 -13 -178 -51l-31 76q87 38 185 53q106 16 192 16q185 0 285 -80q98 -79 98 -225v-733h-67l-17 162l4 -2q-106 -84 -209 -137q-101 -52 -217 -52 q-79 0 -143 25q-61 24 -104 67t-64 99q-20 53 -20 121zM160 287q0 -47 14 -88q13 -36 47 -76q28 -32 80 -51t117 -19h-4q57 0 110 15q55 16 101 38q44 21 96 60q54 40 98 74v311l-336 -27q-71 -6 -129 -18q-54 -11 -102 -41q-43 -27 -68 -72q-24 -43 -24 -106z" />
<glyph unicode="&#x431;" horiz-adv-x="1273" d="M121 520v15q0 248 53 419q52 167 145 271q90 100 216 145q122 43 262 43q77 0 151 -12q66 -11 152 -31l-37 -80q-84 18 -135 25q-72 10 -133 10q-97 0 -199 -29q-93 -27 -172 -96q-78 -69 -129 -180q-53 -116 -74 -283q73 73 178 115q107 43 238 43q91 0 197 -29 q96 -26 176 -84q79 -58 127 -137q49 -82 49 -192l10 4q0 -104 -43 -191q-43 -88 -117 -153q-72 -63 -172 -101q-98 -37 -209 -37q-110 0 -206 35q-95 34 -168 105q-74 71 -117 172t-43 233zM221 504q0 -110 37 -191q39 -86 98 -139q64 -57 142 -84q85 -29 164 -29l-5 -6 q88 0 170 31q78 29 142 84q61 52 96 127t35 154q0 88 -39 153q-39 66 -105 113q-66 48 -143 71q-83 25 -166 25q-86 0 -166 -25q-78 -24 -135 -67q-58 -43 -92 -98q-33 -53 -33 -119z" />
<glyph unicode="&#x432;" horiz-adv-x="1177" d="M164 0v1014l581 4q65 0 115 -21q52 -22 84 -57q36 -39 53 -86q19 -52 19 -100q0 -62 -25 -117q-23 -50 -65 -86q80 -29 125 -102q43 -70 43 -158q0 -56 -19 -111q-18 -52 -55 -92q-35 -38 -90 -63t-121 -25h-645zM254 92h547q96 0 147 60q49 58 49 141q0 82 -47 141 q-46 58 -145 58h-549zM256 575h514q71 0 109 56q36 53 36 125q0 71 -43 123q-44 53 -137 53h-479v-357z" />
<glyph unicode="&#x433;" horiz-adv-x="940" d="M164 0v1014h737v-84h-643v-930h-94z" />
<glyph unicode="&#x434;" horiz-adv-x="1161" d="M49 84h133q174 445 174 930h605v-930h139v-332h-72l-14 248h-879l-14 -248h-72v332zM279 84h589v846h-419q-3 -101 -19 -225q-12 -93 -37 -224q-20 -105 -51 -211q-32 -110 -63 -186z" />
<glyph unicode="&#x435;" horiz-adv-x="1148" d="M82 498q0 115 43 213q44 100 113 172q71 74 161 114q93 41 193 41q97 0 184 -37q92 -39 156 -106q68 -71 108 -172q41 -103 41 -223h-903q0 -104 37 -185q38 -84 98 -141q63 -60 146 -90q85 -31 178 -31q105 0 186 37q83 38 142 103l61 -62l-6 2q-76 -76 -174 -119 t-215 -43q-109 0 -207 37q-96 37 -174 105q-77 68 -123 166q-45 96 -45 219zM184 565l801 17q-9 84 -43 153q-34 70 -86 119q-56 53 -119 78q-73 29 -143 29l2 -3q-80 0 -150 -30q-68 -29 -124 -82t-93 -125q-36 -70 -45 -156z" />
<glyph unicode="&#x436;" horiz-adv-x="1507" d="M18 0l469 557l-442 457h117l547 -563v563h94v-563l547 563h116l-442 -457l469 -557h-117l-420 487l-153 -157v-330h-94v330l-154 157l-420 -487h-117z" />
<glyph unicode="&#x437;" horiz-adv-x="980" d="M49 123l47 65q104 -68 193 -96q98 -31 198 -31q146 0 215 60q68 59 68 158q0 113 -113 159q-115 47 -319 47v90q139 0 229 19q82 17 131 49q47 30 62 68q14 35 14 71q0 98 -76 138q-72 38 -196 38q-116 0 -201 -30q-81 -28 -172 -97l-45 70q90 69 192 105q101 36 232 36 q79 0 139 -14q66 -15 115 -45q50 -30 80 -80t30 -119q3 -87 -45 -153q-49 -67 -165 -101q98 -33 155 -96q55 -61 55 -158q0 -59 -20 -112t-68 -98t-116 -68q-73 -25 -168 -25l-13 -2q-111 0 -221 37q-104 35 -217 115z" />
<glyph unicode="&#x438;" horiz-adv-x="1257" d="M164 0v1014h92v-885l743 885h95v-1014h-95v883l-743 -883h-92z" />
<glyph unicode="&#x439;" horiz-adv-x="1257" d="M166 0v1014h92v-885l743 885h95v-1014h-95v883l-743 -883h-92zM348 1382h74h2q3 -32 18 -67t39 -62q25 -28 62 -43q40 -16 84 -16q96 0 145 55q50 56 59 133h74q-15 -128 -88 -198t-190 -70t-193 70q-77 71 -86 198z" />
<glyph unicode="&#x43a;" horiz-adv-x="1064" d="M164 0v1014h94v-565l641 565h125l-473 -426l500 -588h-117l-455 524l-221 -198v-326h-94z" />
<glyph unicode="&#x43b;" horiz-adv-x="1236" d="M47 -27v84q70 0 123 47q52 46 49 123v787h856v-1014h-92v930h-670v-703h6q0 -57 -24 -104q-23 -44 -62 -80q-35 -33 -86 -51q-52 -19 -100 -19z" />
<glyph unicode="&#x43c;" horiz-adv-x="1429" d="M164 0v1014h94l459 -832l457 832h92v-1014h-92v852l-420 -766h-80l-416 766v-852h-94z" />
<glyph unicode="&#x43d;" horiz-adv-x="1259" d="M164 0v1014h94v-451h746v451h92v-1014h-92v479h-746v-479h-94z" />
<glyph unicode="&#x43e;" horiz-adv-x="1196" d="M82 496q0 121 43 219q45 102 113 170q70 69 161 110q88 39 193 39q106 0 194 -39q97 -43 164 -110q68 -68 113 -170q43 -98 43 -217t-43 -217q-44 -100 -113 -166q-70 -67 -162 -105q-90 -37 -192 -37l-4 -4q-103 0 -193 37t-161 105q-70 67 -113 165t-43 220zM174 494 q0 -100 33 -179q35 -83 90 -141q53 -56 133 -92q73 -33 162 -33l-2 -4q86 0 164 35t135 92t92 141q33 79 33 181q0 99 -33 178q-36 86 -92 145q-57 60 -135 98q-75 37 -166 37q-87 0 -162 -34q-73 -33 -131 -97q-51 -57 -88 -145q-33 -79 -33 -182z" />
<glyph unicode="&#x43f;" horiz-adv-x="1259" d="M164 0v1014h932v-1014h-92v930h-748v-930h-92z" />
<glyph unicode="&#x440;" horiz-adv-x="1271" d="M145 -479v1495h68l16 -209q67 111 181 172q113 61 247 61q107 0 195 -36q97 -40 164 -107q68 -68 112 -168q43 -98 43 -217q0 -120 -38 -213q-42 -102 -107 -170q-67 -70 -160 -111t-202 -41q-141 0 -256 68t-179 184l11 -104v-602zM233 516q0 -99 33 -178 q36 -86 92 -145q58 -61 138 -99q78 -37 172 -37q97 0 172 37q78 38 133 99q56 62 86 145q31 85 31 176q0 93 -31 178q-30 83 -86 142q-53 56 -133 92q-78 35 -166 35l-8 4q-92 0 -168 -33q-83 -36 -138 -94q-57 -60 -92 -144t-35 -178z" />
<glyph unicode="&#x441;" horiz-adv-x="1060" d="M78 498q0 121 43 219q44 100 117 170q72 69 168 110q91 39 200 39q111 0 209 -39q103 -41 174 -112l-65 -60q-59 60 -136 97q-73 36 -178 36q-94 0 -172 -34q-76 -33 -137 -97q-56 -59 -92 -145q-33 -79 -33 -182q0 -102 33 -181q35 -84 92 -141q56 -56 139 -92 q76 -33 172 -33q101 0 179 37q84 40 139 100l63 -59l-10 -2q-70 -76 -170 -117t-209 -41q-105 0 -198 37q-94 38 -168 105q-74 68 -117 166t-43 219z" />
<glyph unicode="&#x442;" horiz-adv-x="972" d="M35 926v88h909l-10 -88h-397v-926h-93v926h-409z" />
<glyph unicode="&#x443;" horiz-adv-x="1036" d="M41 1014h96l375 -908l391 908h96l-479 -1108q-81 -190 -194 -291q-110 -98 -242 -98v82l-4 2q89 0 184 80t160 225l45 100z" />
<glyph unicode="&#x444;" horiz-adv-x="2048" d="M76 477q0 113 41 213q40 98 108 172q69 75 156 115q90 41 184 41q128 0 238 -70q112 -71 176 -190l-10 112v566h86v-656q66 108 176 174q107 64 231 64q95 0 185 -41t157 -111q70 -73 109 -168q41 -100 41 -211q0 -117 -41 -217q-39 -95 -109 -168q-67 -70 -155 -110 q-85 -39 -185 -39q-129 0 -239 67q-111 68 -176 185l10 -111v-596l-90 -6v690q-68 -109 -174 -172q-105 -63 -234 -63q-94 0 -184 41t-156 110q-65 68 -106 168q-39 95 -39 211zM174 500q0 -92 31 -174q29 -78 84 -142q49 -57 127 -94q75 -35 159 -35l-6 -6q79 0 152 31 q71 30 127 86t90 131q35 78 41 172q-2 6 -2 18v19v31q-6 98 -39 170q-37 82 -88 133q-56 56 -127 86t-154 30q-90 0 -161 -36q-73 -37 -125 -101q-53 -66 -80 -147q-29 -89 -29 -172zM1055 528q2 -6 2 -18v-18v-31q6 -88 41 -166q34 -75 90 -131t127 -86q73 -31 151 -31 l-2 -14q91 0 164 37q72 37 125 102q53 66 80 147q29 89 29 173q0 87 -31 172t-82 145q-52 61 -125 98t-160 37q-78 0 -151 -31q-71 -30 -127 -86q-55 -55 -90 -133t-41 -166z" />
<glyph unicode="&#x445;" horiz-adv-x="1007" d="M20 0l431 528l-394 486h113l334 -424l336 424h112l-393 -490l428 -524h-113l-372 465l-369 -465h-113z" />
<glyph unicode="&#x446;" horiz-adv-x="1230" d="M162 0v1014h92v-930h684v930h92v-930h139v-332h-71l-15 248h-921z" />
<glyph unicode="&#x447;" horiz-adv-x="1163" d="M80 760v254h92v-254q0 -85 29 -154q27 -64 73 -104q47 -41 105 -62q56 -20 121 -20q66 0 127 22q52 19 110 60q49 35 94 86q39 44 76 104v322h92v-1014h-92l-6 438l10 135q-77 -109 -180 -172t-235 -63q-76 0 -150 24q-76 25 -133 76q-59 53 -96 131t-37 191z" />
<glyph unicode="&#x448;" horiz-adv-x="1648" d="M164 0v1014h92v-930h522v930h92v-930h523v930h92v-1014h-1321z" />
<glyph unicode="&#x449;" horiz-adv-x="1681" d="M160 0v1014h92v-930h522v930h92v-930h523v930h92v-930h139v-332h-72l-14 248h-1374z" />
<glyph unicode="&#x44a;" horiz-adv-x="1230" d="M33 928v84h481v-410h358q68 0 121 -24q52 -24 86 -64q38 -45 54 -94q18 -56 18 -117q0 -60 -18 -115q-17 -53 -56 -98q-38 -44 -88 -67q-55 -25 -121 -25h-444v930h-391zM516 84h348q97 0 148 66q49 64 49 157q0 91 -47 156q-45 63 -146 63h-350z" />
<glyph unicode="&#x44b;" horiz-adv-x="1441" d="M162 -2v1014l92 2v-410h481q67 0 119 -24q50 -23 88 -64t55 -94q19 -59 19 -117t-19 -117q-18 -55 -55 -98t-90 -67q-55 -25 -121 -25h-569zM256 84h471q96 0 147 66q50 65 50 157q0 91 -47 156q-45 63 -146 63h-473zM1184 0v1014h94v-1014h-94z" />
<glyph unicode="&#x44c;" horiz-adv-x="1093" d="M162 -2v1014l92 2v-410h481q67 0 119 -24q50 -23 88 -64t55 -94q19 -59 19 -117t-19 -117q-18 -55 -55 -98t-90 -67q-55 -25 -121 -25h-569zM256 84h471q96 0 147 66q50 65 50 157q0 91 -47 156q-45 63 -146 63h-473z" />
<glyph unicode="&#x44d;" horiz-adv-x="1064" d="M61 127l64 59q55 -60 139 -100q78 -37 176 -37q84 0 160 31q69 28 131 84q54 48 94 127q37 72 43 164h-571v84h571q-6 91 -43 166q-39 80 -92 133q-56 56 -129 86q-74 30 -160 30q-96 0 -172 -36q-79 -37 -137 -101l-69 64q74 74 174 114q103 41 209 41q107 0 200 -37 q95 -37 168 -108q73 -70 117 -170q43 -98 43 -221q0 -121 -43 -219t-117 -166q-73 -67 -168 -105q-93 -37 -198 -37l-11 -4q-109 0 -209 41t-170 117z" />
<glyph unicode="&#x44e;" horiz-adv-x="1576" d="M152 -8v1014h92v-451h221q9 110 55 197q46 88 117 153t156 99q84 34 180 34q106 0 194 -39q97 -43 164 -110q68 -68 113 -170q43 -98 43 -219t-43 -219q-44 -100 -113 -166q-71 -67 -162 -105q-90 -37 -192 -37l-8 -10q-100 0 -187 37q-88 38 -159 102q-68 62 -113 160 q-44 96 -47 209h-219v-479h-92zM551 489q0 -99 33 -178q34 -83 90 -141q53 -56 133 -92q73 -33 162 -33l-8 -2q85 0 163 35q80 36 133 92q57 60 91 141q32 77 32 178q0 102 -32 179q-37 88 -88 145q-52 58 -134 98q-75 37 -161 37q-87 0 -162 -37q-76 -37 -131 -98 q-51 -57 -88 -145q-33 -79 -33 -179z" />
<glyph unicode="&#x44f;" horiz-adv-x="1101" d="M88 700q0 62 18 117q17 53 56 98q40 46 88 68q55 25 117 25h571v-1014h-92v387l-440 2l-191 -387h-102l192 393q-49 11 -92 43q-41 30 -68 74q-30 48 -43 92q-14 46 -14 102zM180 700q0 -40 13 -84q12 -41 36 -71q24 -29 62 -51q38 -21 86 -21h469v449h-469 q-46 0 -86 -19q-37 -18 -62 -49q-23 -29 -36 -72q-13 -44 -13 -82z" />
<glyph unicode="&#x451;" horiz-adv-x="1148" d="M82 494q0 115 43 213q44 100 113 172q71 74 161 114q93 41 193 41q97 0 184 -37q92 -39 156 -106q68 -71 108 -172q41 -103 41 -223h-903q0 -104 37 -185q38 -84 98 -141q63 -60 146 -90q85 -31 178 -31q105 0 186 37q84 38 142 102l61 -61l-6 2q-76 -76 -174 -119 t-215 -43q-109 0 -207 37q-96 37 -174 105q-78 69 -123 165t-45 220zM184 561l801 17q-9 84 -43 153q-34 70 -86 119q-56 53 -119 78q-70 28 -143 28l2 -2q-80 0 -150 -30q-68 -29 -124 -82t-93 -125q-36 -70 -45 -156zM324 1305q0 35 26 55q28 22 51 22q24 0 50 -20t26 -55 q0 -43 -26 -60q-27 -18 -50 -18v-2q-24 0 -51 18q-26 17 -26 60zM682 1303q0 34 27 55q28 22 51 22t49 -20q27 -21 27 -55q0 -42 -27 -60t-49 -18v-2q-24 0 -51 18t-27 60z" />
<glyph unicode="&#x452;" horiz-adv-x="1234" d="M6 1186v84h156v188h86v-188h502v-84h-502v-254l-10 -137q81 109 190 176q110 67 238 67q72 0 145 -24q74 -24 135 -76t101 -131q38 -75 38 -191v-782l5 -12q0 -70 -27 -129q-27 -58 -74 -99q-46 -40 -104 -61q-61 -22 -123 -22v75q46 0 92 19t74 51q33 39 49 76 q18 44 18 96v782q0 87 -28 154q-26 62 -74 104t-107 62t-124 20q-71 0 -130 -20q-54 -18 -112 -60q-55 -39 -96 -86q-39 -44 -76 -104v-684h-86v1190h-156z" />
<glyph unicode="&#x453;" horiz-adv-x="940" d="M164 0v1014h737v-84h-643v-930h-94zM444 1128l185 258h102l-184 -258h-103z" />
<glyph unicode="&#x454;" horiz-adv-x="1062" d="M78 498q0 121 43 219q44 100 117 170q72 69 168 110q91 39 200 39t207 -39q106 -42 176 -112l-69 -64q-60 66 -138 103t-172 37q-83 0 -159 -31q-73 -30 -129 -86q-55 -55 -93 -133q-37 -75 -43 -166h572v-84h-572q6 -90 43 -162q37 -73 93 -129t129 -86q76 -31 159 -31 q97 0 178 37q87 40 142 100l63 -59l-10 -2q-70 -76 -170 -117t-209 -41q-105 0 -198 37q-94 38 -168 105q-74 68 -117 166t-43 219z" />
<glyph unicode="&#x455;" horiz-adv-x="980" d="M55 115l41 63l-8 -8q55 -37 119 -61q71 -27 125 -37q73 -14 117 -19q56 -6 94 -6q135 0 202 55q69 57 66 136q-3 91 -80 141q-76 49 -233 84q-117 23 -193 59t-117 74t-57 84q-14 41 -14 84q0 58 24 108q22 46 72 86q49 39 115 60q71 22 155 22q100 0 209 -28 q101 -26 180 -80l-38 -64q-71 41 -154 68t-182 27q-129 0 -211 -52q-83 -53 -80 -143q0 -36 16 -68q15 -29 53 -57q41 -30 95 -49q59 -21 147 -39q209 -47 295 -119q90 -75 90 -180q3 -59 -22 -113q-22 -49 -74 -88q-51 -39 -119 -59q-70 -21 -160 -21q-108 0 -239 35 q-129 34 -234 105z" />
<glyph unicode="&#x456;" horiz-adv-x="413" d="M135 1333q0 30 23 53t55 23q30 0 53 -23t23 -53q0 -32 -23 -55t-53 -23q-32 0 -55 23t-23 55zM164 0v1014h86v-1014h-86z" />
<glyph unicode="&#x457;" horiz-adv-x="413" d="M-53 1305q0 35 26 55q28 22 52 22q23 0 49 -20t26 -55q0 -43 -26 -60q-27 -18 -49 -18v-2q-25 0 -52 18q-26 17 -26 60zM164 -4v1014h86v-1014h-86zM305 1303q0 34 27 55q28 22 51 22t49 -20q27 -21 27 -55q0 -42 -27 -60t-49 -18v-2q-24 0 -51 18t-27 60z" />
<glyph unicode="&#x458;" horiz-adv-x="413" d="M-70 -401q50 0 93 18q41 17 73 49q31 31 49 74q19 46 19 94v1180h86v-1180l8 -4q0 -70 -27 -129q-27 -58 -73 -98q-47 -41 -105 -62q-61 -22 -123 -22v80zM129 1333q0 30 23 53t55 23q30 0 53 -23t23 -53q0 -32 -23 -55t-53 -23q-32 0 -55 23t-23 55z" />
<glyph unicode="&#x459;" horiz-adv-x="1626" d="M45 -25v84q70 0 123 47q52 46 49 123v787h694v-410h359q66 0 119 -24q50 -23 88 -64t55 -94q18 -56 18 -117t-18 -117q-18 -55 -55 -98q-36 -42 -91 -67t-120 -25h-445v930h-508v-703l4 2q0 -57 -24 -104q-23 -44 -62 -80q-35 -33 -86 -51q-52 -19 -100 -19zM915 86h349 q96 0 147 66q49 64 49 157q0 91 -47 156q-45 63 -145 63h-350z" />
<glyph unicode="&#x45a;" horiz-adv-x="1665" d="M160 0v1014h94v-451h602v451h92v-410h359q65 0 118 -24q50 -23 88 -64q39 -42 56 -94q18 -56 18 -117t-18 -117q-17 -53 -56 -98q-37 -43 -90 -67q-55 -25 -120 -25h-445v479l-604 2v-479h-94zM950 84h348q97 0 148 66q49 64 49 157q0 91 -47 156q-45 63 -145 63h-351z " />
<glyph unicode="&#x45b;" horiz-adv-x="1243" d="M10 1174v83h152v205h86v-205h512v-83h-512v-238l-10 -137q81 109 190 176q110 67 238 67q70 0 147 -24q79 -25 139 -76q64 -55 103 -131q41 -80 41 -190v-619h-86v619q0 86 -31 153q-30 64 -80 105q-48 40 -111 61q-62 21 -122 21l-4 -5q-66 0 -130 -22q-54 -18 -112 -60 q-55 -39 -96 -86q-39 -44 -76 -104v-684h-86v1174h-152z" />
<glyph unicode="&#x45c;" horiz-adv-x="1062" d="M164 0v1014h94v-563l639 563h125l-471 -424l498 -590h-117l-453 526l-221 -200v-326h-94zM473 1126l184 258h103l-185 -258h-102z" />
<glyph unicode="&#x45e;" horiz-adv-x="1036" d="M43 1014h96l375 -908l391 908h96l-479 -1108q-81 -190 -194 -291q-110 -98 -242 -98v82l-4 2q89 0 184 80t160 225l45 100zM238 1382h73h2q3 -29 19 -67q15 -35 39 -62q26 -29 61 -43q40 -16 84 -16q97 0 146 55q50 56 59 133h74q-15 -128 -88 -198t-191 -70 q-116 0 -192 70q-77 71 -86 198z" />
<glyph unicode="&#x45f;" horiz-adv-x="1193" d="M162 0v1014h92v-930h686v930h92v-1014h-385l-14 -248h-72l-14 248h-385z" />
<glyph unicode="&#x490;" horiz-adv-x="1054" d="M205 0v1382h729l16 328h72v-412h-725v-1298h-92z" />
<glyph unicode="&#x491;" horiz-adv-x="854" d="M162 0v1014h567l14 205h74v-289h-563v-930h-92z" />
<glyph unicode="&#x2000;" horiz-adv-x="868" />
<glyph unicode="&#x2001;" horiz-adv-x="1737" />
<glyph unicode="&#x2002;" horiz-adv-x="868" />
<glyph unicode="&#x2003;" horiz-adv-x="1737" />
<glyph unicode="&#x2004;" horiz-adv-x="579" />
<glyph unicode="&#x2005;" horiz-adv-x="434" />
<glyph unicode="&#x2006;" horiz-adv-x="289" />
<glyph unicode="&#x2007;" horiz-adv-x="289" />
<glyph unicode="&#x2008;" horiz-adv-x="217" />
<glyph unicode="&#x2009;" horiz-adv-x="347" />
<glyph unicode="&#x200a;" horiz-adv-x="96" />
<glyph unicode="&#x2010;" horiz-adv-x="1116" d="M135 455v88h846v-88h-846z" />
<glyph unicode="&#x2011;" horiz-adv-x="1116" d="M135 455v88h846v-88h-846z" />
<glyph unicode="&#x2012;" horiz-adv-x="1116" d="M135 455v88h846v-88h-846z" />
<glyph unicode="&#x2013;" horiz-adv-x="1259" d="M135 455v88h989v-88h-989z" />
<glyph unicode="&#x2014;" horiz-adv-x="1669" d="M135 455v88h1399v-88h-1399z" />
<glyph unicode="&#x2018;" horiz-adv-x="413" d="M109 1096q0 157 135 313l49 -27q-34 -53 -55 -96q-24 -49 -39 -115h2q41 0 67 -26q27 -27 27 -68q0 -36 -27 -63t-67 -27l-4 4q-46 0 -68 31q-20 29 -20 74z" />
<glyph unicode="&#x2019;" horiz-adv-x="409" d="M127 1008q34 53 55 96q27 57 41 115h-2q-39 0 -67 28q-27 27 -27 68q0 36 27 63t67 27q46 0 68 -31t22 -74q0 -157 -135 -313l-49 27v-6z" />
<glyph unicode="&#x201a;" horiz-adv-x="419" d="M133 -203l2 4q48 92 66 179q-29 3 -47 24q-19 22 -19 49q0 30 23 53t55 23q37 0 55 -27q19 -28 19 -63q0 -66 -29 -135q-26 -61 -84 -129z" />
<glyph unicode="&#x201c;" horiz-adv-x="702" d="M119 1094q0 81 35 159q37 81 98 154l49 -27q-34 -51 -43 -69q-24 -49 -31 -64q-16 -44 -24 -76h2q41 0 67 -26q27 -27 27 -68q0 -36 -27 -63t-67 -27h2q-46 0 -68 31q-20 29 -20 76zM403 1094q0 81 35 159q35 79 99 154l49 -27q-34 -51 -43 -69q-24 -49 -31 -64 q-19 -52 -25 -76h2q42 0 68 -26q27 -27 27 -68q0 -36 -27 -63t-68 -27h3q-46 0 -68 31q-21 30 -21 76z" />
<glyph unicode="&#x201d;" horiz-adv-x="696" d="M123 1008q30 45 43 71q18 35 31 66q16 44 24 76h-2q-39 0 -67 28q-27 27 -27 68q0 36 27 63t67 27q46 0 68 -31t22 -76q0 -81 -35 -159q-37 -81 -98 -154l-49 27zM406 1001q28 42 43 72q10 20 30 66q20 54 25 75h-2q-39 0 -68 29q-26 26 -26 68q0 37 26 63q27 27 68 27 q45 0 67 -31q23 -33 23 -76q0 -81 -35 -159q-37 -81 -98 -154l-49 27z" />
<glyph unicode="&#x201e;" horiz-adv-x="688" d="M133 -203l2 4q48 92 66 179q-29 3 -47 24q-19 22 -19 49q0 30 23 53t55 23q37 0 55 -27q19 -28 19 -63q0 -66 -29 -135q-26 -61 -84 -129zM403 -199l3 4q47 89 65 179q-29 3 -47 24t-18 49q0 32 22 54t55 22q38 0 56 -27t18 -63q0 -66 -29 -135q-26 -61 -84 -129z" />
<glyph unicode="&#x2022;" horiz-adv-x="739" d="M178 604q0 40 15 74t40 59q26 26 60 41q35 15 74 15q38 0 73 -15q37 -16 60 -39q27 -27 41 -59t14 -74t-14 -74q-15 -35 -39 -59q-23 -23 -60 -39q-32 -14 -73 -14q-76 0 -131 55q-56 56 -56 133z" />
<glyph unicode="&#x2026;" horiz-adv-x="1095" d="M133 51q0 30 23 53t55 23q30 0 53 -23t23 -53q0 -32 -23 -55t-53 -23q-32 0 -55 23t-23 55zM471 51q0 30 23 53t55 23q30 0 53 -23t23 -53q0 -32 -23 -55t-53 -23q-32 0 -55 23t-23 55zM809 51q0 31 22 53q23 23 56 23q30 0 53 -23t23 -53q0 -32 -23 -55t-53 -23 q-33 0 -56 23q-22 22 -22 55z" />
<glyph unicode="&#x202f;" horiz-adv-x="347" />
<glyph unicode="&#x2039;" horiz-adv-x="620" d="M102 477v82l398 406v-109l-322 -334l320 -329v-121z" />
<glyph unicode="&#x203a;" horiz-adv-x="622" d="M123 856v109l397 -406v-82l-395 -405v121l319 329z" />
<glyph unicode="&#x205f;" horiz-adv-x="434" />
<glyph unicode="&#x20ac;" horiz-adv-x="1476" d="M80 428l41 88h188q-18 82 -18 172q0 88 14 148h-225l41 88h205q36 109 92 194q60 91 135 154q70 59 170 100q90 37 195 37q132 0 243 -57q116 -59 203 -160l-68 -66q-75 91 -172 142q-96 51 -209 51q-80 0 -159 -31q-80 -31 -142 -82q-60 -49 -112 -123q-50 -71 -80 -157 h479l-41 -88h-463q-8 -45 -10 -72q-4 -50 -4 -76q0 -44 6 -88q3 -20 17 -84h497l-41 -88h-428q37 -86 82 -147q51 -69 113 -117q64 -49 137 -76q74 -27 152 -27q106 0 206 50t176 141l64 -68q-83 -93 -201 -155q-110 -58 -241 -58l-7 -4q-98 0 -188 35q-95 37 -166 94 q-73 59 -135 146q-57 80 -92 184h-254z" />
<glyph unicode="&#x2122;" horiz-adv-x="1677" d="M76 1311v71h528l-10 -71h-217v-701h-72v701h-229zM762 610v772h72l307 -634l297 634h71v-772h-71v619l-258 -555h-80l-266 559v-623h-72z" />
<glyph unicode="&#x25fc;" horiz-adv-x="1013" d="M0 0v1014h1014v-1014h-1014z" />
</font>
</defs>
</svg>
