<?xml version="1.0" encoding="utf-8"?>
<!-- Generator: Adobe Illustrator 17.0.0, SVG Export Plug-In . SVG Version: 6.00 Build 0)  -->
<!DOCTYPE svg PUBLIC "-//W3C//DTD SVG 1.1//EN" "http://www.w3.org/Graphics/SVG/1.1/DTD/svg11.dtd">
<svg xmlns="http://www.w3.org/2000/svg" xmlns:xlink="http://www.w3.org/1999/xlink" x="0px" y="0px"
	 width="21px" height="21px" viewBox="0 0 113.39 113.39" fill="#999999">
<g>
	<g>
		<defs>
			<rect id="SVGID_1_" x="10.898" y="23.833" width="92.436" height="65.138"/>
		</defs>
		<clipPath id="SVGID_2_">
			<use xlink:href="#SVGID_1_"  overflow="visible"/>
		</clipPath>
		<g clip-path="url(#SVGID_2_)">
			<defs>
				<rect id="SVGID_3_" x="10.906" y="23.862" width="92.427" height="64.994"/>
			</defs>
			<clipPath id="SVGID_4_">
				<use xlink:href="#SVGID_3_"  overflow="visible"/>
			</clipPath>
			<g clip-path="url(#SVGID_4_)">
				<defs>
					<rect id="SVGID_5_" x="10.898" y="23.833" width="92.436" height="65.138"/>
				</defs>
				<clipPath id="SVGID_6_">
					<use xlink:href="#SVGID_5_"  overflow="visible"/>
				</clipPath>
				<path clip-path="url(#SVGID_6_)" d="M89.953,48.889l-6.419-9.122c-0.247-0.351-0.649-0.56-1.079-0.56H72.442
					c-0.728,0-1.319,0.59-1.319,1.319v9.122c0,0.728,0.59,1.319,1.319,1.319h16.432C89.942,50.966,90.568,49.763,89.953,48.889z
					 M103.333,73.732v4.002c0,0.728-0.591,1.319-1.319,1.319H91.336c-0.764-5.238-5.272-9.277-10.718-9.277
					c-5.447,0-9.956,4.04-10.72,9.277H48.395c-0.385-2.64-1.718-4.973-3.65-6.64h20.39V34.685c0-1.457,1.181-2.638,2.638-2.638
					h12.452c3.506,0,6.784,1.742,8.745,4.648l8.028,11.89c1.177,1.744,1.807,3.8,1.807,5.905v17.924h3.21
					C102.743,72.413,103.333,73.004,103.333,73.732z M84.721,80.62c0-2.266-1.838-4.103-4.104-4.103
					c-2.266,0-4.104,1.837-4.104,4.103s1.837,4.104,4.104,4.104C82.883,84.724,84.721,82.886,84.721,80.62z M88.824,80.62
					c0,4.533-3.674,8.207-8.207,8.207c-4.533,0-8.207-3.674-8.207-8.207s3.674-8.207,8.207-8.207
					C85.15,72.413,88.824,76.087,88.824,80.62z M30.607,72.413H12.217c-0.728,0-1.319,0.591-1.319,1.319v4.002
					c0,0.728,0.591,1.319,1.319,1.319h14.741C27.342,76.412,28.676,74.079,30.607,72.413z M41.78,80.62
					c0-2.266-1.837-4.103-4.104-4.103c-2.266,0-4.104,1.837-4.104,4.103s1.838,4.104,4.104,4.104
					C39.942,84.724,41.78,82.886,41.78,80.62z M45.883,80.62c0,4.533-3.674,8.207-8.207,8.207s-8.207-3.674-8.207-8.207
					s3.674-8.207,8.207-8.207S45.883,76.087,45.883,80.62z M14.141,67.147V27.819c0-2.186,1.772-3.957,3.957-3.957h39.308
					c2.185,0,3.957,1.772,3.957,3.957v39.328c0,0.728-0.59,1.319-1.319,1.319H15.46C14.731,68.466,14.141,67.876,14.141,67.147z"/>
			</g>
		</g>
	</g>
</g>
</svg>
