<?xml version="1.0" encoding="utf-8"?>
<!-- Generator: Adobe Illustrator 17.0.0, SVG Export Plug-In . SVG Version: 6.00 Build 0)  -->
<!DOCTYPE svg PUBLIC "-//W3C//DTD SVG 1.1//EN" "http://www.w3.org/Graphics/SVG/1.1/DTD/svg11.dtd">
<svg version="1.1" id="Layer_1" xmlns="http://www.w3.org/2000/svg" xmlns:xlink="http://www.w3.org/1999/xlink" x="0px" y="0px"
	 width="113.39px" height="113.39px" viewBox="0 0 113.39 113.39" enable-background="new 0 0 113.39 113.39" xml:space="preserve">
<path d="M76.315,64.057c1.86-1.861,3.255-3.961,4.185-6.302c0.93-2.341,1.395-4.726,1.395-7.157c0-2.431-0.465-4.831-1.395-7.202
	c-0.93-2.371-2.325-4.486-4.185-6.347c-1.86-1.86-3.96-3.241-6.3-4.141c-2.34-0.9-4.74-1.35-7.2-1.35c-2.46,0-4.86,0.45-7.2,1.35
	c-2.34,0.9-4.44,2.281-6.3,4.141c-1.86,1.86-3.255,3.976-4.185,6.347c-0.93,2.371-1.395,4.771-1.395,7.202
	c0,2.431,0.465,4.816,1.395,7.157c0.93,2.341,2.325,4.441,4.185,6.302c1.86,1.86,3.96,3.256,6.3,4.186
	c2.34,0.93,4.74,1.395,7.2,1.395c2.46,0,4.86-0.465,7.2-1.395C72.355,67.313,74.455,65.918,76.315,64.057z M87.115,26.248
	c3.36,3.361,5.88,7.157,7.56,11.388c1.68,4.231,2.52,8.537,2.52,12.918c0,4.381-0.84,8.687-2.52,12.918
	c-1.68,4.231-4.2,8.027-7.56,11.388c-2.7,2.701-5.7,4.861-9,6.482c-3.3,1.62-6.72,2.7-10.26,3.241
	c-3.54,0.54-7.095,0.51-10.665-0.09c-3.57-0.6-6.975-1.74-10.215-3.421l-15.48,15.484c-0.9,0.9-1.89,1.56-2.97,1.98
	c-1.08,0.42-2.205,0.63-3.375,0.63c-1.17,0-2.295-0.21-3.375-0.63c-1.08-0.42-2.07-1.08-2.97-1.98c-0.9-0.9-1.56-1.891-1.98-2.971
	c-0.42-1.08-0.63-2.206-0.63-3.376c0-1.17,0.21-2.295,0.63-3.376c0.42-1.081,1.08-2.071,1.98-2.971l14.94-14.944
	c-2.1-3.301-3.57-6.842-4.41-10.623c-0.84-3.781-1.065-7.562-0.675-11.343c0.39-3.781,1.41-7.457,3.06-11.028
	c1.65-3.571,3.915-6.797,6.795-9.677c3.36-3.301,7.155-5.791,11.385-7.472c4.23-1.68,8.535-2.521,12.915-2.521
	c4.38,0,8.685,0.84,12.915,2.521C79.96,20.457,83.755,22.947,87.115,26.248z"/>
</svg>
