<?xml version="1.0" encoding="utf-8"?>
<!-- Generator: Adobe Illustrator 17.0.0, SVG Export Plug-In . SVG Version: 6.00 Build 0)  -->
<!DOCTYPE svg PUBLIC "-//W3C//DTD SVG 1.1//EN" "http://www.w3.org/Graphics/SVG/1.1/DTD/svg11.dtd">
<svg version="1.1" id="Layer_1" xmlns="http://www.w3.org/2000/svg" xmlns:xlink="http://www.w3.org/1999/xlink" x="0px" y="0px"
	 width="113.386px" height="113.386px" viewBox="0 0 113.386 113.386" enable-background="new 0 0 113.386 113.386"
	 xml:space="preserve">
<path stroke="#000000" stroke-miterlimit="10" d="M92.551,41.402c0.663,0.828,0.912,1.823,0.746,2.982l-3.15,18.06
	c-0.111,0.939-0.539,1.712-1.285,2.32c-0.746,0.608-1.589,0.911-2.528,0.911H40.409l-0.912,5.136h43.769
	c1.05,0,1.962,0.373,2.736,1.118c0.774,0.746,1.16,1.671,1.16,2.775c0,1.105-0.387,2.03-1.16,2.775
	c-0.774,0.746-1.686,1.118-2.736,1.118H34.855c-1.161,0-2.155-0.469-2.984-1.408c-0.774-0.939-1.078-2.016-0.912-3.231l2.072-11.267
	l-3.15-31.646l-8.953-2.817c-1.05-0.331-1.81-0.967-2.28-1.905c-0.47-0.939-0.566-1.933-0.29-2.982
	c0.332-1.049,0.981-1.809,1.948-2.278c0.967-0.469,1.948-0.566,2.943-0.29l11.44,3.645c0.718,0.221,1.313,0.635,1.782,1.243
	c0.47,0.608,0.76,1.298,0.87,2.071l0.663,6.296l51.893,5.799C91.058,39.994,91.943,40.518,92.551,41.402z M40.741,80.753
	c1.658,0,3.067,0.58,4.228,1.74c1.161,1.16,1.741,2.568,1.741,4.225c0,1.657-0.58,3.079-1.741,4.266
	c-1.161,1.187-2.57,1.781-4.228,1.781c-1.658,0-3.067-0.594-4.228-1.781c-1.161-1.187-1.741-2.61-1.741-4.266
	c0-1.657,0.58-3.065,1.741-4.225C37.674,81.333,39.083,80.753,40.741,80.753z M76.137,80.753c1.658,0,3.067,0.58,4.228,1.74
	c1.16,1.16,1.741,2.568,1.741,4.225c0,1.657-0.58,3.079-1.741,4.266c-1.161,1.187-2.57,1.781-4.228,1.781
	c-1.658,0-3.067-0.594-4.228-1.781c-1.161-1.187-1.741-2.61-1.741-4.266c0-1.657,0.58-3.065,1.741-4.225
	C73.07,81.333,74.479,80.753,76.137,80.753z"/>
</svg>
