<?xml version="1.0" encoding="utf-8"?>
<!-- Generator: Adobe Illustrator 17.0.0, SVG Export Plug-In . SVG Version: 6.00 Build 0)  -->
<!DOCTYPE svg PUBLIC "-//W3C//DTD SVG 1.1//EN" "http://www.w3.org/Graphics/SVG/1.1/DTD/svg11.dtd">
<svg version="1.1" id="Layer_1" xmlns="http://www.w3.org/2000/svg" xmlns:xlink="http://www.w3.org/1999/xlink" x="0px" y="0px"
	 width="77.18px" height="43.595px" viewBox="0 0 77.18 43.595" enable-background="new 0 0 77.18 43.595" xml:space="preserve">
<g id="bgKvUQ.tif">
	
		<image display="none" overflow="visible" width="960" height="965" id="Layer_0_1_" xlink:href="875AEA91C98DAE2D.png"  transform="matrix(0.3777 0 0 0.3777 -315.2881 -256.4774)">
	</image>
	<path stroke="#000000" stroke-miterlimit="10" d="M21.383,32.718c1.559,0,3.021-0.293,4.385-0.879
		c1.364-0.586,2.548-1.395,3.55-2.427c1.002-1.032,1.796-2.232,2.381-3.598c0.585-1.367,0.877-2.831,0.877-4.393
		c0-1.562-0.292-3.027-0.877-4.393c-0.585-1.367-1.378-2.552-2.381-3.557c-1.002-1.004-2.186-1.799-3.55-2.385
		c-1.364-0.586-2.826-0.879-4.385-0.879c-1.559,0-3.021,0.293-4.385,0.879c-1.364,0.586-2.562,1.381-3.592,2.385
		c-1.03,1.004-1.838,2.19-2.422,3.557c-0.585,1.367-0.877,2.831-0.877,4.393c0,1.562,0.292,3.027,0.877,4.393
		c0.585,1.367,1.392,2.566,2.422,3.598c1.03,1.032,2.227,1.841,3.592,2.427C18.362,32.425,19.823,32.718,21.383,32.718z
		 M72.42,16.149c1.169,0,2.172,0.432,3.007,1.297c0.835,0.865,1.253,1.911,1.253,3.138s-0.418,2.273-1.253,3.138
		c-0.835,0.865-1.838,1.297-3.007,1.297h-0.585v13.808c0,1.172-0.432,2.176-1.295,3.013c-0.863,0.837-1.908,1.255-3.132,1.255
		c-1.225,0-2.269-0.418-3.132-1.255c-0.863-0.837-1.295-1.841-1.295-3.013V25.019h-4.176v8.62c0,1.172-0.432,2.176-1.295,3.013
		c-0.863,0.837-1.907,1.255-3.132,1.255c-1.225,0-2.269-0.418-3.132-1.255c-0.863-0.837-1.295-1.841-1.295-3.013v-8.619h-8.019
		c-0.445,2.455-1.281,4.742-2.506,6.862c-1.225,2.12-2.743,3.947-4.552,5.481c-1.81,1.534-3.87,2.748-6.181,3.64
		c-2.311,0.893-4.747,1.339-7.309,1.339c-2.896,0-5.61-0.544-8.144-1.632c-2.534-1.088-4.748-2.58-6.641-4.477
		c-1.893-1.897-3.383-4.114-4.469-6.653C1.043,27.042,0.5,24.322,0.5,21.421c0-2.901,0.543-5.621,1.629-8.159
		s2.576-4.756,4.469-6.653c1.893-1.897,4.107-3.389,6.641-4.477C15.772,1.044,18.487,0.5,21.383,0.5
		c2.395,0,4.692,0.391,6.891,1.172c2.2,0.781,4.177,1.869,5.931,3.264c1.754,1.395,3.272,3.054,4.552,4.979
		c1.281,1.925,2.227,4.003,2.84,6.234H72.42L72.42,16.149z"/>
</g>
</svg>
