<?xml version="1.0" encoding="utf-8"?>
<!-- Generator: Adobe Illustrator 17.0.0, SVG Export Plug-In . SVG Version: 6.00 Build 0)  -->
<!DOCTYPE svg PUBLIC "-//W3C//DTD SVG 1.1//EN" "http://www.w3.org/Graphics/SVG/1.1/DTD/svg11.dtd">
<svg version="1.1" id="Layer_1" xmlns="http://www.w3.org/2000/svg" xmlns:xlink="http://www.w3.org/1999/xlink" x="0px" y="0px"
	 width="113.39px" height="113.386px" viewBox="0 0 113.39 113.386" enable-background="new 0 0 113.39 113.386"
	 xml:space="preserve">
<g>
	<g>
		<defs>
			<rect id="SVGID_1_" x="24.855" y="23.193" width="66.322" height="67.734"/>
		</defs>
		<clipPath id="SVGID_2_">
			<use xlink:href="#SVGID_1_"  overflow="visible"/>
		</clipPath>
		<g clip-path="url(#SVGID_2_)">
			<defs>
				<rect id="SVGID_3_" x="24.855" y="24.546" width="66.322" height="66.296"/>
			</defs>
			<clipPath id="SVGID_4_">
				<use xlink:href="#SVGID_3_"  overflow="visible"/>
			</clipPath>
			<g clip-path="url(#SVGID_4_)">
				<defs>
					<rect id="SVGID_5_" x="24.855" y="23.193" width="66.322" height="67.734"/>
				</defs>
				<clipPath id="SVGID_6_">
					<use xlink:href="#SVGID_5_"  overflow="visible"/>
				</clipPath>
				<path clip-path="url(#SVGID_6_)" fill="#020202" d="M87.627,37.346L67.944,57.03l19.684,19.689c2.928,2.927,2.928,7.672,0,10.6
					c-1.461,1.466-3.378,2.193-5.297,2.193c-1.918,0-3.835-0.727-5.302-2.193L57.339,67.629L37.654,87.32
					c-1.466,1.466-3.384,2.193-5.303,2.193c-1.918,0-3.835-0.727-5.296-2.193c-2.934-2.928-2.934-7.674,0-10.6L46.739,57.03
					L27.049,37.346c-2.928-2.934-2.928-7.679,0-10.606c2.927-2.927,7.672-2.927,10.599,0L57.339,46.43L77.028,26.74
					c2.927-2.927,7.672-2.927,10.599,0C90.555,29.667,90.555,34.413,87.627,37.346z"/>
			</g>
		</g>
	</g>
</g>
</svg>
