<?xml version="1.0" encoding="utf-8"?>
<!-- Generator: Adobe Illustrator 17.0.0, SVG Export Plug-In . SVG Version: 6.00 Build 0)  -->
<!DOCTYPE svg PUBLIC "-//W3C//DTD SVG 1.1//EN" "http://www.w3.org/Graphics/SVG/1.1/DTD/svg11.dtd">
<svg xmlns="http://www.w3.org/2000/svg" xmlns:xlink="http://www.w3.org/1999/xlink" x="0px" y="0px"
	 width="21px" height="21px" viewBox="0 0 414.99 414.99">
	<polygon fill="#A3A2A2" points="49.845,361.9 359.439,361.9 359.439,52.326 49.845,52.326 	"/>
	<path fill="#FFFFFF" d="M204.638,84.123c43.996,0,91.01,78.657,91.01,146.77c0,53.503-31.451,99.144-91.01,99.144
		c-59.604,0-90.974-45.641-90.974-99.143C113.664,162.778,160.636,84.123,204.638,84.123"/>
	<polygon display="none" fill="#E92328" points="690.972,362.029 381.41,362.029 381.41,52.459 690.972,52.459 	"/>
	<polygon display="none" fill="#FFFFFF" points="404.071,170.551 436.668,170.551 447.314,214.272 447.49,214.272 458.15,170.551
		490.72,170.551 490.72,244.868 469.062,244.868 469.062,197.17 468.834,197.17 455.948,244.868 438.856,244.868 425.945,197.17
		425.756,197.17 425.756,244.868 404.071,244.868 	"/>
	<polygon display="none" fill="#FFFFFF" points="524.027,189.585 503.216,189.585 503.216,170.551 567.776,170.551 567.776,189.585
		546.914,189.585 546.914,244.868 524.027,244.868 	"/>
	<path display="none" fill="#FFFFFF" d="M623.056,198.209c-0.417-2.678-2.519-10.919-11.949-10.919
		c-10.749,0-14.191,10.423-14.191,20.437c0,10,3.443,20.394,14.191,20.394c7.67,0,10.709-5.411,12.052-12.424h22.495
		c0,14.994-12.192,30.956-33.951,30.956c-24.066,0-37.673-16.97-37.673-38.926c0-23.443,14.774-38.936,37.673-38.936
		c20.42,0.082,31.671,10.798,33.61,29.416h-22.256V198.209z"/>
</svg>
