<?xml version="1.0" encoding="utf-8"?>
<!-- Generator: Adobe Illustrator 16.0.4, SVG Export Plug-In . SVG Version: 6.00 Build 0)  -->
<!DOCTYPE svg PUBLIC "-//W3C//DTD SVG 1.1//EN" "http://www.w3.org/Graphics/SVG/1.1/DTD/svg11.dtd">
<svg version="1.1" id="Layer_1" xmlns="http://www.w3.org/2000/svg" xmlns:xlink="http://www.w3.org/1999/xlink" x="0px" y="0px"
	 width="50px" height="50px" viewBox="0 0 50 50" enable-background="new 0 0 50 50" xml:space="preserve">
<path d="M24.576,9.322c5.424,0,10.764,2.498,10.764,8.473c0,5.51-6.314,7.629-7.67,9.62c-1.018,1.482-0.678,3.561-3.475,3.561
	c-1.822,0-2.712-1.482-2.712-2.838c0-5.045,7.414-6.188,7.414-10.342c0-2.287-1.523-3.643-4.067-3.643
	c-5.424,0-3.306,5.592-7.414,5.592c-1.483,0-2.756-0.89-2.756-2.584C14.66,13.005,19.406,9.322,24.576,9.322z M24.365,33.729
	c1.905,0,3.475,1.566,3.475,3.475c0,1.91-1.568,3.475-3.475,3.475c-1.907,0-3.476-1.564-3.476-3.475
	C20.889,35.295,22.458,33.729,24.365,33.729z"/>
</svg>
