<?xml version="1.0" encoding="utf-8"?>
<!-- Generator: Adobe Illustrator 17.0.0, SVG Export Plug-In . SVG Version: 6.00 Build 0)  -->
<!DOCTYPE svg PUBLIC "-//W3C//DTD SVG 1.1//EN" "http://www.w3.org/Graphics/SVG/1.1/DTD/svg11.dtd">
<svg xmlns="http://www.w3.org/2000/svg" xmlns:xlink="http://www.w3.org/1999/xlink" x="0px" y="0px"
	 width="21px" height="21px" viewBox="0 0 113.39 113.39" fill="#999999">
<g>
	<g>
		<defs>
			<rect id="SVGID_1_" x="14.333" y="14.331" width="84.526" height="84.727"/>
		</defs>
		<clipPath id="SVGID_2_">
			<use xlink:href="#SVGID_1_"  overflow="visible"/>
		</clipPath>
		<g clip-path="url(#SVGID_2_)">
			<defs>
				<rect id="SVGID_3_" x="14.333" y="14.404" width="84.518" height="84.526"/>
			</defs>
			<clipPath id="SVGID_4_">
				<use xlink:href="#SVGID_3_"  overflow="visible"/>
			</clipPath>
			<g clip-path="url(#SVGID_4_)">
				<defs>
					<rect id="SVGID_5_" x="14.333" y="14.331" width="84.526" height="84.727"/>
				</defs>
				<clipPath id="SVGID_6_">
					<use xlink:href="#SVGID_5_"  overflow="visible"/>
				</clipPath>
				<path clip-path="url(#SVGID_6_)" d="M31.917,87.641c-0.918,0.918-1.983,1.377-3.195,1.377s-2.277-0.459-3.194-1.377
					c-0.918-0.917-1.377-1.982-1.377-3.194s0.459-2.278,1.377-3.195s1.982-1.376,3.194-1.376s2.278,0.458,3.195,1.376
					c0.918,0.918,1.376,1.983,1.376,3.195S32.834,86.724,31.917,87.641z M98.76,37.116c0-0.328-0.065-0.59-0.196-0.787
					c-0.131-0.196-0.492-0.59-1.081-1.18l-1.278-1.278c-0.721-0.656-1.409-0.656-2.065,0l-6.291,6.291
					c-0.787,0.787-1.458,1.343-2.016,1.671c-0.557,0.328-1.081,0.508-1.572,0.541c-0.492,0.032-1.163,0.049-2.015,0.049h-1.278
					c-0.918,0-1.966-0.311-3.146-0.934c-1.18-0.622-2.326-1.49-3.441-2.605c-1.18-1.18-2.08-2.359-2.703-3.539
					c-0.623-1.18-0.934-2.228-0.934-3.146v-1.278c0.787-1.638,0.803-2.311,0.049-2.016c-0.754,0.295-0.573-0.229,0.54-1.572
					c1.115-1.343,1.671-2.016,1.671-2.016l6.291-6.291c0.656-0.656,0.656-1.344,0-2.064l-1.278-1.279
					c-0.59-0.59-0.983-0.95-1.18-1.081c-0.197-0.131-0.459-0.197-0.787-0.197c-3.08-0.066-6.127,0.557-9.141,1.867
					c-3.015,1.311-5.767,3.212-8.257,5.702c-2.556,2.49-4.522,5.292-5.899,8.404c-1.376,3.113-2.064,6.242-2.064,9.388
					c0,2.097,0.492,4.259,1.474,6.487L22.087,72.7c-0.197,0.131-0.671,0.492-1.425,1.082c-0.754,0.59-1.557,1.36-2.409,2.31
					c-0.852,0.95-1.655,2.064-2.408,3.342c-0.754,1.278-1.229,2.703-1.425,4.276c-0.459,3.605,0.917,7.143,4.128,10.617
					c0,0.065,0.016,0.098,0.049,0.098c0.032,0,0.049,0.033,0.049,0.098h0.099l0.098,0.098c3.408,3.277,6.946,4.653,10.616,4.129
					c1.573-0.197,2.998-0.672,4.277-1.426c1.278-0.754,2.391-1.556,3.342-2.408c0.951-0.852,1.72-1.655,2.31-2.408
					c0.59-0.754,0.951-1.229,1.082-1.426l26.443-30.079c2.228,0.983,4.39,1.474,6.488,1.474c3.145,0,6.274-0.688,9.387-2.064
					c3.113-1.377,5.914-3.343,8.404-5.898c2.491-2.491,4.391-5.243,5.702-8.258C98.203,43.243,98.826,40.196,98.76,37.116z"/>
			</g>
		</g>
	</g>
</g>
</svg>
