<?xml version="1.0" encoding="utf-8"?>
<!-- Generator: Adobe Illustrator 18.0.0, SVG Export Plug-In . SVG Version: 6.00 Build 0)  -->
<!DOCTYPE svg PUBLIC "-//W3C//DTD SVG 1.1//EN" "http://www.w3.org/Graphics/SVG/1.1/DTD/svg11.dtd">
<svg version="1.1" id="Слой_1" xmlns="http://www.w3.org/2000/svg" xmlns:xlink="http://www.w3.org/1999/xlink" x="0px" y="0px"
	 viewBox="0 -4 1920 1004" enable-background="new 0 -4 1920 1004" xml:space="preserve">
<g>
	<g id="Layer_1">
		<g>
			<g>
				<g>
					<defs>
						<rect id="SVGID_1_" x="-1848.1" y="-712.1" width="5649.4" height="3203.5"/>
					</defs>
					<clipPath id="SVGID_2_">
						<use xlink:href="#SVGID_1_"  overflow="visible"/>
					</clipPath>
					<path clip-path="url(#SVGID_2_)" fill="#FF9900" d="M946.3,199.1h86.6c13,0,23.8-8.7,23.8-17.3l13-164.5
						c0-8.7-10.8-17.3-21.6-17.3H924.6c-13,0-23.8,8.7-21.6,17.3l17.3,164.5C922.4,190.5,933.3,199.1,946.3,199.1"/>
				</g>
			</g>
			<g>
				<g>
					<defs>
						<rect id="SVGID_3_" x="-1848.1" y="-712.1" width="5649.4" height="3203.5"/>
					</defs>
					<clipPath id="SVGID_4_">
						<use xlink:href="#SVGID_3_"  overflow="visible"/>
					</clipPath>
					<path clip-path="url(#SVGID_4_)" fill="#FF9900" d="M879.2,207.8l-84.4,21.6c-13,2.2-26-2.2-28.1-10.8L714.7,62.8
						C710.3,51.9,719,43.3,732,39L853.2,8.7c10.8-2.2,23.8,2.2,26,10.8l21.6,162.3C900.8,194.8,892.1,205.6,879.2,207.8"/>
				</g>
			</g>
			<g>
				<g>
					<defs>
						<rect id="SVGID_5_" x="-1848.1" y="-712.1" width="5649.4" height="3203.5"/>
					</defs>
					<clipPath id="SVGID_6_">
						<use xlink:href="#SVGID_5_"  overflow="visible"/>
					</clipPath>
					<path clip-path="url(#SVGID_6_)" fill="#FF9900" d="M1097.8,207.8l84.4,21.6c13,2.2,26-2.2,28.1-10.8l51.9-155.8
						c2.2-8.7-6.5-19.5-17.3-21.6l-121.2-30.3c-10.8-4.3-23.8,2.2-26,10.8L1076.1,184C1076.1,194.8,1084.8,205.6,1097.8,207.8"/>
				</g>
			</g>
			<g>
				<g>
					<defs>
						<rect id="SVGID_7_" x="-1848.1" y="-712.1" width="5649.4" height="3203.5"/>
					</defs>
					<clipPath id="SVGID_8_">
						<use xlink:href="#SVGID_7_"  overflow="visible"/>
					</clipPath>
					<path clip-path="url(#SVGID_8_)" fill="#FF9900" d="M526.3,385.3l67.1-56.3c10.8-8.7,13-21.6,8.7-30.3L509,164.5
						c-6.5-8.7-19.5-6.5-28.1,0l-95.2,77.9c-8.7,8.7-13,21.6-6.5,28.1L496,385.3C502.5,393.9,515.5,393.9,526.3,385.3"/>
				</g>
			</g>
			<g>
				<g>
					<defs>
						<rect id="SVGID_9_" x="-1848.1" y="-712.1" width="5649.4" height="3203.5"/>
					</defs>
					<clipPath id="SVGID_10_">
						<use xlink:href="#SVGID_9_"  overflow="visible"/>
					</clipPath>
					<path clip-path="url(#SVGID_10_)" fill="#FF9900" d="M480.9,435.1l-51.9,69.3c-8.7,10.8-21.6,15.2-28.1,8.7l-138.5-86.6
						c-8.7-4.3-8.7-19.5,0-28.1l73.6-99.6c6.5-10.8,19.5-13,28.1-6.5l121.2,112.6C489.5,409.1,487.4,424.2,480.9,435.1"/>
				</g>
			</g>
			<g>
				<g>
					<defs>
						<rect id="SVGID_11_" x="-1848.1" y="-712.1" width="5649.4" height="3203.5"/>
					</defs>
					<clipPath id="SVGID_12_">
						<use xlink:href="#SVGID_11_"  overflow="visible"/>
					</clipPath>
					<path clip-path="url(#SVGID_12_)" fill="#FFFFFF" d="M654,292.2l77.9-36.8c10.8-6.5,17.3-17.3,15.2-26L688.7,75.8
						c-4.3-8.7-17.3-10.8-28.1-6.5L548,123.4c-10.8,4.3-17.3,15.2-10.8,23.8l86.6,140.7C628.1,294.4,641.1,298.7,654,292.2"/>
				</g>
			</g>
			<g>
				<g>
					<defs>
						<rect id="SVGID_13_" x="-1848.1" y="-712.1" width="5649.4" height="3203.5"/>
					</defs>
					<clipPath id="SVGID_14_">
						<use xlink:href="#SVGID_13_"  overflow="visible"/>
					</clipPath>
					<path clip-path="url(#SVGID_14_)" fill="#FF9900" d="M1450.6,385.3l-69.3-56.3c-10.8-8.7-13-21.6-8.7-30.3l95.2-132
						c6.5-8.7,19.5-6.5,28.1,0l95.2,77.9c8.7,8.7,13,21.6,6.5,28.1l-116.9,114.7C1474.4,393.9,1459.2,393.9,1450.6,385.3"/>
				</g>
			</g>
			<g>
				<g>
					<defs>
						<rect id="SVGID_15_" x="-1848.1" y="-712.1" width="5649.4" height="3203.5"/>
					</defs>
					<clipPath id="SVGID_16_">
						<use xlink:href="#SVGID_15_"  overflow="visible"/>
					</clipPath>
					<path clip-path="url(#SVGID_16_)" fill="#FF9900" d="M1496,435.1l51.9,69.3c8.7,10.8,21.6,15.2,28.1,8.7l138.5-86.6
						c8.7-4.3,8.7-19.5,0-28.1l-73.6-99.6c-6.5-10.8-19.5-13-28.1-6.5l-121.2,112.6C1487.4,409.1,1487.4,424.2,1496,435.1"/>
				</g>
			</g>
			<g>
				<g>
					<defs>
						<rect id="SVGID_17_" x="-1848.1" y="-712.1" width="5649.4" height="3203.5"/>
					</defs>
					<clipPath id="SVGID_18_">
						<use xlink:href="#SVGID_17_"  overflow="visible"/>
					</clipPath>
					<path clip-path="url(#SVGID_18_)" fill="#FFFFFF" d="M1322.9,292.2l-77.9-36.8c-10.8-6.5-17.3-17.3-15.2-26l58.4-153.7
						c4.3-8.7,17.3-10.8,28.1-6.5l112.6,54.1c10.8,4.3,17.3,17.3,13,26L1355.3,290C1346.7,294.4,1333.7,298.7,1322.9,292.2"/>
				</g>
			</g>
			<g>
				<g>
					<defs>
						<rect id="SVGID_19_" x="-1848.1" y="-712.1" width="5649.4" height="3203.5"/>
					</defs>
					<clipPath id="SVGID_20_">
						<use xlink:href="#SVGID_19_"  overflow="visible"/>
					</clipPath>
					<path clip-path="url(#SVGID_20_)" fill="#FFFFFF" d="M338,703.5l-17.3,84.4c-2.2,13-13,21.6-21.6,21.6L136.7,790
						c-8.7-2.2-15.2-13-13-26l23.8-121.2c2.2-13,13-21.6,21.6-17.3L325,675.3C335.9,677.5,340.2,690.5,338,703.5"/>
				</g>
			</g>
			<g>
				<g>
					<defs>
						<rect id="SVGID_21_" x="-1848.1" y="-712.1" width="5649.4" height="3203.5"/>
					</defs>
					<clipPath id="SVGID_22_">
						<use xlink:href="#SVGID_21_"  overflow="visible"/>
					</clipPath>
					<path clip-path="url(#SVGID_22_)" fill="#FF9900" d="M316.4,859.3l4.3,86.6c0,13-6.5,23.8-17.3,26l-162.3,19.5
						c-8.7,2.2-17.3-8.7-19.5-21.6l-4.3-123.4c0-13,6.5-23.8,17.3-21.6l164.5,10.8C305.6,835.5,314.2,846.3,316.4,859.3"/>
				</g>
			</g>
			<g>
				<g>
					<defs>
						<rect id="SVGID_23_" x="-1848.1" y="-712.1" width="5649.4" height="3203.5"/>
					</defs>
					<clipPath id="SVGID_24_">
						<use xlink:href="#SVGID_23_"  overflow="visible"/>
					</clipPath>
					<path clip-path="url(#SVGID_24_)" fill="#FFFFFF" d="M359.7,640.7l36.8-77.9c6.5-10.8,2.2-26-6.5-30.3l-142.9-82.3
						c-8.7-4.3-19.5,2.2-26,13L167,575.8c-4.3,10.8-2.2,23.8,6.5,28.1L329.4,658C342.4,658,355.3,651.5,359.7,640.7"/>
				</g>
			</g>
			<g>
				<g>
					<defs>
						<rect id="SVGID_25_" x="-1848.1" y="-712.1" width="5649.4" height="3203.5"/>
					</defs>
					<clipPath id="SVGID_26_">
						<use xlink:href="#SVGID_25_"  overflow="visible"/>
					</clipPath>
					<path clip-path="url(#SVGID_26_)" fill="#FFFFFF" d="M1656.2,792.2l-17.3-84.4c-2.2-13,2.2-26,13-28.1l158-45.5
						c8.7-2.2,19.5,6.5,21.6,17.3l23.8,121.2c2.2,13-4.3,23.8-13,26l-164.5,15.2C1669.2,813.9,1658.4,805.2,1656.2,792.2"/>
				</g>
			</g>
			<g>
				<g>
					<defs>
						<rect id="SVGID_27_" x="-1848.1" y="-712.1" width="5649.4" height="3203.5"/>
					</defs>
					<clipPath id="SVGID_28_">
						<use xlink:href="#SVGID_27_"  overflow="visible"/>
					</clipPath>
					<path clip-path="url(#SVGID_28_)" fill="#FF9900" d="M1660.5,859.3l-4.3,86.6c0,13,6.5,23.8,17.3,26l162.3,19.5
						c8.7,2.2,17.3-8.7,19.5-21.6l4.3-123.4c0-13-6.5-23.8-17.3-21.6l-164.5,10.8C1669.2,835.5,1660.5,846.3,1660.5,859.3"/>
				</g>
			</g>
			<g>
				<g>
					<defs>
						<rect id="SVGID_29_" x="-1848.1" y="-712.1" width="5649.4" height="3203.5"/>
					</defs>
					<clipPath id="SVGID_30_">
						<use xlink:href="#SVGID_29_"  overflow="visible"/>
					</clipPath>
					<path clip-path="url(#SVGID_30_)" fill="#FFFFFF" d="M1615.1,640.7l-36.8-77.9c-6.5-10.8-2.2-26,6.5-30.3l142.9-82.3
						c8.7-4.3,19.5,2.2,26,13l54.1,112.6c4.3,10.8,2.2,23.8-6.5,28.1l-160.2,51.9C1632.4,658,1621.6,651.5,1615.1,640.7"/>
				</g>
			</g>
		</g>
	</g>
	<g id="Layer_2">
		<path fill="#FF9900" d="M697.3,948.1c-10.8-41.1-21.6-62.8-17.3-97.4c4.3-58.4,56.3-155.8,47.6-99.6c-8.7,62.8,13,88.7,64.9,119
			c19.5,13,43.3,15.2,56.3,4.3c15.2-10.8-17.3-45.5-28.1-73.6c-30.3-82.3-32.5-149.4,0-227.3c8.7-21.6,17.3-43.3,28.1-60.6
			c13-19.5,30.3-43.3,47.6-64.9c15.2-17.3,41.1-43.3,51.9-43.3c-2.2,54.1-51.9,136.4-6.5,197c2.2,4.3,181.8,140.7,184,140.7
			c15.2,0-26-88.7,56.3-145l0,0l0,0c0,4.3-2.2,21.6-2.2,39c0,41.1,26,56.3,51.9,88.7c32.5,39,56.3,82.3,73.6,160.2
			c8.7,41.1,6.5,75.8-15.2,82.3c-4.3,2.2-127.7,30.3-84.4-73.6c-26,28.1-30.3,43.3-39,58.4c-13,19.5-58.4,30.3-93.1,6.5
			c-41.1-28.1-45.5-145-101.7-186.1c-41.1-30.3-43.3-45.5-39-34.6c19.5,58.4,153.7,214.3,43.3,229.4c-41.1,6.5-112.6,6.5-158,6.5
			c-36.8,0-97.4,2.2-103.9-2.2C706,969.7,701.7,958.9,697.3,948.1"/>
	</g>
</g>
</svg>
