<?xml version="1.0" encoding="utf-8"?>
<!-- Generator: Adobe Illustrator 18.0.0, SVG Export Plug-In . SVG Version: 6.00 Build 0)  -->
<!DOCTYPE svg PUBLIC "-//W3C//DTD SVG 1.1//EN" "http://www.w3.org/Graphics/SVG/1.1/DTD/svg11.dtd">
<svg version="1.1" id="Слой_2" xmlns="http://www.w3.org/2000/svg" xmlns:xlink="http://www.w3.org/1999/xlink" x="0px" y="0px"
	 viewBox="0 0 394.2 252.2" enable-background="new 0 0 394.2 252.2" xml:space="preserve">
<path fill="#1562A6" d="M329.6,232.9c0,0,5.7-0.7,10.3-13.3c4.7-12.7,14-20.7,25.3-21.7s21.7-5.7,26-13.7s5-22.7-5.7-32.3
	c-10.7-9.7-19.7-12.7-19.7-12.7s-5.5,1-2.3,4.5s-6.7,2.6-6.7,2.6s-6.7,1.6-8.7,2.7c-2,1.1,0.8,2.2-6.5,1.2s-9.3,0.8-7.6,4.2
	c1.8,3.4-1.7,2.7-2.3,2.6c-0.7-0.1-1.8,1.2-1.8,2.2s0.5,1.8-1.1,2.1s-2.2,0.7-2.2,1.8c0,1.2,1.7,1.4-1.2,2.3
	c-2.8,0.9-6.7,2.8-4.1,9.7c2.6,6.9,6.3,6.3,1.3,7.4s-13.3-4-18.8-5.9c-5.5-1.9-25.3-4.8-31.8-0.8s-9.5,5.3-18.8,3.8s-18.3,0-24.5,0
	s-19,5.3-19.8-1s-17.3-6.5-19.5-7.3s-7.5-3-8.5-7.3s-4.3-1.3-4.3-1.3s-0.8-0.3-3.5-3.3s-19.8-12.8-23.8-14s-8.8-2.8-14-6.2
	c-5.3-3.3-13-10.1-25.3-17.1S92.3,108.9,85,99.9s-15.5-10-24-21.8s-9-7.8-15.3-18.8s-5.8-7.5-3.5-10s2.3-5.8-0.3-6.5s-4,1-4-6.3
	s-5.8-8-5.8-8s-1-4.8-2-6.3s-1.8-4.3-1.8-8.5S26.8-7.9,15.8,4.1S0,51.4,0,62.9s2.3,12.8,4.5,12.5s3,1.3,5.8,1.3s7-0.3,10.3,0.3
	s10.5,0.8,23,30.3s26.3,34.8,41,43.3s10.5,7.8,22,26s14,17,23.5,30.3s14.8,20.8,16,23.8s2.8,7,0.8,7s-6.3,5.3-2,7s14,2,16.5,2
	s8.5,2,13.5,1.3s11.2-1.9,22.4,0.2c11.1,2.1,36.4,4.6,47.9,4.3s15.3-4.5,23.5-4s22.3,0,24.8,0s7,1.3,10.8,1.3s9-2.5,12.5-6.3
	S329.6,232.9,329.6,232.9z"/>
</svg>
