<svg xmlns="http://www.w3.org/2000/svg" xmlns:xlink="http://www.w3.org/1999/xlink" 
	 viewBox="0 0 135.6 182.2" enable-background="new 0 0 135.6 182.2">
<path d="M126,89.4c0,0,0.1-0.6-0.6-0.8c-0.3-0.1-1.1,0.1-1.5,0c-1.5-0.2-1.4,0.8-1.4-1.2c0.1-2-0.5-8.3-2.2-9
	c-1.7-0.7-3.4-1-3.8,3c-0.5,4-0.4,4.8-0.3,5c0.1,0.2,0.1,0.8-0.5,0.8s-1.5-1.1-2.6-1.1c-1.2,0.1-1.2-1-1.9-1c-0.8,0-1.8,0.5-2.9-1
	c-1.1-1.5-2.5-2.8-2.8-6.5c-0.3-3.8-0.4-9-1.9-11.1s-4-7.3-4.1-8.2c-0.1-1-1.3-4.6-2.5-5.7c-1.2-1.2-1.2-4-1.1-6.2s0.6-9.8-5.6-12.5
	c-6-2.7-9.6-5.6-9.6-5.6s-3-1.5-3.7-1.5S76,27.1,76,25.6s-1.2-6.2-0.5-7.8c0.7-1.6,2-1.7,2.2-2.9c0.1-0.7,0.6-2.5,0.2-3.7
	c-0.2-0.7-1.1-0.3-1-1.2c0.2-1,0.2-7.1-3.5-8.9c-1.8-0.9-8-2.3-10.9,1c-1.7,1.9-1.9,5.7-2,8.5c0,0.5-0.6,0.8-0.6,1.2
	c0.1,1.5,0.5,2.6,0.7,3.1c1.2,2.9,1.7,4.6,1.8,7s1.3,3-4.4,5.9s-7.3,4.3-9.8,4.6c-2.5,0.3-5,2.6-6.2,6c-1.3,3.6-0.8,5.4-1.1,7.9
	c-0.3,2.6-2.1,4.7-2.3,5.5c-0.2,0.8-1,7.4-3.2,9c-2.2,1.6-4.5,9.5-4.5,11.7c0,2.2-1.3,6.7-2.7,8.8c-1.4,2.2-2.3,4-2.3,4.4
	c0,0.4-2.6-0.3-2.5,0.9c0.1,0.7-3.4,0.1-3.4,0.1s-0.4-6.3-1.2-7.1c-0.8-0.8-3.6-2.7-5.3,0.5c-1.7,3.2-1,8.5-1.1,8.7
	c-0.5,0.1-1.2-0.1-2,0.2c-0.9,0.4-0.8,1.6-0.8,1.6l-9.9,0V93h9.9c0,0-0.1,2,1,1.9c0.8-0.1,1.4,0.1,1.7,0.3c0.3,0.2,0.1,0.8,0.2,1.8
	c0.2,2.2,0.2,6.3,1.8,7.7c1.7,1.3,4.5,1.9,5.1-1.3c0.7-3.2,0.8-7.4,0.8-7.4s-0.1-0.8,0.9-0.5c1,0.4,6.7,1.7,8.2,0
	c1.5-1.7,1.8-2.6,2.9-2.6c1.2,0,13.4-0.3,13.4-0.3l2.5,0.3c0,0-2.7,21.9-2.9,23c-0.3,1.1-0.4,1.9,0.8,2.3c1.2,0.4,3.2,0.3,2.7,3.4
	c-0.5,3.1-1,5.7-0.8,6.8c0.2,1.1-0.7,3.7-1.8,5.9s-2.2,5.7-1.2,14.3c1.1,8.5,1.8,11.6,0.8,14.3c-1,2.6-1.1,9.5-1.3,10.1
	c-0.2,0.6-0.6,2.1-1,2.8c-0.4,0.8-2.2,5.1,0.2,5.7c2.3,0.8,7.5,1.3,8.5-0.5c1-1.8,1.4-5,1.2-5.8c-0.2-1-0.2-2.8,0.7-4.7
	c0.8-1.9,0.5-5.7-0.4-7c-0.9-1.2-1.4-2.2-0.3-6c1.1-4,2.5-8.3,3.7-10.6c1.1-2.2,1.5-8.3,1.3-10.4s0.3-5.1,1.2-6.7
	c0.8-1.6,2.8-8.6,3.2-9.1s0.7-0.8,1.2-2.3c0.5-1.5,5.1-13,4.9-14.8c-0.1-1.8,0.7-1.3,0.8-0.7c0.2,0.7,4.1,10.9,5.5,12.6
	c1.3,1.8,2.3,3.9,2.9,7c0.7,3.2,1.7,5.4,2.5,7c0.8,1.7,0.9,1.8,1,5.7c0.1,3.9-0.5,6.8,1.6,11.6c2.1,4.9,3,9.3,3.5,11.6
	c0.5,2.3,0.5,3.8-0.3,4.7c-0.8,1-0.1,5.2,0.3,6.9c0.3,1.8,0.9,4.6,0.4,6.5s0.2,4.9,3.9,5.1c3.8,0.3,6.6-0.4,6.8-2.5
	c0.3-2.1-0.7-4.3-0.8-4.5s-0.9-0.8-1.1-3.2c-0.2-2.3-0.6-7.6-1.2-8c-0.6-0.5-1.3-1.5-1.1-2.8c0.2-1.3,1.8-14.1,1.9-15.8
	c0.2-1.8-0.2-8.1-1.2-10c-1-1.9-2-4.2-2.1-6.3c-0.2-2.2-0.8-4.3-1-5.7s-0.2-6.5,1.6-6.7c1.8-0.2,0.4-1.8,0.5-3.2
	c0.2-1.3-1.2-15.5-1.8-17.6c-0.7-2.2-0.3-2.6,0.2-3c0.4-0.5,12.3-0.4,12.3-0.4s1.7,4.3,6.8,3.6c2.8-0.4,4-1.3,4.6-2.7
	c0.6-1.4,0.4-0.5,0.4-0.5h0.5c0,0,0.2,9.3,0.9,10.7c0.7,1.3,1.4,2.2,2.8,1.6c1.9-0.8,2.9-4.4,2.7-8.8c-0.1-3,0.1-2.9,0.1-2.9
	l3.1-0.2l0.6-0.7l9.3-0.4v-2.2L126,89.4z M51.5,77.1c-0.3,6.1-2.8,13.1-2.8,13.1l-17-0.2c0,0,0.6-1.3,1.5-3.8c1-2.5,5.1-7.3,7-9.5
	c2-2.2,3.9-7.4,4.6-9.9c0.7-2.5,0.8-3.5,1.4-4.3c0.6-0.8,1.8-4.1,2.6-5.6s1.3-1.2,1.3,0s0.5,2.8,0.7,3.1c0.2,0.3,1.3,2.3,1.3,4.8
	C52,67.3,51.8,71.1,51.5,77.1z M102.8,89.5c-1.2-0.1-11.9,0-11.9,0s-1.3-3.1-1.3-3.3c0-0.2-1.3-3.8-1.3-3.8s-0.3-2.4-0.9-2.6
	c-0.6-0.2-1.4-11.6-1.5-13s0-4.9,0-4.9s0.2-5.1,1.6-3.2c1.4,1.8,1.5,3.8,2.5,4.6c1,0.8,2,1.9,2.2,4.8c0.2,2.9,2.2,7.2,3.2,8.3
	c1.1,1.1,6,8.3,6.8,10c0.8,1.6,1.5,1.9,1.5,2.3C103.6,89.3,104.1,89.6,102.8,89.5z"/>
</svg>
