<svg xmlns="http://www.w3.org/2000/svg" xmlns:xlink="http://www.w3.org/1999/xlink" 
	 viewBox="0 0 62.7 182.1" enable-background="new 0 0 62.7 182.1">
<path d="M61.2,59.2c-0.9-2.8-0.9-4.7-1.9-7.5l0.9-0.9c0,0,0,0,0-0.9c0-2.8-0.9-4.7-0.9-7.5c0-2.9,0.9-4.7-1.9-6.5
	c-1.9-1.9-5.6-4.7-8.4-4.7c-1.9,0-2.8-1.9-4.7-2.8c-0.9-1.9-0.9-2.8-0.9-4.7v-0.9c1.9-1.9,1.9-5.6,1.9-8.4c0.9-5.6,0.9-9.4-3.8-13.2
	C38.6-1,34-0.1,31.1,2.8c-2.8,1.9-3.8,4.7-4.7,6.5c0,1.9,0,2.8,0.9,4.7c-0.9,0-1.9,0-1.9,1.9c0.9,1.9,2.8,2.8,3.8,3.8
	c1.9,0.9,1.9,2.8,1.9,4.7c-1.9,1.9-4.7,3.8-7.5,3.8c-3.8,0-4.7,0.9-7.5,2.8c-2.8,2.8-4.7,7.5-8.4,10.3c-1.9,2.8-1.9,2.8-0.9,4.7
	c-1.9,0.9-3.8,5.6-4.7,6.5c-2,2.2-3,5.1-1.1,7.8c1.9,2.8,4.7,5.6,7.5,8.4c1.9,1.9,3.8,4.7,5.6,6.5c-0.9,7.5,0,15.1-0.9,21.6
	c0,0.9-1.9,6.5,0,7.5c0,0,0.9,0.9,1.9,0.9c0,1.9,0,4.7,0,6.5c0.9,3.8,0.9,7.5,1.9,11.3c0,3.8,0.9,7.5,1.9,11.3
	c0,2.8,1.9,4.7,4.7,4.7c6.5,0.9,6.5-7.5,6.5-11.3c0-4.7,0-8.4,0-13.2c0-1.9,0-4.7,0-6.5c0-0.9,0-2.8,0.9-1.9h0.9c0-0.9,0-0.9,0-1.9
	c0-0.9,0-0.9,0-1.9c0-1.9,0.9,0.9,0.9,1.9c0,3.8-0.9,6.5-0.9,9.4c0,1.9-0.9,2.8,0.9,3.8c0,0,0.9,0,1.9,0.9c-0.9,1.9-0.9,5.6-0.9,7.5
	c0,3.8,1.9,7.5,0,11.3c-0.9,3.8-1.9,7.5-0.9,11.3c0.9,3.8,0,8.4,0,12.2c-0.9,0-0.9,0-0.9,0.9s0,2.8,0,3.8c0,2.8-0.9,3.8-1.9,5.6
	c-0.9,1.9,0,5.6,0,7.5c0.9,3.8,2.8,3.8,5.6,3.8c2.9,0,4.7,0,6.5-1.9c1.9-1.9,0.9-3.8-0.9-5.6c-0.9-0.9-2.8-1.9-2.8-3.8
	c0-0.9,0-1.9,0.9-3.8c0.9-1.9,0-3.8-0.9-5.6c0,0,0,0,0-0.9c0.9-2.8,1.9-4.7,2.8-7.5c0.9-3.8,2.8-7.5,2.8-12.2
	c0.9-7.5-0.9-15.9,0-23.5c1.9,0,2.8-0.9,2.8-3.8c0-5.6,1.9-12.2,2.8-18.8c0.9-4.7,0-9.4-1.9-13.2C47,79.6,46,76.9,45.1,75l0,0
	c0.9,0,0.9-0.9,1.9-0.9v-0.9c-0.9-1.9-0.9-2.8-0.9-4.7c0-3.8,0-6.5,0.9-10.3c0,0,0.9-1.9,0.9-2.8s0.9-1.9,1.9-2.8c0-0.9,0.9,0,1.9,0
	c0,2.8,0,4.7,0,7.5c0,2.9,0.9,4.7,2.8,6.5l0,0c0.9,0.9-0.9,6.5,0.9,6.5c0.9,0,0.9,0,1.9,0c2.8-0.9-0.9,1.9-1.9,1.9
	c-0.9,0-1.9,0-1.9,0.9l0,0l0.9,0.9l0,0c0,0,0,0,0,0.9c1.9,1.9,4.7,0.9,6.5,0c0.9-0.9,0.9-3.8,1.9-4.7c0-1.9,0-2.8-0.9-3.8
	C59.3,65.8,62.1,62,61.2,59.2z M17.9,70.4L17.9,70.4c-1.9,0-2.8-1.9-3.8-2.8c-0.9-1.9-2.8-3.8-3.8-5.6c-0.9-0.9-1.9-1.9-1.9-3.8
	c0-0.9,1-0.9,1-1.9c0,0,0,0,0-0.9c0.9-0.9,0.9-1.9,1.9-2.8l0,0l0,0l0,0l0,0l0.9,0.9c0.9-0.9,0.9-1.9,1.9-2.8c0,0,0.9-0.9,0.9-1.9
	c0,0,0,0,0.9,0l0,0c0.9,2.8,0.9,6.5,0.9,9.4C17.1,63,17.9,66.7,17.9,70.4z"/>
</svg>
