<svg xmlns="http://www.w3.org/2000/svg" xmlns:xlink="http://www.w3.org/1999/xlink" 
	 viewBox="0 0 74.4 182.2" enable-background="new 0 0 74.4 182.2">
<path d="M73.6,56.6c-0.5-4-5-12.5-5.7-13.1c-0.7-0.6-2.3-1.7-3.1-4.2c-0.8-2.5-3.2-5.9-6.5-6.5
	C54.9,32,50,29,46,27.1s-2.4-7.9-1.2-9.2c0.9-0.9,0.8-0.9,1.6-2.6c0.6-1.5,1-3.1,0.6-4.1c-0.2-0.6-0.9-1.2-0.7-2.8s0.2-2.8-1-5.6
	C44,0,38.4-0.2,34.6,0.1c-3.8,0.4-5.1,6.1-5,7.4s0.4,2.6,0.4,2.6s-1.5,0.4-1.4,2.2s0.7,3.8,1.3,4.2c0.6,0.6,1.4,1.1,1.7,4.5
	c0.3,3.2-1.1,4.4-3.8,7.3c-2.7,3-8.4,3.3-10.9,4.6c-3.3,1.7-6.2,4-6.3,5.3c-0.1,1.3-0.9,3.1-2.7,4.9C6.1,45,2.1,52.8,0.5,57.9
	c-1.8,5.9,1.5,11.6,5,18.3C9.1,83,15.7,89.3,17.7,90c2.8,0.8-0.3,5.4-0.3,5.4s-0.9,14.9-1,21.2c-0.1,6.3-0.9,13.3-1.8,16.8
	c-0.8,3.2,4.1,2.8,4.1,2.8s0.6,3.8,0.5,7.8c-0.3,4,1,13.7,1.3,16.4c0.3,2.8,0.5,4.7,0.3,5.6c-0.1,0.9-1.1,0.6-1.2,3.1
	c-0.1,2.6-3.8,6.2-5.3,7c-1.6,0.7-1.7,3-1.2,4.9c0.6,1.9,7.3,1.1,8.8,0.7c1.5-0.4,3.1-2.4,4.7-2.6c1.7-0.1,2.1-2.4,1.7-6
	c-0.5-3.6-1.7-2.2-1.7-5.9c0-3.5,1.4-14.1,2.8-17.7c1.4-3.6-0.3-12.9-0.3-12.9s2.4-0.1,5.1-0.3c2.8-0.1,3.5-18,3.5-18.8
	c0-0.7,1.2-0.5,1.4,0.9c0.2,1.4,3.2,10.4,4.5,13.8c1.3,3.5,3.6,2.2,4.7,2.2c1.1,0,1.2,0.1,0.9,2.7c-0.8,6.7,2.8,16.2,3.3,20.5
	c0.5,4,0.9,5.4,0.5,8.4c-0.4,2.9-1.3,9.4-1,13.7c0.3,4.2,10.3,1.9,11.7,0.8s-2.2-10-3.3-12.7c-1.2-2.7-1.9-10.4-0.4-15.7
	c1.7-5.3-1.6-17.9-1.6-17.9s2.7-0.2,4.2-0.6c1.6-0.4-0.9-4.5-1.1-7.7c-0.3-5-0.6-9.4-1.3-16.4c-0.6-7.5-2.9-20.2-2.9-20.2
	s2.6-1.3,5.1-4c2.7-2.7,8.9-14,8.8-14.7C71,70.1,73,65,74.1,63C74.8,61.7,74,60.7,73.6,56.6z M22.2,76.6c-0.7,3.7-0.5,4.7-0.5,4.7
	s-2.5-0.6-3.8-0.6c-1.3-0.1-1.5,0-2.3-0.9c-0.8-0.9-2.3-4.4-2.5-5.1c-0.3-0.7-1.1-3.1-1.3-5.7c-0.1-2.5-1.7-4.7-2.4-6.1
	c-0.7-1.4,0-2.2,2-3.1c2.1-0.9,4.4-5.3,4.4-5.3c2.8-5.1,2.8-2.7,2.5,0.3c-0.2,2.8,2.8,7.4,3.5,9.9C22.6,67.2,23.1,71.6,22.2,76.6z
	 M64.8,63.4c-1.5,1.5-1.7,7.9-3.3,11.9c-1.7,4-3.3,3.7-6.3,4.7c-1.7,0.6-1.1-0.3-2.7-0.9c0,0-1.4-1.7-1.2-2.7c0.3-1-1.2-2.8-0.5-3.6
	c0.7-0.8,1-3.1,1-5c0-1.8-0.1-3.1,1.4-5.1c1.5-2.1,3.8-8.5,3.8-8.5c0.4-7.3,1.4-2.1,1.9-0.9c0.6,1.2,4.6,5,5.7,6.3
	C65.9,61,66.3,62,64.8,63.4z"/>
</svg>
