<svg xmlns="http://www.w3.org/2000/svg" xmlns:xlink="http://www.w3.org/1999/xlink" 
	 viewBox="0 0 74.2 181.9" enable-background="new 0 0 74.2 181.9">
<path d="M73.2,52.8c-1.6-4.2-8.9-13.2-11-14.6c-2.1-1.4-3.1-4.6-4.3-6c-1.3-1.4-1.7-1.7-4.2-2.4
	c-2.5-0.7-3,0-5.1-1.8c-2-1.8-8.5-5.4-8.5-5.4s-2.9-2.3-1-6.1c1.8-3.8,1.7-5.6,0.6-6s-1-2.1-1.4-3.7c-0.4-1.4-0.5-5-4.9-6.4
	C27.5-1.4,20.7,3,20.5,6.8c-0.2,3.7,1.1,5.2,0.3,5.7c-0.7,0.6-1.2,1.8-0.4,3.8c0.9,2.1,1.1,1.5,1.8,2.1c1.7,1.5,1.4,2.8,2.5,3.4
	c1.2,0.6,1,3.1,0.7,3.5c-0.8,1.5-6.6,3-9.7,4c-3.1,1-7,3.9-7.7,7.3c-0.6,3.4-2.9,5.6-4.1,9c-1.3,3.7-4.9,9.9-3.9,12
	c0.9,2.1,4.1,13.5,6,15.9s2.3,3.2,2.8,3.8c0.6,0.7,1.9,0.4,3,1c1,0.6,0.3,2.2-1,8.5c-1.3,6.4-2.7,18.3-2.3,24.3
	c0.4,6-0.6,7.3-0.5,9.6c0.1,1.4-1.8,2.1,0.4,3.7c2.1,1.6,4.5-0.9,4.2,1.9c-0.2,2.9,0.1,17.2,1,23.5c0.9,6.4,4.2,13.8,1.8,16.5
	s-5.9,6.1-7.4,6.9c-1.5,0.8-3.7,2.3-1.7,4s7.8,2.4,10.9,1.2s2.8-1,6.1-1.8c3.3-0.7,4.1-0.6,3.3-2.9c-0.7-2.3-0.8-5-1.4-6.7
	s-0.1-1.3-1.4-2.3s-1.3-0.5-1.3-3.1s0.1-10.6,1.3-15.3c1.2-4.7,1-7.4,0.4-11.4c-0.7-4-2.3-8.3-0.7-8.6c1.7-0.3,4.1,1,4.5-2.7
	c0.5-3.7,0.5-6.8,1.8-6.1c1.3,0.7,2.7,5,2.7,6.4c0,1.4-0.7,2.7,1.8,2.7c2.4,0,5.8-2.2,6.8,1c1,3.2,3.2,6.6,4.1,12.5
	c0.8,5.9,2.3,8.7,3.6,14.9c1.3,6.2,1.9,7.9,1.2,10.1c-0.8,2-0.8,2.5-0.8,4.7c0,2.2,0.6,1.7-0.8,3.8c-1.4,2.2-6.3,6.8,0.6,7.8
	c6.8,1,9.3,0.5,10.1-1.9c0.6-2.4,1.8-5.6,0-9.5c-1.8-3.8-2.1-4.2-2.4-7.2c-0.4-2.9,1.4-24,0-27.1c-1.4-3.1-5.6-8.4-4.5-9
	c1.2-0.6,2.1,0.4,1.4-3.1c-0.7-3.5-1.2-21.1-1.5-26.2c-0.4-5.1-0.4-17.6-2.4-21.1c-2-3.5-3.2-6-1.8-5.9S64,65.8,66.1,64
	c2.4-2.1,5.7-4.8,6.9-5.4C74.4,58,74.8,57,73.2,52.8z M16.4,61.6c-0.3,1.9,0.1,5.4-0.6,7.2c-0.3,0.6-0.9,1.8-2.7,1.8s-1.5-1.3-3-4.2
	c-1.6-2.9-0.9-8.6-0.9-8.6l5.5-8.1c0.8-1.1,1.8-0.4,2.1,1.9c0.4,2.3,0.5,5.5,0.6,7C17.6,60.1,16.7,60,16.4,61.6z M58.9,56
	c-1.7,1.2-1.6,2.1-3,3.8c-1.5,1.7-3.9,4-6.2,4.4c-2.3,0.5-0.8-2.3,1-4.4c1.8-2.1,3.7-7.4,3.7-7.4c1.2-3,3.5,0.7,5.2,1.3
	C62.7,54.6,59.8,55.3,58.9,56z"/>
</svg>
