<svg xmlns="http://www.w3.org/2000/svg" xmlns:xlink="http://www.w3.org/1999/xlink" 
	 viewBox="0 0 61.4 182" enable-background="new 0 0 61.4 182">
<path d="M59.4,58.5c-0.6-5.7-0.1-11.4,0-16.1c0-4.7-8.5-8.8-11.6-10.7c-3.2-2,0-8.3,0-8.3c2.7,0.7,4.6-5.1,5.7-8.6
	c1.1-3.3,0.9-6.8-0.2-10.7c-1.1-4-8.8-5.1-13.1-2.8c-2.8,1.5-3.3,6.4-3.3,6.9c0,0.4-1.1,1-1.1,1.9c-0.2,1.5,0,4.7,0.9,5.3
	c0.9,0.6,0.9,1.7,0.4,6.7s-6.8,6.9-11.5,8.4c-4.7,1.5-8,3.3-8.8,4.2c-0.9,0.9-2.6,4-5.2,5.9c-2.6,2-7,7.9-7.5,8.6
	c-0.5,0.9-3.3,5.3-3.7,6.1c-0.4,0.6-0.2,2,0,2.3s2.5,2.3,4,5.7c1.5,3.3,13.5,18.5,15.6,19.6c2.1,1.1,0.5,2,0,4.4
	c-0.5,2.5-2.7,11.5-2.2,15.7c0.5,4-1.4,18.6-1.6,22.3c0,0.4-0.2,3.1,0.2,2c0.6-1.6-3.3,7.4-4.1,10.6c-1.1,5.1-0.1,19-0.5,25.8
	c-0.4,6.8-2.5,7.7-4.9,9.1c-2,1.2-6.9,8-4.6,8.6c6.1,1.6,11.5-1.1,13.2-1.5c1.7-0.2,1.6-1.9,1.5-4.3c-0.2-2.5,0.5-15.3,3-21.6
	c2.3-5.7,2.5-6.9,2.8-9.5c0.1-0.4,0.5-7.9,0.9-8.5c3-5.1,5.6-7.4,5.1-7.3l5.9-0.4c0,0,1.1,4.2-0.1,8.9c-1.4,4.7,0,9,0.4,11.9
	c0.4,2.8-0.5,14.3-0.4,17.3c0.1,3-3.1,8.6-1.7,10.7c0,0,0.9,0.6,3.3,0.5c2.5-0.2,3.7,0.1,8.6,0.9c5.1,0.7,8.3,0.4,10.5,0
	c2.1-0.4,1.1-2.2-1.1-2.8c-2.1-0.6-3-0.6-4.7-1.6c-1.7-1-4.9-3.8-7.3-5.4c-2.5-1.6-1.1-6.9,0-12.1c1.1-5.2,3.5-24.3,3.3-25.7
	c-0.2-1.4,0.9-1.7,2.2-1.7c1.4,0,7.7-1.7,8.4-2c0.9-0.2-0.2-4-0.6-5.6c-0.5-1.6-0.5-17.8-0.5-17.8s2.8,0.2,4-0.6
	c1.1-0.9,1-6.9,0.4-9.1c-0.6-2.1,1.5-12.7,2-18C61.7,71,60,64.3,59.4,58.5z M25,75.3c-0.2,1.9-1,3.8-3.2,2.5
	c-2.1-1.1-6.7-8.9-7.8-11.7c-1.1-2.8-2.8-7.8-3.2-8.5c-0.4-0.6-1.7-2,0-3c1.7-1.1,6.4-5.2,7.5-6.2c1.1-1,1.6-0.2,2.2,1.2
	c0,0,3.7,8.8,3.8,14C24.5,68.8,25.2,73.4,25,75.3z M53.2,82.5c-1.6-2.7-1.6-3.8-1.7-5.2c-0.2-1.5-1-5.1-2-7.3s0-10.1,0-10.1
	s-0.1,0,0.2-1.6c1.1-4.3,1.4-0.2,2.2,2.3c0.9,2.5,1.1,2.1,0.6,5.1c-0.4,2.8,0,6.2,0.6,8.1c0.6,2,1.5,4.8,1.7,8.6
	C55.2,86.3,54.7,85.1,53.2,82.5z"/>
</svg>
