<svg xmlns="http://www.w3.org/2000/svg" xmlns:xlink="http://www.w3.org/1999/xlink">
<path fill="#1562A6" d="M99.4,98.2c1,0.7,1.3,9.6,0.4,13c-0.8,3.4-1.3,7.8-1.3,7.8s-2.5,8.9-3.8,11.6c-1.3,2.7-4.2,9-4.2,9.3
	c0,0.3-2.5,2.7-2.2,4.6s-1.1,1.5-1,1.9c0.4,1.5,0.3,6.1-1.4,12.2c-1.3,4.8-2,7.7-2.9,9.3c-0.1,0.2-1.6,1.3-2.5,1.7
	c-0.9,0.4-0.1,13.6-0.1,14.1c-0.1,0.4-57.1-0.1-57.1-0.1s-3.7-13.6-3-15c0.7-1.4,0.3-1.7-0.1-2.5s-1.3-2.1-1.3-4.8
	c0.1-2.6,0.7-2.3,0-4.1c-0.7-1.7-1.3-19.6,2.2-23.4s7.1-6.8,7.6-9.6c0.5-2.8,1-2.7,0-6c-1-3.3-0.5-7.4,0.3-8.8
	c0.8-1.4,0.5-1.4,0.3-1.8c-0.2-0.4-1-2.3-0.5-3.4c0.5-1-0.6-2.3-0.6-2.3s-0.9-3.2-0.8-5c0.1-1.7-0.6-1.7-0.6-1.7s-1.1,4.6-1.9,4.8
	c-0.8,0.2-0.9,0.9-0.8,1.1s0.1,1.7-0.4,2.1S23,105,23,105s-0.5,2.1-1,2.1c-0.5,0.1-0.9,2.1-0.9,2.1s-0.9,4.9-0.7,8
	c0.1,3.1-0.9,7.4-1.2,8.4c-0.3,1.1-2,6.1-4.1,9.6s-4,7-4.4,8.4c-0.4,1.3-0.7,2.1-0.6,3.1c0,0,3.2,2.6,3.6,4.1s0.5,2.5,0.3,2.9
	c-0.2,0.4-0.5,1.3,0.3,2.7c0.8,1.4,2.1,5.3,1.3,6.4c-0.7,1.1-1.3,1.3-1.3,1.3s2.4,0.6,2.2,1c-0.2,0.4,0.8,1.1-0.7,1.8
	c-1.5,0.7-2.4,1.3-5.1,1.3s-4.3,0.2-6.1-1.5s-1.9-2.9-3.6-4.7c-1.7-1.7-0.9-3.1-0.9-3.1s1.1-8.2,0.9-8.6s-0.2-2.9-0.7-3.6
	s-0.2-1.1,0.3-3.2s1.3-24.9,1.1-24.9c-0.3,0,0.3-6.1,2.7-11c2.3-4.8,2.7-10.8,2.4-12.5c-0.3-1.7,1.5-6.9,1.9-8.2
	c0.4-1.3,1.6-3.2,0.3-7c-1.3-3.8,3.1-14.8,5.3-16.6s4.5-3.2,6.8-3.9c2.3-0.8,2.2-0.5,4.3-2.7c1.9-2.3,4.2-4.3,6.3-5.7
	c2.1-1.3,3.3-4.7,1.7-8.4c-1.5-3.6-2.1-6.9-2.1-6.9s-1.5,1-1.9,0c-0.4-1-3.2-5.2-3.8-5.5c-0.5-0.3-1.3-5.3,0.6-3.7
	c1.9,1.5-0.3-2-0.8-2.6c-0.5-0.6-0.9-2.7-1.2-3.4c-0.3-0.7-1.9-6.1-1.1-7.8c0.9-1.7,1.8-3.1,1.6-3.9s4.2-5,5.1-5.5
	c0.9-0.5,3.1-1.2,3.9-1.3c0.8-0.1,1.9-0.7,1.8-1.2s3.8-1.3,4.2-0.5c0.4,0.7,3.3,0.5,3.3,0.3s5,0.6,4.9,0.9c-0.1,0.3,2.2,1.1,2.3,2.1
	c0.1,1.1,1.7,1.7,2,1.7s2,0.9,1.8,2.5c-0.2,1.7,0.2,2.7,0.8,2.3c0.6-0.5,1.1,3.9,1,4.6c-0.1,0.7-0.5,4.9,0.5,4.9s0.3,3.4,0,6.3
	c-0.3,2.9-0.3,7.4-0.2,8.9c0.1,1.5-1.2,3.8,5.9,6.9c7.2,3.2,11.6,4.8,12.4,6.4c0.9,1.5,2.1,1.6,3.6,1.5c1.4-0.1,7.6,1.4,10,4.5
	c2.4,3.1,2.6,2.8,4,5.7c1.4,2.9,0.2,3.5,2,6c1.8,2.5,4.2,9.2,4.8,10.2c0.5,0.9,0.8,11.4,0.7,13.3C99.8,91.4,98.4,97.5,99.4,98.2z
	 M81.9,107.5c1.2-3.8-0.4-4.9-0.4-4.9l-2.2-2.4c0,0-4.2,10.3-4.1,11.1c0.5,7-1,10.3,0.3,12c0.7,1,1.7,1.5,2.1,2.9
	c0.6,2.2,0.7,3.5,0.9,4.6c0.1,0.7,0.8,0.3,0.8,0.3s1.5-7,0.7-8.7c-0.3-0.7,0.1-4.8,0.1-7.7C80,111.9,80.7,111.3,81.9,107.5z"/>
</svg>
