<?xml version="1.0" encoding="utf-8"?>
<!-- Generator: Adobe Illustrator 18.0.0, SVG Export Plug-In . SVG Version: 6.00 Build 0)  -->
<!DOCTYPE svg PUBLIC "-//W3C//DTD SVG 1.1//EN" "http://www.w3.org/Graphics/SVG/1.1/DTD/svg11.dtd">
<svg version="1.1" id="Слой_2" xmlns="http://www.w3.org/2000/svg" xmlns:xlink="http://www.w3.org/1999/xlink" x="0px" y="0px"
	 viewBox="0 0 1474.5 800" enable-background="new 0 0 1474.5 800" xml:space="preserve">
<path fill="#1562A6" stroke="#000000" stroke-miterlimit="10" d="M693.6,770c0,0,171,30,212,5s112-67,70-260s-44-152-48-174
	s-18-69-16-77s-1-14-3-22s20,7,20,7s85,18.3,153-9.3s120-55.7,140-57.7s32-13,43,0s24,21,34,21s13-4,20-2s26-3,42-39s52-62,68-76
	s27-25,25-33s3-6,9-13s27-52-7-37s-30,24-30,24s-4,2-19,7s-147,54-228,55s-254,8-267,8s-55,7-68,7s-74,15-78,47s-8,65-12,96
	s-6,182,2,214s1,54,1,54s10,5-14,9s-35,10-49,9s-33-7-39-8s-19,2-32-7s-44-3-44-3s-14,2-23-1s-38-1-43-1c-5,0-24-5-32-11
	s-74-15-103,5s-53,61-70,43s-26-24-7-42s30-32,23-43s-25-13-26-21s-13-3-13-3s6-13,0-17s-18,6-15-10s-16-19-27-16s-24,9-37-5
	s-58-15-58-15s-30,7-34,0s-62,20-85,68s-10,82-6,88s1.4,8-7.3,26s-17.7,55-14.7,69s65,69,97,81s69,21,84,41s65,49,83,49s62-9,93-10
	s184-15,205-19s53.5-24.1,102-11"/>
</svg>
