<svg xmlns="http://www.w3.org/2000/svg" xmlns:xlink="http://www.w3.org/1999/xlink" 
	 viewBox="0 0 56.8 181.5" enable-background="new 0 0 56.8 181.5">
<path d="M55.3,84.7c-0.7-1.4-2.2-2-4.3-1.5c-2,0.5-0.8,1.5-0.7-2.6s-1.1-10-1.9-12.3c-0.8-2.2,0.1-6.4,0-7.3
	c-0.1-0.8-0.2-6.7,2-14.9s-2.2-8.4-8.5-12.6s-1.7-14.9-1.3-16.2c0.4-1.3,1.2-1.1,1.7-1.1s0.8-1.4,0.8-2.2s0.1-2.5-0.2-2.6
	c-0.4-0.1-1.1-1.8-1.1-1.8s0.1-2.5-3.2-7c-3.3-4.6-9.5-2.2-12,0s-3.5,7.1-3.5,7.1s-3.8-0.2-5,0c-1.3,0.2-7.1,2.9-7.7,4.9
	s-2.2,9.1-1.2,7.5c1.1-1.6,8.1-1.8,10.9-3.7c2.7-1.9,3.6-6,3.6-5.4s0.7,1.9,1.1,3.2c0.4,1.3,1.3,2.2,2,2.5c0.7,0.2,1-0.7,2.2,2.7
	c1.3,3.5-0.5,5.5-2.9,6.4c-2.4,1-5.9,1.2-9.8,2.2c-3.9,1.1-5.9,6.3-6.2,7.6S9,43.4,7.4,45.2c-1.7,1.8-5.7,8.9-7.1,13.7
	c-1.4,4.7,2.2,5.6,3.1,5c0.8-0.6,2-0.6,2.9-0.8c0.8-0.2,7.5-4.5,8.6-4.9s1.7-0.5,2.4-0.8c0.7-0.2-0.3-1.1,1.1,3.6
	c1.4,4.6-2.5,8.2-2.5,8.2s-1.1,0.9-1.1,1.4s-1.3,3.3-3.2,5.9c-1.9,2.6-2.9,6.8-3.5,9.8c-0.6,3-0.8,3.5-1.8,4.5s1.2,1.2,1.2,1.2
	S8,92.6,8,93.4s1.1,9.2,1,9.9c-0.1,0.7,1.1,10.9,1,12.6c-0.1,1.7-1.2,10.9,1.8,16.2c3,5.4,8.9,0.4,9.3-1.3c0.4-1.7,1.7-2.4,2.7-3.5
	c1-1.1,1.1-4.9,1.1-4.9s0.1-2.4,0.2-3.9c0.2-2,0.5-6,0.4-6.4c-0.1-0.5-0.2-1.9,0-3.2c0.2-1.3,0.8-6.2,0.8-6.2s0.6,0.1,0.6,0.8
	c0,0.7,0.4,5.9,0.2,7.9c0,0.7-0.4,3.7-0.5,5.1c-0.1,1.5,0.5,4.2,0,6.1c-0.5,2-0.1,6.3,0.2,8c0.4,1.7,0.2,3.2-0.5,6.7
	c-0.7,3.6-0.8,8.8-0.6,11.3c0.2,2.5,0.2,7.6,0.2,10.7c0,3.1,0.7,6-1,7.9c-1.7,1.9-1.3,6.6-1.4,8.4c0,1.8,0.4,2.4,0,3.7
	c-0.4,1.3,2.1,1.8,3.7,2c1.6,0.2,5.1,0,6.1-0.7c1-0.7,1.5-2.1,1.3-2.6c-0.2-0.5,0.5-2,0-2.9c-0.5-0.8-1.3-2-1.3-2.9
	c0-0.8-0.7-2.5-1.4-3.2c-0.7-0.7,0.6-3.8,1-5.5c0.4-1.8,3.2-13.4,4.5-16.3c1.2-3.1,1.4-9.3,0.9-10.9c-0.5-1.5-0.5-6.3-0.8-7.4
	c-0.4-1.1,0.7-4.9,0.7-6.3s0.4-6.4,1.9-8.6c1.5-2.1,3.9-17.9,3.9-17.9s0,0,1.8-1s-0.6-1.5-0.6-3.6s-0.5-3,0-5.3s-1.5-5.7-2.5-8.1
	c-1-2.4-0.5-3.7-0.5-3.7v-0.5c0,0.6,3.1,7.5,3.1,7.5s1.2,1.4,1.5,3.9c0.4,2.5,1.2,3.3,2.9,5s4.3,0.2,6.3-0.7C58,89,56,86,55.3,84.7z
	 M15.8,51.7c0,0-4.9,1.7-3.7,0.5s3.7-6.1,3.7-6.1V51.7z"/>
</svg>
