<svg xmlns="http://www.w3.org/2000/svg" xmlns:xlink="http://www.w3.org/1999/xlink"  viewBox="0 0 131.6 182.3" enable-background="new 0 0 131.6 182.3">
<path d="M131.6,21.2L121.1,21c0-0.9,0-3.6-0.4-5.8c-3-9.6-15-6.7-16.1,1.1c-0.2,2.5,0.2,6-0.6,4.7
	c-1.1-2.1-4.6-0.8-5.8-0.6c-2.1,0.4-3,3.6-3,3.6S76,24.9,69.4,24.4c-1.1,0,2.1-2.5,2.5-3c1.7-3.4-2.1-4-5-3c-3,1-2.5-6.3-3.6-12.7
	c-1.5-6.3-7.1-6-13.7-5.6S41,5.8,40,9.6c-0.9,3.6,2.8,14.6,2.8,14.6H22.9c0,0-3.6-10.7-10.5-9.6C4,15.7,3,26,3,26H0v3l3-0.3
	c0,0-0.8,3.6,1.9,9c3.6,7.1,9.6,7.1,13.2,3.6c0.4-0.4,0.9-1.1,1.5-1.1c2.8,0.8,5.4,14.6,9.4,19.1c4.7,5,7.7,2.5,7.7,2.5
	s6.2-4.7,5.6-3.4c-0.8,3,6,14.6,7.7,20.5c1.7,5.6-0.9,11.7-6,15.5c-5,3.6-16.5,13.5-23.7,20.4c-7.5,7.1,1.5,15,1.5,15s7.7,9,16.7,15
	c9,6,2.1,9.6,2.1,9.6s-4,0.4-10.1,5.6c-6.7,5.6,3,4.6,5,4.6c2.1,0,9.4-3,9.4-3s11.3,0.4,10.3-2.1c-0.9-2.7,0.4-3.2-0.8-5.6
	c-1.5-1.5-2.5-3.4-2.5-3.4L35,124l30.6-18.8c0,0-0.6,6.3-4,17.1s-0.9,20.5,0,20.7c0.9,0.4,10.1,13.7,10.7,19.5
	c0.6,5.6-0.4,5.4-3,11.7c-2.7,6.3,2.7,8.1,2.7,8.1s9-1.7,9.6-5.6c0.6-4,0.2-13.4-0.2-13.4s-1.7-2.5-1.9-5.2
	c-0.2-2.7-0.2-14.1-4.4-20.1c-4.2-6,0-12.4,0-12.4s1.5-2.7,8.1-15.5c6.5-13.1-4.6-30.9-4.6-30.9c-10.7-9.6-3.4-26.6-3.4-26.6
	s0,0,14.1,10.7s14.5,3,15.7-2.1c1.1-5.4-0.2-32.9-0.2-32.9s-0.8,0,0,0c-0.2,0.9,0.9,12.4,9,11.7c7.5-0.8,7.1-15.5,7.1-15.5h10.1
	v-3.8h0.2L131.6,21.2L131.6,21.2z M52.2,35.8c-0.8,1.7-9.6,2.3-10.7,6c-1.1,5.4-7.3,12.4-9,10.5c-1.9-2.3-9.2-16.5-9.4-17.1
	s2.5-1.5,2.7-5.4l19.9-0.1c0,0,4,2.1,4.7,2.1C50.9,31.5,53,34.1,52.2,35.8z M92.6,52.7C86,43.1,70,37.9,70,37.9s-10.5-5.6-7.6-8.2
	l33.6-1c0,0,0.9,4,2.1,4.4c0.9,0.2,0.6,10.5,0.6,10.5S99.5,62.2,92.6,52.7z"/>
</svg>
