<svg xmlns="http://www.w3.org/2000/svg" xmlns:xlink="http://www.w3.org/1999/xlink">
			<path fill="#1562A6" d="M85.8,19.3c0.1-5.6-0.9-6.1-2-6.9c-0.3-0.2-0.7,0-0.7,0.3c0.1,1,0.5,2.9,0.7,5.2
				c0.4,6.9-3.6,15.1-3.6,15.1S85.6,25.2,85.8,19.3z M112.7,131.1c3.9,20.7-1.5,17.3-5.1,20.6c-3.6,3.3-22.9,11.6-21.8,11.6
				s5.3,20.9,5.3,20.9h-70c0,0-0.4-1.7-1.5-9.3c-1.1-7.6,1.3-13.4,4-20.2c2.7-6.8,2-10.8,1.8-12.9c-0.2-2.2-2.9-16.2-2.9-16.2
				s-3.1,14-3.9,14.9c-0.7,0.9-3.1,8.2-2.2,13.4c0.9,5.2-0.9,30.2-0.9,30.2H4.1c0,0-0.7-3.6-3.3-14S2.6,141,3,139.7
				s3.1-18.8,3.5-20.2s5.3-27.5,6-33.1c0.7-5.6,2.4-6.2,4.4-8.2s6.4-2,18-7.4s8-5.5,8.7-11.1c0.7-5.7-3.1-7.9-6.4-9.1
				c-3.3-1.2-2.8-2.6-2.8-2.6s-3.3-25.4,1-35.5c2.8-6.5,10.3-9.9,13.3-9.8c8.7,0.2,8.4-0.4,10.2-1.5s6.5-1.3,10.5-1.1
				c4,0.2,10,6.8,10,6.8s5.7-7.3,14.2-6.8c8.6,0.5,12,9.5,12.2,20.2C106,31,94.7,37.9,89.1,40.9c-5.6,2.9-4.2,1.1-1.3,11.3
				s-3.1,10.5-3.6,12.9c-0.5,2.4-2,6.4,4.4,6.4s10.5,8.8,11.3,10.6C100.5,83.9,108.9,110.4,112.7,131.1z M94.1,141.7
				c0-0.9,3.9-0.6,2-7.6c-1.8-7.1-8.4-26.6-9.7-27.5c0,0-7.1,15.8-9,21c-0.4,1.2-1.9,5.1-1.7,6.5c0.2,1.5,0.4,6.4,2.1,8.7
				s2.5,4.4,3.3,5.3C81.8,149,94.1,142.6,94.1,141.7z M77.4,65.4c0.4-0.9,0.6-3.1-1.2-5.1c-1.7-2-6.5,1.8-6.5,1.8s2.9,3.1,3.9,4.4
				C74.7,67.7,77,66.2,77.4,65.4z"/>
</svg>
