<svg xmlns="http://www.w3.org/2000/svg" xmlns:xlink="http://www.w3.org/1999/xlink" viewBox="0 0 61.2 181.5">
	<path d="M66.6,178.9c-1.3-1.3-1.8-3.5-2-5.4c-0.2-1.9-2.1-4.9-3.8-7.1s-3.7-7.2-6.2-17.8
	c-2.5-10.7-6-15.8-10-19.2s-3-13-3.2-14.9c-0.2-1.9,2.2-3.2,3.8-4.8c1.6-1.7,1-3.8,0.7-6.7c-0.3-2.8-2-7.2-1.3-7.2
	c0.7,0,0.1-2.3,0.2-4.5c0.1-2.2,0.1-4.8,0.9-7.7s0.3-11.9,0.1-14.1c-0.2-2.2-0.5-4.1,0-6.2S45.6,51.4,46.3,43
	c0.7-8.3-5.5-8.3-7.7-8.9c-2.2-0.6-2.4-4.7-2.3-6.5c0.1-1.8,0.3-3.7-0.4-4.5s-0.1-3.3,0.5-4.9c0.2-0.5,1-5.3,0.8-6
	c-0.6-3.3-0.3-0.5-0.6-3.3c-0.3-2.8-4.6-6.7-9.3-8.5c-4.7-1.8-9.8,4.2-9.8,4.2s-2.5,1.6-2.9,5.8C14.3,14.4,17,22,17.5,23.1
	c1.3,2.5-1.7,1.9-2.8,4.8c-1.7,4.8-0.6,4.4-4.6,5.5c-4,1.1-4,3.5-4.1,6.7c-0.1,3.2-0.4,5.4-2.2,8.6c-1.8,3.2-0.8,6.9-0.1,7.9
	s2.7,2.5,2.7,5.3c0,2.8-0.3,5.3-1.3,11.1S4.6,85.5,4.2,96.9c-0.4,11.4,4.6,9.1,5,10.8c0.3,1.1,1.1,2.6,1.2,5.1
	c0.2,2.5,6.1,16.9,7.2,19.9s0.4,4.3-0.3,7.9s0.1,18.2,0,24.1c-0.1,5.9-2.8,4.8-6.7,8.2c-3.9,3.4-5,3.3-8.3,3.3
	c-3.3,0.1-2.4,2.1-2.3,3.9c0.2,1.8,6.7,2.6,10.4,1.9c3.8-0.7,12.9-0.9,15-1.9c3.2-1.6,1.1-4.8-0.3-9.3c-1.4-4.4,2.4-19.1,3.8-23.8
	c1.3-4.8-0.3-9-0.9-10.9s0.4-3.5,0.9-6.6c0.2-1.1,0.2-3.2,0-5.5c1.1,4.8,4.9,9,7,11.9c2.4,3.3,1.8,2.4,2.5,6.2s10.2,14.9,12,18.3
	s2.5,6.5,3.8,12.7c1.3,6.2,1.5,5.3,1.6,10c0.1,4.7,1.3,4.2,6.8,4.3S67.9,180.2,66.6,178.9z M9.5,104.3c0,0-0.2,0.3-0.7,0.1
	s-0.4-0.6-0.7-1.9c-0.2-1.3-0.6-4.3,0.3-4.5c0.9-0.2,1,2.3,1,2.3V104.3z M10.1,90.2c-0.2,0.5-0.1,5.4-0.4,5.3
	c-0.3-0.1-0.8-1.6-1.3-2.3c-0.6-0.7,0.5-3.1,0.5-3.1s0,0,0.3-0.4C9.4,89.4,10.2,89.7,10.1,90.2z M37.8,81.6c0,0-2.9-3.4-6.6-7.2
	c-3.7-3.8,3.7-16.7,3.7-16.7s1.7-3,1.7-3.3s1.5,0.1,1.3,1.4s0.6,4.6,0.9,8.1c0.3,3.5-0.1,1.8-0.3,5.3c-0.2,3.6,0.4,7.4,0.7,11
	C39.4,83.9,37.8,81.6,37.8,81.6z"/>
</svg>
