<svg xmlns="http://www.w3.org/2000/svg" xmlns:xlink="http://www.w3.org/1999/xlink" viewBox="0 0 61.2 181.5">
	<path d="M19.3,3.2c0,0-3.6,2.9-4,8.3s0.4,9.1,0,12.9s1.5,7.1-0.9,7.1S5.8,32.8,6,38.2c0.3,5.2,0.4,3.6,1.1,8
	c0.2,1.4,3.8,9.1,7.9,14.5c2.4,3.1,3.8,2.8,4.9,3.6c0.8,0.6,1.1,2.2,2.4,4.4c3,5.1,3.4,6.8,2.4,9.4s-1.6,7.4-1.1,9.4
	s-1.2,8.9-2.3,11.9s-1.4,11.8-1.3,18.4s-0.3,14-1.4,15.5s-6.4,9.3-6.3,15.3s0.5,18.1-1.4,20.8s-4.5,6-6.5,7s-6.5,4.1-3.2,6.1
	s8.1,0.4,10.4,0s2.8-0.5,6-1s4.9-2,3.8-4.5s-3.4-6.5-2-11.8s4.2-10.1,5.9-12.1c1.6-2,2-5.8,2.1-9.1s0.1-4.5,1.9-7s4-9,5.5-13.5
	s2.9-7,4-8.9s3.1-7.5,3.4-9.4s1.1-3.5,1.6-2s0.3,5.8,1.8,9.9s2.6,7.5,2.5,9.4s-0.5,4.8,0.8,7.6c1.3,2.9,2.4,4.4,1.9,6.4
	s-1.6,8.5,0.1,15s2.4,9.4,2.5,11.8s0.9,4.3,0,7.1s-2.8,7.5-1.1,9s2.3,0.6,5.1,1.9s10.9,3.3,11.6,0.6s0.8-3.1-1.1-4.5
	s-4.8-3.9-5.3-5.8s-1.4-2.1-1.9-3s0.6-3.4,0.9-5.9s2.8-19,1.9-22c-0.9-3-3.9-15.8-1.9-19.4S68,98.9,61.9,86S50.4,64.7,49.8,64.2
	s-2.1-1.9,0.8-1.8s7.3-0.8,10-0.6s4.5-1.3,2.8-5.5c-1.8-4.3-6.5-9-9.1-11s-3.3-4.4-3.5-5.3S45.1,33.9,43,34s-4.4,0.6-2.8-3.4
	s3.8-12.5,1.4-18.8S32.8-5.5,19.3,3.2z"/>
</svg>
