<svg xmlns="http://www.w3.org/2000/svg" xmlns:xlink="http://www.w3.org/1999/xlink" viewBox="0 0 67.5 182">
<path id="teen_1_" fill="#1562A6" d="M67.5,55c-0.3-2.8,0.4-3-3.2-7.9c-3.6-5.1-7.5-8.9-8.6-10.1c-1.1-1.2-1.6-3.7-4.1-6
	c-2.5-2.3-4.7-4.6-8-4c-3.5,0.5-8.3,0.8-8.4-1.7c-0.1-2.6,2.9-2.5,3.1-4.4c0.1-1.9,0.1-8.8-0.8-9.8c-1-1.1-1.2-4.7-2.6-6.4
	c-0.6-0.7-3.7-4.3-6.6-4.6c-3-0.1-6,0-6,0S15.6,1.4,13,9c-0.5,1.6-0.4,6.8-0.6,8.8c-1.5,11.6-0.4,10-0.4,13.9
	c0,3.9-2.5,10.7-1.3,11.5c0.8,0.6,2.5,0.4,2.5,0.4s-1.4,3.4-2,4.2c-0.6,1.1-9,12-10.1,15.1c-1.1,3.2-2.3,5.8,1.3,8.8
	c3.5,3,11.1,8.3,13.8,9.5c2.6,1.3,6.7,2.6,7.4,2.6s0,14,0.5,19.3c0.5,5.3,2.9,19.4,2.3,24.9c-0.5,5.5-0.8,18,1.1,23.1
	c1.9,5.1,6.1,15.9,6,20.1c-0.2,4.2-1.9,10.1,1.3,10.3c3.2,0.2,8.2,0.7,9,0c0.8-0.7,1.1-2.3,0-4.4c-1.1-2.1-1.9-5.1-2.6-6.9
	s-1.6-4.4-2.1-4.4c-0.5,0-2.1-10.4-1.9-13.9c0.3-3.6-0.6-12.3-1.2-14.1c-0.5-1.7-0.7-4.8-0.1-7.6c0.6-3,1.4-13,1.6-15.7
	c0.2-2.3,0.6-3.7,1.1-5.2c0.4-1.5,2.1-9,2.1-10.4s3.2,8.9,5.1,13.7s4.2,14,4,17.5c-0.3,3.4,0.3,7.5,1.6,12.6s2,13.2,1.5,16.5
	c-0.5,2.9-0.4,3.9-0.6,5.3c-0.3,1.3-0.1,2.1-1.2,3.9c-1.1,1.9-4.4,9-3.2,10.6c1.4,1.6,8.5,3.3,9.6-0.2c1.2-3.6,1.9-5.4,1.9-7.5
	c0-2.1-0.5-5.9,0-7.8c0.7-2.6,0.6-4.3,0.8-5.6c0.1-0.6-1-3.8-0.5-5.8c0.4-2,1.4-13.7,1.2-16.9c-0.1-3.3-1-7.8-2-10s-1.1-4.9-1-8.6
	c0.1-3.2-0.2-15.9-1-21.7c-0.7-5.8-1.5-10.6,0-11.3c1.5-0.8,6.5-4,7.3-8.9C64.8,69.9,67.8,57.8,67.5,55z M24.9,77.9
	c0,0-0.5,1.6-3,0.2c-2.4-1.4-9.4-7.5-10.9-9s-3.2-2.6-1.7-4c1.5-1.4,7.1-8,8.3-9.6c1.3-2,1.8-3.5,4.1-2.5c0,0,7.7,8.5,7.3,13.1
	C28.6,70.7,24.9,77.9,24.9,77.9z M60.4,56.2c-0.3,4.2-0.3,7.5,0,10.1c0.3,2.4-1,6.7-2,7.6c-0.8,0.7-3,1.6-4.1,0.2
	C54,73.6,54,70.9,54,70.9c-0.3-2.4-0.7-9,1.5-16.4c1.1-3.5-1.3-6.7-1.8-7.4c1.2,1.4,6,4.8,6.8,5.8C61.2,53.9,60.5,54.7,60.4,56.2z"
	/>
</svg>
