<?xml version="1.0" standalone="no"?>
<!DOCTYPE svg PUBLIC "-//W3C//DTD SVG 1.1//EN" "http://www.w3.org/Graphics/SVG/1.1/DTD/svg11.dtd" >
<svg xmlns="http://www.w3.org/2000/svg">
<metadata></metadata>
<defs>
<font id="f37_gingeritalic" horiz-adv-x="1282" >
<font-face units-per-em="2048" ascent="1638" descent="-410" />
<missing-glyph horiz-adv-x="552" />
<glyph unicode="&#xfb01;" horiz-adv-x="1175" d="M174 786l33 187h143l39 225q26 147 114.5 232.5t241.5 85.5q84 0 158 -23l-31 -176q-47 14 -114 14q-72 0 -114.5 -37.5t-59.5 -126.5l-35 -194h633l-172 -973h-197l139 786h-436l-139 -786h-199l139 786h-143zM1012 1274q0 60 44.5 102.5t104.5 42.5q47 0 78 -31t31 -77 q0 -59 -45.5 -102.5t-106.5 -43.5q-47 0 -76.5 31.5t-29.5 77.5z" />
<glyph unicode="&#xfb02;" horiz-adv-x="1202" d="M174 786l33 187h143l39 225q26 147 114.5 232.5t241.5 85.5q84 0 158 -23l-31 -176q-47 14 -114 14q-72 0 -114.5 -37.5t-59.5 -126.5l-35 -194h436l96 543h197l-213 -1207q-14 -81 5.5 -116t88.5 -35q31 0 49 2l-30 -172q-62 -15 -111 -15q-121 0 -176.5 71.5 t-32.5 203.5l94 538h-436l-139 -786h-199l139 786h-143z" />
<glyph horiz-adv-x="2048" />
<glyph horiz-adv-x="2048" />
<glyph unicode="&#xd;" horiz-adv-x="2048" />
<glyph unicode=" "  horiz-adv-x="552" />
<glyph unicode="&#x09;" horiz-adv-x="552" />
<glyph unicode="&#xa0;" horiz-adv-x="552" />
<glyph unicode="!" horiz-adv-x="655" d="M219 96q0 59 45.5 101.5t106.5 42.5q47 0 76.5 -30.5t29.5 -76.5q0 -59 -45 -102t-106 -43q-47 0 -77 31t-30 77zM352 416l49 573l95 527h204l-94 -527l-151 -573h-103z" />
<glyph unicode="&#x22;" horiz-adv-x="888" d="M358 991l62 525h219l-125 -525h-156zM721 991l61 525h219l-124 -525h-156z" />
<glyph unicode="#" horiz-adv-x="1253" d="M150 502l28 164h246l88 278h-233l28 166h256l115 358h166l-113 -358h293l115 358h166l-113 -358h194l-28 -164h-219l-88 -280h204l-28 -164h-228l-118 -367h-166l116 367h-292l-119 -367h-166l117 367h-221zM592 666h293l88 280h-293z" />
<glyph unicode="$" horiz-adv-x="1167" d="M123 229l158 146q52 -85 114 -139t154 -68l94 532q-52 23 -88 42.5t-78.5 51.5t-68 66.5t-43 84t-17.5 108.5q0 182 119.5 314t320.5 165l27 149h182l-24 -143q171 -19 297 -139l-146 -160q-82 82 -186 102l-86 -487q52 -22 88.5 -41t79 -50.5t68.5 -66t43.5 -85.5 t17.5 -111q0 -195 -126 -335t-325 -179l-26 -150h-183l25 141q-130 12 -232 76t-159 176zM565 1108q0 -111 117 -176l72 403q-90 -25 -139.5 -85t-49.5 -142zM733 188q92 35 146.5 105.5t54.5 152.5q0 107 -123 177z" />
<glyph unicode="%" horiz-adv-x="1865" d="M303 1114q0 115 66.5 216.5t173 160.5t221.5 59q140 0 233 -95t93 -234q0 -115 -66.5 -216.5t-173 -161t-221.5 -59.5q-140 0 -233 95.5t-93 234.5zM430 0l1100 1516h178l-1100 -1516h-178zM481 1135q0 -78 49.5 -130.5t126.5 -52.5q100 0 177 74.5t77 173.5 q0 77 -50.5 129.5t-127.5 52.5q-100 0 -176 -74t-76 -173zM1047 301q0 115 66 216.5t172.5 160.5t221.5 59q140 0 233 -95t93 -234q0 -115 -66.5 -216.5t-173 -161t-221.5 -59.5q-140 0 -232.5 95.5t-92.5 234.5zM1225 322q0 -78 49.5 -131.5t126.5 -53.5q100 0 177 75.5 t77 174.5q0 76 -50 128t-128 52q-100 0 -176 -72.5t-76 -172.5z" />
<glyph unicode="&#x26;" horiz-adv-x="1325" d="M182 373q0 145 81 262t237 170q-75 38 -113.5 112.5t-38.5 163.5q0 90 39.5 174.5t106.5 147.5t161 101t197 38q164 0 258 -98l-131 -152q-67 64 -164 64q-107 0 -183.5 -73t-76.5 -181q0 -88 56.5 -145.5t156.5 -57.5h231l43 244h209l-43 -244h172l-34 -197h-172 l-89 -505h172l-34 -197h-609q-202 0 -317 103t-115 270zM397 414q0 -107 74.5 -163t196.5 -56h206l91 507h-220q-51 0 -98 -8t-93.5 -28.5t-80.5 -52t-55 -82.5t-21 -117z" />
<glyph unicode="'" horiz-adv-x="526" d="M358 991l62 525h219l-125 -525h-156z" />
<glyph unicode="(" horiz-adv-x="759" d="M182 385q0 147 31 283.5t87 248t126 208t154.5 175t166.5 137t168 103.5l68 -158q-78 -43 -155 -103t-157 -150.5t-140 -193.5t-98 -239t-38 -280q0 -121 27 -233t71.5 -195.5t95.5 -144.5t105 -99l-123 -156q-77 50 -144 123.5t-123 172t-89 228t-33 273.5z" />
<glyph unicode=")" horiz-adv-x="759" d="M-25 -256q76 42 151.5 101.5t156.5 151t142 195.5t100.5 241.5t39.5 283.5q0 231 -90 407t-211 258l125 158q76 -49 142.5 -122.5t122.5 -172t89 -228.5t33 -274q0 -175 -45.5 -336t-117.5 -283t-170.5 -228.5t-195.5 -179t-202 -128.5z" />
<glyph unicode="*" horiz-adv-x="851" d="M276 1059l222 123l-183 106l91 127l180 -117l30 218h150l-45 -218l211 136l55 -123l-219 -119l193 -115l-97 -127l-186 125l-33 -217h-147l45 219l-215 -141z" />
<glyph unicode="+" horiz-adv-x="1290" d="M211 612l33 191h446l80 448h191l-80 -448h448l-33 -191h-448l-80 -448h-190l79 448h-446z" />
<glyph unicode="," horiz-adv-x="663" d="M186 -250l19 103q42 7 84.5 45t56.5 92q-8 -2 -24 -2q-43 0 -72 30t-29 76q0 60 45.5 103t108.5 43q52 0 78 -36.5t26 -97.5q0 -74 -37 -155t-106.5 -140t-149.5 -61z" />
<glyph unicode="-" horiz-adv-x="854" d="M213 459l33 188h588l-33 -188h-588z" />
<glyph unicode="." horiz-adv-x="661" d="M223 96q0 59 45.5 101.5t106.5 42.5q46 0 75 -30t29 -75q0 -61 -44 -104t-105 -43q-47 0 -77 31t-30 77z" />
<glyph unicode="/" horiz-adv-x="1038" d="M4 0l1098 1516h196l-1097 -1516h-197z" />
<glyph unicode="0" horiz-adv-x="1200" d="M196.5 369q-0.5 87 14.5 184l78 442q19 110 67 207.5t120.5 174t175 121t220.5 44.5q91 0 165 -27.5t122.5 -76.5t79 -117.5t35 -150.5t-9.5 -175l-78 -442q-21 -118 -66.5 -219.5t-116.5 -183.5t-175.5 -129.5t-231.5 -47.5q-99 0 -175.5 29.5t-122.5 82t-73.5 125 t-28 159.5zM403 414.5q0 -66.5 19 -126t71 -92t136 -32.5q81 0 142.5 30t102 87t66 126t41.5 160l70 400q16 73 11.5 142t-25 122.5t-71.5 86t-128 32.5q-75 0 -136.5 -30t-103.5 -83.5t-69.5 -121t-41.5 -148.5l-69 -400q-15 -86 -15 -152.5z" />
<glyph unicode="1" horiz-adv-x="768" d="M293 1317l35 199h460l-266 -1516h-209l232 1317h-252z" />
<glyph unicode="2" horiz-adv-x="1146" d="M74 0l35 199l520 440q143 121 217.5 197.5t114.5 152.5t40 158q0 97 -57 157t-158 60q-108 0 -188 -68t-121 -194h-203q60 210 203 325t344 115q179 0 288.5 -95.5t109.5 -260.5q0 -86 -26.5 -165.5t-79.5 -153.5t-115 -137.5t-150 -139.5l-463 -393h649l-35 -197h-925z " />
<glyph unicode="3" horiz-adv-x="1222" d="M209 438h209q-15 -129 43 -201.5t174 -72.5q59 0 114 19t102.5 57t76 103t28.5 149q0 112 -73 168.5t-207 56.5l33 192h71q116 0 193.5 76.5t77.5 185.5q0 81 -50.5 133t-136.5 52q-106 0 -176 -73.5t-92 -182.5h-207q38 191 175 316.5t337 125.5q169 0 265 -95.5 t96 -244.5q0 -127 -67 -229.5t-189 -159.5q172 -83 172 -293q0 -116 -46.5 -218.5t-124.5 -174t-183 -113t-220 -41.5q-208 0 -315.5 131t-79.5 334z" />
<glyph unicode="4" horiz-adv-x="1220" d="M117 258l33 182l878 1076h211l-188 -1070h155l-32 -188h-156l-45 -258h-205l45 258h-696zM379 446h467l131 742h-2z" />
<glyph unicode="5" horiz-adv-x="1210" d="M170 440h209q-1 -52 13 -99t42.5 -87.5t80.5 -65t120 -24.5q162 0 271.5 115t109.5 280q0 119 -69.5 193.5t-190.5 74.5q-72 0 -147 -26.5t-134 -81.5l-133 110l240 687h710l-43 -193h-532l-129 -362q105 51 227 51q187 0 298.5 -121t111.5 -307q0 -126 -51 -240 t-135.5 -195t-198 -128.5t-234.5 -47.5q-205 0 -326 132.5t-110 334.5z" />
<glyph unicode="6" horiz-adv-x="1191" d="M166 393q0 91 39 184.5t131 223.5l504 715h225l-406 -582q72 27 140 27q168 0 279.5 -123t111.5 -299q0 -112 -50 -217t-132 -181t-191 -122t-223 -46q-185 0 -306.5 121t-121.5 299zM369 426q0 -112 73 -188t187 -76q142 0 251 106t109 248q0 111 -70.5 186.5 t-181.5 75.5q-144 0 -256 -106t-112 -246z" />
<glyph unicode="7" horiz-adv-x="1085" d="M147 0l838 1317h-713l35 199h932l-35 -199l-831 -1317h-226z" />
<glyph unicode="8" horiz-adv-x="1286" d="M193 424q0 152 82.5 284t222.5 220q-47 71 -47 174q0 116 65.5 218.5t173 162t225.5 59.5q144 0 236 -95t92 -237q0 -156 -125 -284q71 -60 111.5 -154t40.5 -199q0 -158 -89 -297.5t-234.5 -221t-307.5 -81.5q-194 0 -320 130t-126 321zM397 449q0 -121 76.5 -204 t198.5 -83q156 0 275.5 117t119.5 270q0 121 -77 204t-199 83q-156 0 -275 -117t-119 -270zM653 1120q0 -68 35 -112q68 18 131 18q60 0 137 -18q82 76 82 178q0 73 -42 120.5t-113 47.5q-93 0 -161.5 -70t-68.5 -164z" />
<glyph unicode="9" horiz-adv-x="1191" d="M268 975q0 149 83.5 280.5t221.5 209t291 77.5q185 0 306.5 -121t121.5 -301q0 -89 -36.5 -177.5t-133.5 -227.5l-504 -715h-225l406 580q-66 -25 -131 -25q-174 0 -287 122.5t-113 297.5zM469 999q0 -111 70 -186.5t182 -75.5q94 0 179 48t137.5 129.5t52.5 172.5 q0 112 -73.5 189.5t-187.5 77.5q-141 0 -250.5 -107t-109.5 -248z" />
<glyph unicode=":" horiz-adv-x="661" d="M223 96q0 59 45.5 101.5t106.5 42.5q46 0 75 -30t29 -75q0 -61 -44 -104t-105 -43q-47 0 -77 31t-30 77zM352 827q0 59 45.5 102.5t106.5 43.5q46 0 75 -31t29 -76q0 -61 -44 -104t-105 -43q-47 0 -77 31t-30 77z" />
<glyph unicode=";" horiz-adv-x="663" d="M186 -250l19 103q42 7 84.5 45t56.5 92q-8 -2 -24 -2q-43 0 -72 30t-29 76q0 60 45.5 103t108.5 43q52 0 78 -36.5t26 -97.5q0 -74 -37 -155t-106.5 -140t-149.5 -61zM350 827q0 59 45.5 102.5t106.5 43.5q46 0 75 -31t29 -76q0 -61 -43.5 -104t-105.5 -43q-47 0 -77 31 t-30 77z" />
<glyph unicode="&#x3c;" horiz-adv-x="927" d="M125 709l825 696l117 -135l-670 -561l475 -564l-167 -133z" />
<glyph unicode="=" horiz-adv-x="1288" d="M182 389l33 191h1063l-33 -191h-1063zM262 838l33 190h1063l-33 -190h-1063z" />
<glyph unicode="&#x3e;" horiz-adv-x="927" d="M109 145l671 564l-473 561l166 135l580 -696l-824 -697z" />
<glyph unicode="?" horiz-adv-x="1101" d="M324 1083q33 198 176 328.5t350 130.5q172 0 273.5 -96.5t101.5 -257.5q0 -57 -10.5 -106.5t-27 -87t-44.5 -71.5t-55 -58.5t-68.5 -50t-74 -42t-81.5 -39.5q-97 -45 -142.5 -85.5t-59.5 -119.5l-23 -127h-205l25 140q28 163 132 244q47 37 164 89l1 1h1h1l1 1h1l1 1h1 l1 1h1l2 1q51 22 81.5 38t66.5 41t55 50.5t32 63.5t13 85q0 90 -58 140.5t-151 50.5q-116 0 -190 -72.5t-95 -192.5h-196zM356 96q0 59 44.5 101.5t105.5 42.5q47 0 77.5 -30.5t30.5 -76.5q0 -59 -45 -102t-106 -43q-47 0 -77 31t-30 77z" />
<glyph unicode="@" horiz-adv-x="1976" d="M152 225q0 206 65.5 385t175 305.5t252 217t298.5 134.5t312 44q145 0 274.5 -44t230 -126t159.5 -210.5t59 -287.5q0 -176 -64.5 -335.5t-181 -260t-255.5 -100.5q-93 0 -147.5 48.5t-57.5 133.5q-72 -84 -164.5 -121t-183.5 -37q-155 0 -244.5 99t-89.5 252 q0 134 63.5 247.5t176 180.5t249.5 67q177 0 260 -127l21 113h182l-96 -543q-11 -64 8 -99.5t66 -35.5q69 0 131.5 68t98.5 175.5t36 221.5t-37.5 212.5t-106.5 171.5t-174.5 114.5t-234.5 41.5q-124 0 -247 -32.5t-240.5 -103.5t-207 -172t-144 -250t-54.5 -326 q0 -285 170 -448t442 -163q241 0 451 127l67 -131q-128 -76 -263.5 -122t-299.5 -46q-159 0 -297 52t-239.5 148t-160 241t-58.5 321zM770 346q0 -95 53.5 -154t149.5 -59q130 0 218.5 89t88.5 212q0 95 -58 157t-157 62q-128 0 -211.5 -89.5t-83.5 -217.5z" />
<glyph unicode="A" horiz-adv-x="1429" d="M4 0l862 1516h230l329 -1516h-229l-72 354h-696l-199 -354h-225zM537 551h544l-143 711z" />
<glyph unicode="B" horiz-adv-x="1226" d="M174 0l266 1516h420q214 0 327 -86t113 -244q0 -290 -280 -387q108 -27 162.5 -108.5t54.5 -194.5q0 -125 -50 -222t-137.5 -155.5t-198.5 -88.5t-241 -30h-436zM418 197h221q85 0 153.5 15.5t122.5 48.5t83.5 89.5t29.5 134.5q0 104 -78.5 156.5t-226.5 52.5h-217z M541 891h239q62 0 113.5 12t96 39.5t70 78t25.5 120.5q0 178 -249 178h-220z" />
<glyph unicode="C" horiz-adv-x="1464" d="M186 643q0 179 78 345t206.5 286.5t301 193t354.5 72.5q166 0 301.5 -61.5t225.5 -175.5l-172 -132q-66 86 -165 132.5t-218 46.5q-133 0 -261.5 -57t-224 -149.5t-154.5 -217t-59 -252.5q0 -213 138 -361.5t346 -148.5q116 0 230 46t210 126l113 -137 q-273 -226 -586 -226q-189 0 -341.5 87.5t-237.5 241t-85 341.5z" />
<glyph unicode="D" horiz-adv-x="1470" d="M174 0l266 1516h418q313 0 502.5 -170.5t189.5 -462.5q0 -197 -76 -364.5t-206 -280t-305.5 -175.5t-372.5 -63h-416zM418 197h194q119 0 225.5 24.5t199 76.5t159.5 128.5t105 187t38 244.5q0 97 -28.5 174.5t-78.5 130t-120.5 87.5t-152 51t-175.5 16h-170z" />
<glyph unicode="E" horiz-adv-x="1167" d="M174 0l266 1516h885l-35 -199h-676l-73 -428h561l-35 -197h-561l-88 -495h676l-35 -197h-885z" />
<glyph unicode="F" horiz-adv-x="1130" d="M174 0l266 1516h891l-35 -199h-682l-73 -428h565l-35 -197h-565l-123 -692h-209z" />
<glyph unicode="G" horiz-adv-x="1685" d="M186 639q0 181 78.5 349t207.5 288.5t301.5 193t354.5 72.5q168 0 309 -64.5t234 -181.5l-158 -145q-65 98 -176.5 148.5t-238.5 50.5q-136 0 -265 -56t-224.5 -148.5t-153.5 -220t-58 -263.5q0 -140 60 -253t173 -179t259 -66q99 0 189.5 29.5t168 87.5t135 152 t84.5 214h-538l35 197h743l-23 -131q-28 -161 -101.5 -298t-180.5 -234.5t-248.5 -152.5t-298.5 -55q-195 0 -348 87.5t-236.5 239.5t-83.5 339z" />
<glyph unicode="H" horiz-adv-x="1585" d="M174 0l266 1516h209l-108 -619h819l108 619h209l-266 -1516h-209l123 700h-819l-123 -700h-209z" />
<glyph unicode="I" horiz-adv-x="557" d="M174 0l266 1516h209l-266 -1516h-209z" />
<glyph unicode="J" horiz-adv-x="546" d="M-170 -446l35 192h14q48 0 86 9t66.5 24t51.5 41t38 53t28 68t21.5 78t17.5 90l248 1407h211l-246 -1393q-19 -101 -28 -143.5t-33 -108t-59 -113.5q-145 -204 -439 -204h-12z" />
<glyph unicode="K" horiz-adv-x="1284" d="M174 0l266 1516h209l-119 -680l703 680h258l-801 -758l588 -758h-270l-508 659l-117 -659h-209z" />
<glyph unicode="L" horiz-adv-x="1142" d="M174 0l266 1516h209l-231 -1319h712l-34 -197h-922z" />
<glyph unicode="M" horiz-adv-x="1847" d="M174 0l266 1516h285l338 -703l592 703h284l-266 -1516h-211l221 1249l-567 -661h-184l-328 661l-221 -1249h-209z" />
<glyph unicode="N" horiz-adv-x="1689" d="M174 0l266 1516h271l657 -1166l205 1166h209l-266 -1516h-218l-696 1241l-219 -1241h-209z" />
<glyph unicode="O" horiz-adv-x="1716" d="M186 641q0 177 77 343.5t205 288.5t301.5 195.5t358.5 73.5q194 0 346.5 -88t236 -241t83.5 -341q0 -180 -79 -347.5t-208 -287.5t-301 -192t-352 -72q-143 0 -268 51t-212.5 139.5t-137.5 212.5t-50 265zM397 668q0 -215 138 -359.5t352 -144.5q135 0 262.5 55 t222.5 146t153 217.5t58 261.5q0 215 -136 360.5t-353 145.5q-109 0 -214.5 -36t-191.5 -101t-152 -149.5t-102.5 -187.5t-36.5 -208z" />
<glyph unicode="P" horiz-adv-x="1241" d="M174 0l266 1516h461q218 0 341.5 -103.5t123.5 -296.5q0 -266 -170.5 -422.5t-466.5 -156.5h-252l-94 -537h-209zM512 735h248q180 0 286.5 86t106.5 258q0 115 -73 176.5t-218 61.5h-248z" />
<glyph unicode="Q" horiz-adv-x="1701" d="M188 649q0 177 77 342t204.5 285.5t301.5 193t359 72.5q193 0 345.5 -86t236.5 -237t84 -340q0 -210 -102.5 -385.5t-309.5 -296.5h334l-35 -197q-530 -2 -833 -2q-142 0 -265 49t-210 134.5t-137 206.5t-50 261zM399 674q0 -212 138.5 -348t355.5 -136q136 0 262.5 51 t221 138t151.5 211t57 262q0 215 -135.5 356.5t-351.5 141.5q-138 0 -267 -55.5t-223.5 -147t-151.5 -216.5t-57 -257z" />
<glyph unicode="R" horiz-adv-x="1318" d="M174 0l266 1516h557q205 0 321 -86.5t116 -262.5q0 -209 -115 -336.5t-328 -158.5l277 -672h-240l-268 659h-260l-117 -659h-209zM535 858h346q163 0 251.5 61t88.5 211q0 96 -65 141.5t-195 45.5h-347z" />
<glyph unicode="S" horiz-adv-x="1101" d="M82 229l158 146q29 -45 56 -78t66 -65.5t89.5 -50t109.5 -17.5q141 0 236.5 85.5t95.5 196.5q0 56 -32.5 99.5t-84 73t-114 56.5t-125 58.5t-114 71t-84 103t-32.5 145.5q0 210 153 349.5t400 139.5q219 0 369 -143l-146 -160q-108 111 -266 111q-135 0 -214 -68.5 t-79 -173.5q0 -51 25 -91t66 -66t93.5 -51.5t107.5 -47t107.5 -53.5t93.5 -69.5t66 -96.5t25 -133q0 -150 -75.5 -271t-206.5 -188.5t-291 -67.5q-150 0 -269 66t-184 190z" />
<glyph unicode="T" horiz-adv-x="1257" d="M272 1317l35 199h1176l-35 -199h-481l-232 -1317h-211l232 1317h-484z" />
<glyph unicode="U" horiz-adv-x="1611" d="M276 366q-10 57 -10 123q0 84 17 181l149 846h209l-135 -773q-20 -111 -20 -201q0 -378 348 -378q432 0 534 579l135 773h211l-149 -846q-40 -225 -150.5 -384t-266.5 -236t-347 -77q-142 0 -251 44t-179.5 131.5t-94.5 217.5z" />
<glyph unicode="V" horiz-adv-x="1462" d="M287 1516h231l258 -1256l703 1256h229l-870 -1516h-215z" />
<glyph unicode="W" horiz-adv-x="2095" d="M287 1516h229l131 -1217l570 1217h192l137 -1217l565 1217h230l-739 -1516h-211l-144 1147l-547 -1147h-208z" />
<glyph unicode="X" horiz-adv-x="1347" d="M61 0l617 733l-381 783h248l289 -596l501 596h248l-657 -783l360 -733h-248l-270 547l-459 -547h-248z" />
<glyph unicode="Y" horiz-adv-x="1318" d="M281 1516h241l291 -627l518 627h238l-688 -832l-119 -684h-209l119 682z" />
<glyph unicode="Z" horiz-adv-x="1347" d="M82 0l35 197l1108 1120h-889l35 199h1153l-35 -199l-1106 -1120h911l-34 -197h-1178z" />
<glyph unicode="[" horiz-adv-x="657" d="M49 -414l340 1930h514l-33 -187h-305l-274 -1560h305l-33 -183h-514z" />
<glyph unicode="\" horiz-adv-x="1038" d="M270 1516h197l567 -1516h-196z" />
<glyph unicode="]" horiz-adv-x="657" d="M-53 -414l33 183h305l274 1560h-305l33 187h514l-340 -1930h-514z" />
<glyph unicode="^" horiz-adv-x="1150" d="M193 688l542 828h213l252 -828h-205l-186 647l-412 -647h-204z" />
<glyph unicode="_" horiz-adv-x="1142" d="M6 -166l29 166h1071l-29 -166h-1071z" />
<glyph unicode="`" horiz-adv-x="733" d="M338 1339l125 172l389 -245l-119 -156z" />
<glyph unicode="a" d="M158 406q0 119 51.5 228.5t135.5 187t196 123.5t229 46q200 0 301 -143l21 125h196l-170 -973h-196l18 115q-145 -142 -350 -142q-190 0 -311 124t-121 309zM354 432q0 -119 74.5 -196.5t194.5 -77.5q156 0 270.5 111t114.5 259q0 118 -75 197.5t-196 79.5 q-153 0 -268 -111t-115 -262z" />
<glyph unicode="b" d="M164 0l266 1516h197l-117 -668q146 143 350 143q189 0 310.5 -123.5t121.5 -310.5q0 -156 -85 -291.5t-225.5 -214t-299.5 -78.5q-203 0 -301 142l-21 -115h-196zM446 432q0 -118 72 -196t195 -78q155 0 269 109.5t114 262.5q0 118 -74.5 196.5t-194.5 78.5 q-153 0 -267 -110.5t-114 -262.5z" />
<glyph unicode="c" horiz-adv-x="1081" d="M160 410q0 113 51 220.5t134.5 186t195 126.5t227.5 48q134 0 237 -65t154 -174l-182 -95q-30 67 -94.5 107.5t-147.5 40.5q-149 0 -264 -113.5t-115 -259.5q0 -115 75.5 -194.5t193.5 -79.5q86 0 164 41t133 112l147 -96q-89 -111 -217 -176.5t-264 -65.5 q-186 0 -307 126t-121 311z" />
<glyph unicode="d" d="M158 406q0 119 51.5 228.5t135.5 187t196 123.5t229 46q200 0 301 -143l117 668h196l-266 -1516h-196l18 115q-145 -142 -350 -142q-190 0 -311 124t-121 309zM354 432q0 -119 74.5 -196.5t194.5 -77.5q156 0 270.5 111t114.5 259q0 118 -75 197.5t-196 79.5 q-153 0 -268 -111t-115 -262z" />
<glyph unicode="e" horiz-adv-x="1153" d="M158 406q0 112 48 219.5t128 187.5t190.5 129t229.5 49q124 0 220 -59t145.5 -156.5t49.5 -216.5q0 -59 -24 -143h-797q0 -115 74 -189.5t196 -74.5q81 0 160 35t135 98l121 -107q-85 -96 -204 -150.5t-244 -54.5q-187 0 -307.5 123.5t-120.5 309.5zM383 571h594 q0 103 -70 171.5t-184 68.5q-111 0 -202.5 -67t-137.5 -173z" />
<glyph unicode="f" horiz-adv-x="679" d="M174 786l33 187h143l39 225q26 147 114.5 232.5t241.5 85.5q84 0 158 -23l-31 -176q-47 14 -114 14q-79 0 -119.5 -43.5t-60.5 -154.5l-29 -160h242l-33 -187h-242l-139 -786h-199l139 786h-143z" />
<glyph unicode="g" d="M106 -281l197 78q69 -131 238 -131q66 0 125 19.5t112.5 61.5t93.5 118t58 180l12 70q-145 -142 -350 -142q-191 0 -311.5 123.5t-120.5 309.5q0 119 51.5 228.5t135.5 187t195 123.5t228 46q200 0 301 -143l23 125h196l-157 -893q-25 -140 -77 -248.5t-115 -173 t-141 -105.5t-147 -56t-141 -15q-146 0 -251 62.5t-155 174.5zM356 432q0 -119 74.5 -196.5t194.5 -77.5q155 0 269 111t114 259q0 118 -75 197.5t-196 79.5q-153 0 -267 -110.5t-114 -262.5z" />
<glyph unicode="h" horiz-adv-x="1187" d="M164 0l266 1516h197l-113 -648q64 60 135 91.5t168 31.5q182 0 272 -110q63 -77 64 -209q0 -56 -12 -121l-97 -551h-198l90 510q10 54 10 97q0 198 -196 198q-247 0 -301 -309l-89 -496h-196z" />
<glyph unicode="i" horiz-adv-x="526" d="M164 0l172 973h199l-173 -973h-198zM362 1274q0 59 45.5 102t106.5 43q46 0 75 -30.5t29 -75.5q0 -61 -43.5 -104.5t-105.5 -43.5q-47 0 -77 31.5t-30 77.5z" />
<glyph unicode="j" horiz-adv-x="526" d="M72 -518l262 1491h198l-262 -1491h-198zM362 1274q0 59 45.5 102t106.5 43q46 0 75 -30.5t29 -75.5q0 -61 -44.5 -104.5t-104.5 -43.5q-47 0 -77 31.5t-30 77.5z" />
<glyph unicode="k" horiz-adv-x="1048" d="M164 0l266 1516h197l-166 -945l446 402h260l-508 -447l373 -526h-258l-332 465l-82 -465h-196z" />
<glyph unicode="l" horiz-adv-x="552" d="M207 248l223 1268h197l-211 -1207q-6 -34 -6 -60q0 -36 12 -56q20 -35 88 -35q31 0 49 2l-31 -172q-66 -15 -110 -15q-122 -1 -178 71q-40 51 -40 133q0 33 7 71z" />
<glyph unicode="m" horiz-adv-x="1767" d="M164 0l172 973h196l-18 -105q68 64 135 93.5t152 29.5q105 0 179 -44.5t101 -135.5q150 180 355 180q169 0 246 -109q51 -72 51 -194q0 -62 -13 -137l-96 -551h-197l91 510q12 67 12 118q0 64 -18 104q-34 72 -144 73q-232 0 -287 -309l-88 -496h-198l90 510 q12 68 12 120q0 63 -18 103q-33 72 -144 72q-230 0 -286 -309l-89 -496h-196z" />
<glyph unicode="n" horiz-adv-x="1187" d="M164 0l172 973h196l-18 -105q64 60 135 91.5t168 31.5q182 0 272 -110q63 -77 64 -209q0 -56 -12 -121l-97 -551h-198l90 510q10 54 10 97q0 198 -196 198q-247 0 -301 -309l-89 -496h-196z" />
<glyph unicode="o" horiz-adv-x="1187" d="M160 410q0 113 51 220.5t134.5 186t195 126.5t227.5 48q187 0 309.5 -126.5t122.5 -311.5q0 -114 -52 -221.5t-137 -185.5t-196.5 -125.5t-226.5 -47.5q-186 0 -307 126t-121 311zM356 432q0 -115 75.5 -194.5t191.5 -79.5q150 0 264 112.5t114 259.5q0 116 -74.5 195.5 t-189.5 79.5q-151 0 -266 -113.5t-115 -259.5z" />
<glyph unicode="p" d="M72 -518l262 1491h196l-20 -125q146 143 350 143q189 0 310.5 -123.5t121.5 -310.5q0 -156 -85.5 -291.5t-226.5 -214t-300 -78.5q-203 0 -301 142l-111 -633h-196zM444 432q0 -117 73 -195.5t194 -78.5q156 0 270.5 109.5t114.5 262.5q0 118 -74.5 196.5t-194.5 78.5 q-153 0 -268 -111t-115 -262z" />
<glyph unicode="q" d="M158 406q0 119 51.5 228.5t135.5 187t196 123.5t229 46q200 0 301 -143l21 125h196l-262 -1491h-197l111 633q-145 -142 -350 -142q-190 0 -311 124t-121 309zM354 432q0 -119 74.5 -196.5t194.5 -77.5q156 0 270.5 111t114.5 259q0 118 -75 197.5t-196 79.5 q-153 0 -268 -111t-115 -262z" />
<glyph unicode="r" horiz-adv-x="774" d="M164 0l172 973h196l-20 -117q81 81 167 108t234 27l-32 -188q-94 0 -165.5 -15.5t-117.5 -41t-77 -65t-47 -81t-25 -96.5l-89 -504h-196z" />
<glyph unicode="s" horiz-adv-x="886" d="M86 100l133 152q105 -100 254 -100q86 0 135 34.5t49 89.5q0 38 -32.5 64t-81 39.5t-105.5 33t-105.5 42.5t-81 71t-32.5 115q0 150 111.5 250t281.5 100q78 0 162.5 -24.5t147.5 -85.5l-129 -146q-92 76 -211 76q-77 0 -118.5 -34t-41.5 -81q0 -32 24 -55t62 -38.5 t84 -30t92 -34t84 -45.5t62 -70.5t24 -103.5q0 -156 -116 -251t-302 -95q-206 0 -350 127z" />
<glyph unicode="t" horiz-adv-x="716" d="M174 786l33 187h153l58 330h198l-57 -330h264l-32 -187h-265l-82 -464q-7 -38 -7 -66q0 -38 12 -60q21 -38 96 -38q70 0 110 14l-30 -176q-66 -23 -158 -23q-70 0 -118 18.5t-73.5 47.5t-35.5 73q-9 38 -10 77v11q2 44 12 99l86 487h-154z" />
<glyph unicode="u" horiz-adv-x="1177" d="M215 395l102 578h199l-92 -522q-11 -67 -11 -120q-1 -19 1 -37q6 -65 55.5 -100.5t146.5 -35.5q143 0 206.5 71.5t90.5 221.5l93 522h196l-102 -578q-73 -422 -516 -422q-379 0 -379 311q0 51 10 111z" />
<glyph unicode="v" horiz-adv-x="1052" d="M193 973h213l161 -727l424 727h213l-571 -973h-211z" />
<glyph unicode="w" horiz-adv-x="1675" d="M193 973h217l125 -717l383 717h182l129 -717l379 717h219l-539 -973h-205l-120 700l-369 -700h-209z" />
<glyph unicode="x" horiz-adv-x="954" d="M20 0l437 512l-234 461h221l152 -301l258 301h221l-397 -461l256 -512h-219l-176 352l-299 -352h-220z" />
<glyph unicode="y" horiz-adv-x="993" d="M147 -518l267 500l-224 991h216l149 -731l391 731h197l-801 -1491h-195z" />
<glyph unicode="z" horiz-adv-x="974" d="M102 0l33 180l625 606h-518l32 187h770l-32 -180l-623 -609h516l-33 -184h-770z" />
<glyph unicode="{" horiz-adv-x="720" d="M121 453l33 188q59 2 106.5 18t77.5 40t52 57.5t33 64.5t17 66l64 358q12 70 44.5 129t90.5 99t129 40h199l-27 -151h-109q-97 0 -129 -176l-63 -361q-17 -96 -88.5 -173t-200.5 -103q50 -7 88.5 -29t59.5 -53.5t33.5 -70t11.5 -77.5t-6 -77l-60 -330q-32 -176 68 -176 h108l-26 -154h-199q-105 0 -147 79t-23 189l64 359q39 237 -201 244z" />
<glyph unicode="|" horiz-adv-x="491" d="M92 -287l318 1803h204l-317 -1803h-205z" />
<glyph unicode="}" horiz-adv-x="720" d="M-53 -418l26 154h109q97 0 129 176l59 330q20 109 94.5 200t198.5 107q-63 13 -106 42.5t-61.5 67t-25.5 81t3 85.5l63 361q32 176 -67 176h-109l27 151h198q72 0 116.5 -40t54 -99.5t-0.5 -128.5l-63 -358q-4 -32 -5.5 -65.5t10.5 -65t33 -56.5t63 -41t100 -18l-33 -188 q-248 -7 -287 -244l-63 -359q-19 -109 -89 -188.5t-176 -79.5h-198z" />
<glyph unicode="~" horiz-adv-x="1224" d="M197 477v35q0 135 96.5 219t247.5 84q62 0 113.5 -17t86.5 -41t67 -48t71.5 -41t83.5 -17q125 0 145 125q4 24 4 37h143q0 -4 1 -17t1 -18q0 -129 -96 -216t-231 -87q-54 0 -102 17t-84.5 41t-72 48t-81 41t-94.5 17q-67 0 -103 -30.5t-47 -92.5q-6 -36 -6 -39h-143z" />
<glyph unicode="&#xa1;" horiz-adv-x="573" d="M113 -393l92 526l153 574h103l-51 -574l-93 -526h-204zM336 989q0 60 45.5 103t105.5 43q47 0 77 -31.5t30 -77.5q0 -59 -45.5 -102t-106.5 -43q-47 0 -76.5 31t-29.5 77z" />
<glyph unicode="&#xa2;" horiz-adv-x="1214" d="M258 686q0 199 145 362.5t349 206.5l45 261h182l-45 -252q112 -15 195.5 -77.5t127.5 -158.5l-182 -94q-25 53 -70.5 89.5t-103.5 49.5l-110 -633q139 28 229 148l147 -96q-78 -97 -185.5 -160t-225.5 -78l-43 -254h-183l45 262q-142 34 -229.5 151t-87.5 273zM455 709 q0 -85 41.5 -154t113.5 -100l107 604q-113 -41 -187.5 -138t-74.5 -212z" />
<glyph unicode="&#xa3;" horiz-adv-x="1167" d="M55 0l33 180q86 32 150.5 77t99.5 88.5t56.5 94.5t27.5 88t6 76v31h-207l33 190h141q-26 106 -26 201q0 99 35.5 190.5t101.5 164.5t171.5 117t235.5 44q210 0 307 -116t83 -314h-209q-3 115 -53.5 178.5t-166.5 63.5q-62 0 -112 -17.5t-82.5 -46.5t-54.5 -69t-31.5 -82 t-9.5 -88q0 -86 28 -226h437l-33 -190h-381v-35q0 -109 -69.5 -220t-215.5 -190h772l-32 -190h-1035z" />
<glyph unicode="&#xa4;" horiz-adv-x="1253" d="M102 258l195 166q-53 89 -53 219q0 189 153 352l-137 166l129 111l139 -168q147 94 306 94t268 -92l196 166l91 -111l-193 -164q53 -92 53 -221q0 -186 -155 -354l137 -164l-129 -111l-135 164q-147 -92 -305 -92q-160 0 -275 94l-194 -163zM444 668q0 -107 71.5 -180.5 t178.5 -73.5q135 0 245 102t110 234q0 107 -70.5 181.5t-179.5 74.5q-89 0 -171 -46.5t-133 -125t-51 -166.5z" />
<glyph unicode="&#xa5;" horiz-adv-x="1329" d="M158 369l30 170h465l17 96l-8 78h-443l29 170h336l-295 633h241l291 -627l516 627h240l-524 -633h327l-28 -170h-434l-37 -78l-17 -96h457l-31 -170h-456l-66 -369h-211l66 369h-465z" />
<glyph unicode="&#xa6;" horiz-adv-x="491" d="M92 -287l127 717h205l-127 -717h-205zM283 799l127 717h204l-127 -717h-204z" />
<glyph unicode="&#xa7;" horiz-adv-x="1153" d="M156 55h202q-14 -98 38.5 -160.5t152.5 -62.5q97 0 172.5 53.5t75.5 139.5q0 49 -33 90.5t-85 73.5t-115.5 63t-127 65.5t-115.5 74.5t-85 97.5t-33 126.5q0 107 61 185.5t178 152.5q-41 68 -41 154q0 88 39 161.5t103.5 120.5t145 73t165.5 26q166 0 258 -98t72 -267 h-203q7 74 -39.5 123t-122.5 49q-80 0 -137 -50t-57 -120q0 -45 29.5 -84t76.5 -69.5t104 -61t114 -63.5t104 -70.5t76.5 -89.5t29.5 -113q0 -99 -64 -183t-159 -144q68 -71 68 -187q0 -96 -42 -177.5t-111 -133.5t-155.5 -81t-177.5 -29q-186 0 -286.5 117.5t-75.5 297.5z M414 664q0 -35 21.5 -68.5t54 -59.5t78.5 -54t87 -48t89 -44t75 -40q52 29 88.5 80.5t36.5 95.5q0 34 -20.5 67.5t-49 59t-76 54.5t-83.5 47.5t-90.5 45.5t-79.5 40q-53 -33 -92 -81t-39 -95z" />
<glyph unicode="&#xa8;" horiz-adv-x="829" d="M317 1217q0 59 45.5 101t106.5 42q46 0 75 -30t29 -75q0 -61 -43.5 -104t-105.5 -43q-47 0 -77 31.5t-30 77.5zM690 1217q0 59 45.5 101t106.5 42q46 0 75 -30t29 -75q0 -61 -43.5 -104t-105.5 -43q-47 0 -77 31.5t-30 77.5z" />
<glyph unicode="&#xa9;" horiz-adv-x="1769" d="M223 645q0 178 79 344.5t208 286.5t299.5 192t347.5 72q189 0 339.5 -89.5t233 -242.5t82.5 -338q0 -176 -79 -342t-207 -286.5t-298.5 -193.5t-346.5 -73q-189 0 -340 89t-234.5 242t-83.5 339zM373 664q0 -152 66 -277t188.5 -198.5t277.5 -73.5q145 0 284 60 t243 159.5t167.5 235.5t63.5 280q0 152 -67 277.5t-190 199.5t-278 74q-116 0 -229 -38.5t-207 -108t-166 -160t-112.5 -202.5t-40.5 -228zM592 694q0 130 75.5 249.5t199.5 192t259 72.5q118 0 208 -59t134 -158l-159 -84q-25 61 -82 98t-131 37q-130 0 -229 -100t-99 -227 q0 -102 64 -172t165 -70q76 0 145 37.5t118 99.5l129 -84q-76 -99 -188.5 -158t-231.5 -59q-162 0 -269.5 111.5t-107.5 273.5z" />
<glyph unicode="&#xaa;" horiz-adv-x="923" d="M301 1108q0 164 120.5 284.5t289.5 120.5q151 0 202 -102l17 88h155l-116 -665h-156l14 81q-92 -100 -239 -100q-131 0 -209 83t-78 210zM457 1122q0 -77 43 -123.5t123 -46.5q106 0 180 67t74 179q0 82 -51 129t-134 47q-110 0 -172.5 -73.5t-62.5 -178.5z" />
<glyph unicode="&#xab;" horiz-adv-x="1058" d="M174 518l332 408h217l-326 -408l187 -412h-222zM588 518l332 408h217l-326 -408l186 -412h-221z" />
<glyph unicode="&#xac;" horiz-adv-x="1323" d="M211 614l33 191h1097l-112 -641h-191l80 450h-907z" />
<glyph unicode="&#xad;" horiz-adv-x="854" d="M213 459l33 188h588l-33 -188h-588z" />
<glyph unicode="&#xae;" horiz-adv-x="1769" d="M223 645q0 178 79 344.5t208 286.5t299.5 192t347.5 72q189 0 339.5 -89.5t233 -242.5t82.5 -338q0 -176 -79 -342t-207 -286.5t-298.5 -193.5t-346.5 -73q-189 0 -340 89t-234.5 242t-83.5 339zM373 664q0 -152 66 -277t188.5 -198.5t277.5 -73.5q145 0 284 60 t243 159.5t167.5 235.5t63.5 280q0 152 -67 277.5t-190 199.5t-278 74q-116 0 -229 -38.5t-207 -108t-166 -160t-112.5 -202.5t-40.5 -228zM633 315l158 891h272q54 0 91.5 -2t83 -8.5t76 -20t57.5 -35t40.5 -56t13.5 -80.5q0 -255 -274 -316l156 -375h-179l-149 363h-133 l-64 -361h-149zM868 809h162q53 0 91 6t73.5 21.5t53.5 48.5t18 82q0 61 -47 82.5t-142 21.5h-162z" />
<glyph unicode="&#xaf;" horiz-adv-x="917" d="M303 1143l31 176h713l-31 -176h-713z" />
<glyph unicode="&#xb0;" horiz-adv-x="778" d="M283 1122q0 141 111.5 247t254.5 106q112 0 185 -76t73 -187q0 -141 -111.5 -246.5t-254.5 -105.5q-112 0 -185 76t-73 186zM412 1141q0 -66 42 -110t109 -44q85 0 149 61.5t64 145.5q0 65 -42 108.5t-107 43.5q-86 0 -150.5 -60.5t-64.5 -144.5z" />
<glyph unicode="&#xb1;" horiz-adv-x="1310" d="M113 0l32 190h1086l-33 -190h-1085zM242 737l34 191h447l74 418h190l-74 -418h449l-35 -191h-448l-72 -418h-191l72 418h-446z" />
<glyph unicode="&#xb2;" horiz-adv-x="792" d="M193 606l22 131l377 303q168 135 168 240q0 50 -33 79.5t-90 29.5q-76 0 -120.5 -50.5t-59.5 -126.5h-158q26 147 127.5 232.5t241.5 85.5q118 0 188 -64.5t70 -167.5q0 -175 -213 -340l-271 -208h385l-24 -144h-610z" />
<glyph unicode="&#xb3;" horiz-adv-x="845" d="M262 909h150q-11 -82 32.5 -128t116.5 -46q78 0 130 48t52 139q0 64 -45 92t-135 28l23 127h30q71 0 124 37t53 113q0 48 -30.5 71t-72.5 23q-59 0 -97.5 -38.5t-49.5 -98.5h-152l2 16q17 112 113 183t215 71q100 0 166.5 -56.5t66.5 -150.5q0 -75 -39.5 -138t-115.5 -97 q106 -47 106 -176q0 -143 -109 -238.5t-259 -95.5q-136 0 -216.5 84.5t-58.5 230.5z" />
<glyph unicode="&#xb4;" horiz-adv-x="733" d="M326 1264l477 247l65 -168l-479 -233z" />
<glyph unicode="&#xb5;" horiz-adv-x="1193" d="M72 -518l262 1491h196l-92 -522q-15 -92 -9 -157t56 -100.5t148 -35.5q74 0 126 19.5t85 60t52 90.5t32 123l92 522h201l-103 -578q-19 -112 -65 -194.5t-113 -131.5t-148.5 -72.5t-179.5 -23.5q-90 0 -145 22.5t-94 78.5l-105 -592h-196z" />
<glyph unicode="&#xb6;" horiz-adv-x="1449" d="M229 958q0 101 41.5 199t116.5 178.5t194 130.5t261 50h811l-29 -160h-244l-309 -1751h-172l309 1751h-237l-309 -1751h-175l168 952q-200 20 -313 128t-113 273zM397 991q0 -113 71.5 -192.5t213.5 -89.5l115 651q-97 0 -175 -32.5t-126 -85.5t-73.5 -118t-25.5 -133z " />
<glyph unicode="&#xb7;" horiz-adv-x="661" d="M295 504q0 59 45 101t106 42q47 0 76 -29.5t29 -74.5q0 -61 -44.5 -104.5t-105.5 -43.5q-47 0 -76.5 31.5t-29.5 77.5z" />
<glyph unicode="&#xb8;" horiz-adv-x="620" d="M53 -281h97q-6 -61 23 -88.5t73 -27.5q54 0 91.5 38t37.5 95q0 39 -27 61.5t-78 22.5h-147l96 180h105l-52 -90h31q79 0 124.5 -42t45.5 -116q0 -106 -72 -171.5t-176 -65.5q-80 0 -131.5 47.5t-40.5 156.5z" />
<glyph unicode="&#xb9;" horiz-adv-x="507" d="M324 1372l24 144h324l-160 -910h-160l135 766h-163z" />
<glyph unicode="&#xba;" horiz-adv-x="917" d="M303 1114q0 105 58.5 198.5t157 149.5t208.5 56q131 0 216 -85.5t85 -213.5q0 -161 -128.5 -281.5t-295.5 -120.5q-130 0 -215.5 84.5t-85.5 212.5zM461 1135q0 -73 47.5 -121.5t122.5 -48.5q99 0 169 69.5t70 165.5q0 73 -46.5 121.5t-123.5 48.5q-99 0 -169 -70 t-70 -165z" />
<glyph unicode="&#xbb;" horiz-adv-x="1058" d="M100 106l330 412l-180 408h217l186 -408l-331 -412h-222zM514 106l330 412l-180 408h217l186 -408l-332 -412h-221z" />
<glyph unicode="&#xbc;" horiz-adv-x="1587" d="M246 0l1097 1516h168l-1097 -1516h-168zM324 1372l24 144h324l-160 -910h-160l135 766h-163zM803 141l22 129l518 619h170l-108 -608h108l-24 -140h-109l-24 -141h-154l25 141h-424zM997 281h254l70 393z" />
<glyph unicode="&#xbd;" horiz-adv-x="1708" d="M246 0l1097 1516h168l-1097 -1516h-168zM324 1372l24 144h324l-160 -910h-160l135 766h-163zM971 0l22 131l379 303q166 131 166 240q0 50 -33 79t-90 29q-76 0 -120.5 -50t-59.5 -126h-158q26 147 127.5 232.5t241.5 85.5q118 0 188 -65t70 -169q0 -173 -213 -338 l-270 -209h385l-25 -143h-610z" />
<glyph unicode="&#xbe;" horiz-adv-x="1824" d="M252 909h149q-11 -82 33 -128t117 -46q78 0 130 48t52 139q0 64 -45 92t-135 28l22 127h31q71 0 123.5 36.5t52.5 113.5q0 48 -30 71t-72 23q-59 0 -98 -38.5t-50 -98.5h-151l2 16q17 112 113 183t215 71q100 0 166.5 -56.5t66.5 -150.5q0 -75 -40 -138t-116 -97 q107 -48 107 -176q0 -143 -109.5 -238.5t-259.5 -95.5q-136 0 -216 84.5t-58 230.5zM485 0l1100 1516h168l-1100 -1516h-168zM1040 141l23 129l518 619h170l-109 -608h109l-25 -140h-108l-25 -141h-151l24 141h-426zM1237 281h254l70 393z" />
<glyph unicode="&#xbf;" horiz-adv-x="1030" d="M96 -68q0 57 10.5 106.5t25.5 86t45 71t54.5 57t69 49.5t73.5 42t83 41q50 24 79 40.5t57 40.5t42.5 53.5t21.5 70.5l23 129h205l-25 -141q-14 -78 -39 -132t-72 -92t-78.5 -55.5t-102.5 -49.5q-10 -5 -15 -7q-39 -17 -64 -29.5t-57 -32t-52 -39.5t-39 -46.5t-27.5 -60 t-8.5 -73.5q0 -89 58 -138.5t153 -49.5q116 0 189 71.5t94 190.5h196q-35 -199 -177 -329t-349 -130q-170 0 -271.5 96.5t-101.5 259.5zM707 987q0 60 45.5 103t105.5 43q47 0 77 -31.5t30 -77.5q0 -59 -45.5 -102t-106.5 -43q-47 0 -76.5 31t-29.5 77z" />
<glyph unicode="&#xc0;" horiz-adv-x="1429" d="M4 0l862 1516h230l329 -1516h-229l-72 354h-696l-199 -354h-225zM537 551h544l-143 711zM741 1882l125 172l389 -246l-118 -155z" />
<glyph unicode="&#xc1;" horiz-adv-x="1429" d="M4 0l862 1516h230l329 -1516h-229l-72 354h-696l-199 -354h-225zM537 551h544l-143 711zM778 1806l477 248l66 -168l-479 -233z" />
<glyph unicode="&#xc2;" horiz-adv-x="1429" d="M4 0l862 1516h230l329 -1516h-229l-72 354h-696l-199 -354h-225zM537 551h544l-143 711zM676 1759l332 281h135l229 -281l-129 -108l-196 229l-281 -229z" />
<glyph unicode="&#xc3;" horiz-adv-x="1429" d="M4 0l862 1516h230l329 -1516h-229l-72 354h-696l-199 -354h-225zM537 551h544l-143 711zM668 1810q126 99 235 99q62 0 147.5 -42t127.5 -42q72 0 151 67l62 -133q-118 -108 -234 -108q-59 0 -147.5 42t-130.5 42q-66 0 -142 -62z" />
<glyph unicode="&#xc4;" horiz-adv-x="1429" d="M4 0l862 1516h230l329 -1516h-229l-72 354h-696l-199 -354h-225zM537 551h544l-143 711zM713 1759q0 59 45 101.5t106 42.5q47 0 76 -30t29 -75q0 -61 -44 -104t-106 -43q-47 0 -76.5 31t-29.5 77zM1085 1759q0 59 45.5 101.5t106.5 42.5q46 0 75 -30t29 -75 q0 -61 -43.5 -104t-105.5 -43q-47 0 -77 31t-30 77z" />
<glyph unicode="&#xc5;" horiz-adv-x="1429" d="M4 0l862 1516h230l329 -1516h-229l-72 354h-696l-199 -354h-225zM537 551h544l-143 711zM805 1745q0 98 79 174t179 76q80 0 132 -55t52 -134q0 -99 -80 -173t-180 -74q-78 0 -130 54t-52 132zM932 1761q0 -33 21.5 -55.5t56.5 -22.5q41 0 74.5 31.5t33.5 75.5 q0 33 -21.5 55.5t-54.5 22.5q-43 0 -76.5 -32.5t-33.5 -74.5z" />
<glyph unicode="&#xc6;" horiz-adv-x="2043" d="M-6 0l1223 1516h985l-35 -199h-676l-74 -428h561l-34 -197h-562l-88 -495h676l-35 -197h-884l65 369h-588l-295 -369h-239zM686 565h465l129 740z" />
<glyph unicode="&#xc7;" horiz-adv-x="1464" d="M186 643q0 178 78 344.5t207 287t301.5 193t353.5 72.5q166 0 301.5 -61.5t225.5 -175.5l-172 -132q-66 86 -165.5 132.5t-219.5 46.5q-132 0 -260.5 -57t-224.5 -149.5t-155 -217.5t-59 -254q0 -139 62.5 -255t175.5 -184.5t252 -68.5q112 0 226.5 46.5t209.5 125.5 l113 -137q-273 -226 -582 -226l-39 -65h33q78 0 123 -42t45 -114q0 -109 -71.5 -174t-176.5 -65q-36 0 -66.5 10t-57.5 31.5t-40 63.5t-8 99h96q-4 -61 23 -88.5t71 -27.5q56 0 92.5 38.5t36.5 94.5q0 39 -25 61.5t-75 22.5h-149l86 162q-250 31 -408 216.5t-158 446.5z" />
<glyph unicode="&#xc8;" horiz-adv-x="1167" d="M174 0l266 1516h885l-35 -199h-676l-73 -428h561l-35 -197h-561l-88 -495h676l-35 -197h-885zM641 1882l125 172l389 -246l-119 -155z" />
<glyph unicode="&#xc9;" horiz-adv-x="1167" d="M174 0l266 1516h885l-35 -199h-676l-73 -428h561l-35 -197h-561l-88 -495h676l-35 -197h-885zM709 1806l477 248l65 -168l-479 -233z" />
<glyph unicode="&#xca;" horiz-adv-x="1167" d="M174 0l266 1516h885l-35 -199h-676l-73 -428h561l-35 -197h-561l-88 -495h676l-35 -197h-885zM594 1759l332 281h135l229 -281l-129 -108l-196 229l-281 -229z" />
<glyph unicode="&#xcb;" horiz-adv-x="1167" d="M174 0l266 1516h885l-35 -199h-676l-73 -428h561l-35 -197h-561l-88 -495h676l-35 -197h-885zM627 1759q0 59 45 101.5t106 42.5q47 0 76 -30t29 -75q0 -61 -44 -104t-106 -43q-47 0 -76.5 31t-29.5 77zM999 1759q0 59 45.5 101.5t106.5 42.5q46 0 75 -30t29 -75 q0 -61 -43.5 -104t-105.5 -43q-47 0 -77 31t-30 77z" />
<glyph unicode="&#xcc;" horiz-adv-x="557" d="M174 0l266 1516h209l-266 -1516h-209zM289 1882l125 172l389 -246l-119 -155z" />
<glyph unicode="&#xcd;" horiz-adv-x="557" d="M174 0l266 1516h209l-266 -1516h-209zM344 1806l477 248l66 -168l-479 -233z" />
<glyph unicode="&#xce;" horiz-adv-x="557" d="M174 0l266 1516h209l-266 -1516h-209zM240 1759l331 281h136l229 -281l-129 -108l-197 229l-280 -229z" />
<glyph unicode="&#xcf;" horiz-adv-x="557" d="M174 0l266 1516h209l-266 -1516h-209zM276 1759q0 59 45.5 101.5t106.5 42.5q46 0 75 -30t29 -75q0 -61 -43.5 -104t-105.5 -43q-47 0 -77 31t-30 77zM649 1759q0 59 45.5 101.5t106.5 42.5q46 0 75 -30t29 -75q0 -61 -43.5 -104t-105.5 -43q-47 0 -77 31t-30 77z" />
<glyph unicode="&#xd0;" horiz-adv-x="1470" d="M135 674l35 198h158l112 644h418q313 0 502.5 -170.5t189.5 -462.5q0 -197 -76 -364.5t-206 -280t-305.5 -175.5t-372.5 -63h-416l119 674h-158zM418 197h194q119 0 225.5 24.5t199 76.5t159.5 128.5t105 187t38 244.5q0 97 -28.5 174.5t-78.5 130t-120.5 87.5t-152 51 t-175.5 16h-170l-77 -445h378l-34 -198h-379z" />
<glyph unicode="&#xd1;" horiz-adv-x="1689" d="M174 0l266 1516h271l657 -1166l205 1166h209l-266 -1516h-218l-696 1241l-219 -1241h-209zM815 1810q126 99 236 99q62 0 147 -42t127 -42q73 0 152 67l61 -133q-118 -108 -233 -108q-59 0 -148 42t-131 42q-65 0 -141 -62z" />
<glyph unicode="&#xd2;" horiz-adv-x="1716" d="M186 641q0 177 77 343.5t205 288.5t301.5 195.5t358.5 73.5q194 0 346.5 -88t236 -241t83.5 -341q0 -180 -79 -347.5t-208 -287.5t-301 -192t-352 -72q-143 0 -268 51t-212.5 139.5t-137.5 212.5t-50 265zM397 668q0 -215 138 -359.5t352 -144.5q135 0 262.5 55 t222.5 146t153 217.5t58 261.5q0 215 -136 360.5t-353 145.5q-109 0 -214.5 -36t-191.5 -101t-152 -149.5t-102.5 -187.5t-36.5 -208zM842 1882l125 172l389 -246l-119 -155z" />
<glyph unicode="&#xd3;" horiz-adv-x="1716" d="M186 641q0 177 77 343.5t205 288.5t301.5 195.5t358.5 73.5q194 0 346.5 -88t236 -241t83.5 -341q0 -180 -79 -347.5t-208 -287.5t-301 -192t-352 -72q-143 0 -268 51t-212.5 139.5t-137.5 212.5t-50 265zM397 668q0 -215 138 -359.5t352 -144.5q135 0 262.5 55 t222.5 146t153 217.5t58 261.5q0 215 -136 360.5t-353 145.5q-109 0 -214.5 -36t-191.5 -101t-152 -149.5t-102.5 -187.5t-36.5 -208zM942 1806l477 248l66 -168l-479 -233z" />
<glyph unicode="&#xd4;" horiz-adv-x="1716" d="M186 641q0 177 77 343.5t205 288.5t301.5 195.5t358.5 73.5q194 0 346.5 -88t236 -241t83.5 -341q0 -180 -79 -347.5t-208 -287.5t-301 -192t-352 -72q-143 0 -268 51t-212.5 139.5t-137.5 212.5t-50 265zM397 668q0 -215 138 -359.5t352 -144.5q135 0 262.5 55 t222.5 146t153 217.5t58 261.5q0 215 -136 360.5t-353 145.5q-109 0 -214.5 -36t-191.5 -101t-152 -149.5t-102.5 -187.5t-36.5 -208zM817 1759l332 281h135l229 -281l-129 -108l-196 229l-281 -229z" />
<glyph unicode="&#xd5;" horiz-adv-x="1716" d="M186 641q0 177 77 343.5t205 288.5t301.5 195.5t358.5 73.5q194 0 346.5 -88t236 -241t83.5 -341q0 -180 -79 -347.5t-208 -287.5t-301 -192t-352 -72q-143 0 -268 51t-212.5 139.5t-137.5 212.5t-50 265zM397 668q0 -215 138 -359.5t352 -144.5q135 0 262.5 55 t222.5 146t153 217.5t58 261.5q0 215 -136 360.5t-353 145.5q-109 0 -214.5 -36t-191.5 -101t-152 -149.5t-102.5 -187.5t-36.5 -208zM811 1810q126 99 236 99q62 0 147 -42t127 -42q73 0 152 67l61 -133q-118 -108 -234 -108q-59 0 -147.5 42t-130.5 42q-65 0 -141 -62z " />
<glyph unicode="&#xd6;" horiz-adv-x="1716" d="M186 641q0 177 77 343.5t205 288.5t301.5 195.5t358.5 73.5q194 0 346.5 -88t236 -241t83.5 -341q0 -180 -79 -347.5t-208 -287.5t-301 -192t-352 -72q-143 0 -268 51t-212.5 139.5t-137.5 212.5t-50 265zM397 668q0 -215 138 -359.5t352 -144.5q135 0 262.5 55 t222.5 146t153 217.5t58 261.5q0 215 -136 360.5t-353 145.5q-109 0 -214.5 -36t-191.5 -101t-152 -149.5t-102.5 -187.5t-36.5 -208zM856 1759q0 59 45.5 101.5t106.5 42.5q46 0 75 -30t29 -75q0 -61 -43.5 -104t-105.5 -43q-47 0 -77 31t-30 77zM1229 1759q0 59 45 101.5 t106 42.5q47 0 76 -30t29 -75q0 -61 -44 -104t-106 -43q-47 0 -76.5 31t-29.5 77z" />
<glyph unicode="&#xd7;" horiz-adv-x="1183" d="M176 360l408 347l-285 342l158 135l282 -344l406 344l108 -135l-401 -342l283 -347l-158 -133l-285 344l-403 -344z" />
<glyph unicode="&#xd8;" horiz-adv-x="1716" d="M186 641q0 177 77 343.5t205 288.5t301.5 195.5t358.5 73.5q155 0 289 -59l94 129l144 -72l-101 -137q113 -86 176.5 -226.5t63.5 -304.5q0 -180 -79 -347.5t-208 -287.5t-301 -192t-352 -72q-160 0 -295 58l-92 -125l-139 69l98 136q-113 86 -176.5 226.5t-63.5 303.5z M397 666q0 -114 41.5 -214.5t114.5 -164.5l739 1024q-85 39 -198 39q-136 0 -265 -56.5t-223.5 -150t-151.5 -219.5t-57 -258zM682 203q95 -39 205 -39q180 0 340.5 92t258 249.5t97.5 336.5q0 115 -41.5 216.5t-114.5 168.5z" />
<glyph unicode="&#xd9;" horiz-adv-x="1611" d="M276.5 366.5q-23.5 130.5 6.5 303.5l149 846h209l-135 -773q-102 -579 328 -579q432 0 534 579l135 773h211l-149 -846q-40 -225 -150.5 -384t-266.5 -236t-347 -77q-142 0 -251 44t-179.5 131.5t-94 218zM821 1882l125 172l389 -246l-118 -155z" />
<glyph unicode="&#xda;" horiz-adv-x="1611" d="M276.5 366.5q-23.5 130.5 6.5 303.5l149 846h209l-135 -773q-102 -579 328 -579q432 0 534 579l135 773h211l-149 -846q-40 -225 -150.5 -384t-266.5 -236t-347 -77q-142 0 -251 44t-179.5 131.5t-94 218zM922 1806l477 248l65 -168l-479 -233z" />
<glyph unicode="&#xdb;" horiz-adv-x="1611" d="M276.5 366.5q-23.5 130.5 6.5 303.5l149 846h209l-135 -773q-102 -579 328 -579q432 0 534 579l135 773h211l-149 -846q-40 -225 -150.5 -384t-266.5 -236t-347 -77q-142 0 -251 44t-179.5 131.5t-94 218zM766 1759l332 281h135l229 -281l-129 -108l-196 229l-281 -229z " />
<glyph unicode="&#xdc;" horiz-adv-x="1611" d="M276.5 366.5q-23.5 130.5 6.5 303.5l149 846h209l-135 -773q-102 -579 328 -579q432 0 534 579l135 773h211l-149 -846q-40 -225 -150.5 -384t-266.5 -236t-347 -77q-142 0 -251 44t-179.5 131.5t-94 218zM803 1759q0 59 45 101.5t106 42.5q47 0 76 -30t29 -75 q0 -61 -44 -104t-106 -43q-47 0 -76.5 31t-29.5 77zM1176 1759q0 59 45 101.5t106 42.5q47 0 76 -30t29 -75q0 -61 -44 -104t-106 -43q-47 0 -76.5 31t-29.5 77z" />
<glyph unicode="&#xdd;" horiz-adv-x="1318" d="M281 1516h241l291 -627l518 627h238l-688 -832l-119 -684h-209l119 682zM774 1806l477 248l66 -168l-479 -233z" />
<glyph unicode="&#xde;" horiz-adv-x="1230" d="M174 0l266 1516h209l-47 -271h184q72 0 140 -6q194 -19 294.5 -116.5t100.5 -268.5q0 -272 -170.5 -430t-468.5 -158h-252l-47 -266h-209zM465 465h248q178 0 285.5 86t107.5 258q0 114 -74 176t-217 62h-248z" />
<glyph unicode="&#xdf;" horiz-adv-x="1208" d="M164 0l176 993q92 523 514 523q173 0 269 -89t96 -235q0 -137 -67.5 -238t-162.5 -147q101 -33 155 -116.5t54 -194.5q0 -147 -76.5 -261t-207.5 -174.5t-293 -60.5h-125l32 182h144q86 0 152 26.5t103 71.5t55.5 97t18.5 110q0 99 -64.5 159.5t-195.5 60.5h-120l30 178 h135q98 0 163 74t65 184q0 83 -48 135.5t-143 52.5q-69 0 -120 -26.5t-83.5 -77t-51.5 -108t-33 -134.5l-175 -985h-196z" />
<glyph unicode="&#xe0;" d="M158 406q0 119 51.5 228.5t135.5 187t196 123.5t229 46q200 0 301 -143l21 125h196l-170 -973h-196l18 115q-145 -142 -350 -142q-190 0 -311 124t-121 309zM354 432q0 -119 74.5 -196.5t194.5 -77.5q156 0 270.5 111t114.5 259q0 118 -75 197.5t-196 79.5 q-153 0 -268 -111t-115 -262zM561 1339l125 172l389 -245l-119 -156z" />
<glyph unicode="&#xe1;" d="M158 406q0 119 51.5 228.5t135.5 187t196 123.5t229 46q200 0 301 -143l21 125h196l-170 -973h-196l18 115q-145 -142 -350 -142q-190 0 -311 124t-121 309zM354 432q0 -119 74.5 -196.5t194.5 -77.5q156 0 270.5 111t114.5 259q0 118 -75 197.5t-196 79.5 q-153 0 -268 -111t-115 -262zM621 1264l477 247l65 -168l-479 -233z" />
<glyph unicode="&#xe2;" d="M158 406q0 119 51.5 228.5t135.5 187t196 123.5t229 46q200 0 301 -143l21 125h196l-170 -973h-196l18 115q-145 -142 -350 -142q-190 0 -311 124t-121 309zM354 432q0 -119 74.5 -196.5t194.5 -77.5q156 0 270.5 111t114.5 259q0 118 -75 197.5t-196 79.5 q-153 0 -268 -111t-115 -262zM471 1217l332 280h135l229 -280l-129 -109l-196 229l-281 -229z" />
<glyph unicode="&#xe3;" d="M158 406q0 119 51.5 228.5t135.5 187t196 123.5t229 46q200 0 301 -143l21 125h196l-170 -973h-196l18 115q-145 -142 -350 -142q-190 0 -311 124t-121 309zM354 432q0 -119 74.5 -196.5t194.5 -77.5q156 0 270.5 111t114.5 259q0 118 -75 197.5t-196 79.5 q-153 0 -268 -111t-115 -262zM461 1268q125 98 235 98q62 0 147.5 -42t127.5 -42q70 0 151 68l62 -133q-119 -109 -234 -109q-59 0 -147.5 42t-130.5 42q-66 0 -142 -62z" />
<glyph unicode="&#xe4;" d="M158 406q0 119 51.5 228.5t135.5 187t196 123.5t229 46q200 0 301 -143l21 125h196l-170 -973h-196l18 115q-145 -142 -350 -142q-190 0 -311 124t-121 309zM354 432q0 -119 74.5 -196.5t194.5 -77.5q156 0 270.5 111t114.5 259q0 118 -75 197.5t-196 79.5 q-153 0 -268 -111t-115 -262zM506 1217q0 59 45 101t106 42q47 0 76 -30t29 -75q0 -61 -44 -104t-106 -43q-47 0 -76.5 31.5t-29.5 77.5zM879 1217q0 59 45 101t106 42q47 0 76 -30t29 -75q0 -61 -44 -104t-106 -43q-47 0 -76.5 31.5t-29.5 77.5z" />
<glyph unicode="&#xe5;" d="M158 406q0 119 51.5 228.5t135.5 187t196 123.5t229 46q200 0 301 -143l21 125h196l-170 -973h-196l18 115q-145 -142 -350 -142q-190 0 -311 124t-121 309zM354 432q0 -119 74.5 -196.5t194.5 -77.5q156 0 270.5 111t114.5 259q0 118 -75 197.5t-196 79.5 q-153 0 -268 -111t-115 -262zM598 1223q0 98 79 174t179 76q80 0 132 -55t52 -134q0 -100 -80 -174t-180 -74q-78 0 -130 54.5t-52 132.5zM725 1239q0 -33 21.5 -55.5t56.5 -22.5q41 0 74.5 31.5t33.5 75.5q0 33 -21 55.5t-54 22.5q-43 0 -77 -32.5t-34 -74.5z" />
<glyph unicode="&#xe6;" horiz-adv-x="2007" d="M160 408q0 118 51.5 227t135.5 186.5t196 123.5t229 46q201 0 299 -143l23 125h190l-18 -103q160 121 348 121q184 0 297.5 -125t113.5 -307q0 -59 -24 -143h-797q0 -115 73.5 -189.5t195.5 -74.5q81 0 160.5 35t135.5 98l121 -107q-85 -96 -203.5 -150.5t-242.5 -54.5 q-197 0 -314 123l-18 -96h-190l20 115q-145 -142 -350 -142q-190 0 -311 124t-121 311zM356 430q0 -118 74.5 -195t194.5 -77q155 0 269 111t114 261q0 117 -73.5 196t-195.5 79q-153 0 -268 -111t-115 -264zM1239 571h594q0 103 -70 171.5t-184 68.5q-111 0 -203.5 -67.5 t-136.5 -172.5z" />
<glyph unicode="&#xe7;" horiz-adv-x="1081" d="M160 410q0 113 51 220.5t134.5 186t195 126.5t227.5 48q134 0 237 -65t154 -174l-182 -95q-30 67 -94.5 107.5t-147.5 40.5q-149 0 -264 -113t-115 -258q0 -116 75 -196t192 -80q87 0 165.5 41t133.5 112l147 -96q-86 -106 -207.5 -171t-251.5 -71l-35 -63h31 q78 0 123 -42t45 -114q0 -109 -70.5 -174t-175.5 -65q-37 0 -68 10t-58 31.5t-40 63.5t-8 99h97q-4 -61 24 -88.5t72 -27.5q54 0 91.5 38t37.5 95q0 39 -26.5 61.5t-76.5 22.5h-147l84 160q-156 26 -253 145.5t-97 284.5z" />
<glyph unicode="&#xe8;" horiz-adv-x="1153" d="M158 406q0 112 48 219.5t128 187.5t190.5 129t229.5 49q124 0 220 -59t145.5 -156.5t49.5 -216.5q0 -59 -24 -143h-797q0 -115 74 -189.5t196 -74.5q81 0 160 35t135 98l121 -107q-85 -96 -204 -150.5t-244 -54.5q-187 0 -307.5 123.5t-120.5 309.5zM383 571h594 q0 103 -70 171.5t-184 68.5q-111 0 -202.5 -67t-137.5 -173zM512 1339l125 172l389 -245l-119 -156z" />
<glyph unicode="&#xe9;" horiz-adv-x="1153" d="M158 406q0 112 48 219.5t128 187.5t190.5 129t229.5 49q124 0 220 -59t145.5 -156.5t49.5 -216.5q0 -59 -24 -143h-797q0 -115 74 -189.5t196 -74.5q81 0 160 35t135 98l121 -107q-85 -96 -204 -150.5t-244 -54.5q-187 0 -307.5 123.5t-120.5 309.5zM383 571h594 q0 103 -70 171.5t-184 68.5q-111 0 -202.5 -67t-137.5 -173zM555 1264l477 247l66 -168l-480 -233z" />
<glyph unicode="&#xea;" horiz-adv-x="1153" d="M158 406q0 112 48 219.5t128 187.5t190.5 129t229.5 49q124 0 220 -59t145.5 -156.5t49.5 -216.5q0 -59 -24 -143h-797q0 -115 74 -189.5t196 -74.5q81 0 160 35t135 98l121 -107q-85 -96 -204 -150.5t-244 -54.5q-187 0 -307.5 123.5t-120.5 309.5zM383 571h594 q0 103 -70 171.5t-184 68.5q-111 0 -202.5 -67t-137.5 -173zM446 1217l332 280h135l230 -280l-129 -109l-197 229l-280 -229z" />
<glyph unicode="&#xeb;" horiz-adv-x="1153" d="M158 406q0 112 48 219.5t128 187.5t190.5 129t229.5 49q124 0 220 -59t145.5 -156.5t49.5 -216.5q0 -59 -24 -143h-797q0 -115 74 -189.5t196 -74.5q81 0 160 35t135 98l121 -107q-85 -96 -204 -150.5t-244 -54.5q-187 0 -307.5 123.5t-120.5 309.5zM383 571h594 q0 103 -70 171.5t-184 68.5q-111 0 -202.5 -67t-137.5 -173zM481 1217q0 59 45.5 101t106.5 42q46 0 75 -30t29 -75q0 -61 -43.5 -104t-105.5 -43q-47 0 -77 31.5t-30 77.5zM854 1217q0 59 45.5 101t106.5 42q46 0 75 -30t29 -75q0 -61 -43.5 -104t-105.5 -43 q-47 0 -77 31.5t-30 77.5z" />
<glyph unicode="&#xec;" horiz-adv-x="526" d="M164 0l172 973h199l-173 -973h-198zM219 1339l125 172l389 -245l-119 -156z" />
<glyph unicode="&#xed;" horiz-adv-x="526" d="M164 0l172 973h199l-173 -973h-198zM231 1264l478 247l65 -168l-479 -233z" />
<glyph unicode="&#xee;" horiz-adv-x="526" d="M131 1217l332 280h135l229 -280l-129 -109l-196 229l-281 -229zM164 0l172 973h199l-173 -973h-198z" />
<glyph unicode="&#xef;" horiz-adv-x="526" d="M164 0l172 973h199l-173 -973h-198zM166 1217q0 59 45 101t106 42q47 0 76 -30t29 -75q0 -61 -44 -104t-106 -43q-47 0 -76.5 31.5t-29.5 77.5zM539 1217q0 59 45 101t106 42q47 0 76 -30t29 -75q0 -61 -44 -104t-106 -43q-47 0 -76.5 31.5t-29.5 77.5z" />
<glyph unicode="&#xf0;" horiz-adv-x="1187" d="M160 410q0 150 85.5 285t224.5 215.5t290 80.5q141 0 241 -92q-61 198 -229 330l-164 -131l-80 92l138 110q-108 64 -252 103l139 115q137 -29 260 -97l168 133l78 -96l-139 -108q141 -115 219 -295.5t78 -378.5q0 -114 -23 -212t-61 -168.5t-90.5 -127t-109 -92.5 t-119 -60t-118 -33.5t-108.5 -9.5q-185 0 -306.5 126.5t-121.5 310.5zM356 434q0 -116 75 -196t192 -80q151 0 264.5 113t113.5 259q0 117 -75 196t-191 79q-150 0 -264.5 -112t-114.5 -259z" />
<glyph unicode="&#xf1;" horiz-adv-x="1187" d="M164 0l172 973h196l-18 -105q64 60 135 91.5t168 31.5q182 0 272 -110t52 -330l-97 -551h-198l90 510q53 295 -186 295q-247 0 -301 -309l-89 -496h-196zM442 1268q125 98 236 98q62 0 147 -42t127 -42q71 0 152 68l61 -133q-119 -109 -233 -109q-59 0 -148 42t-131 42 q-65 0 -141 -62z" />
<glyph unicode="&#xf2;" horiz-adv-x="1187" d="M160 410q0 113 51 220.5t134.5 186t195 126.5t227.5 48q187 0 309.5 -126.5t122.5 -311.5q0 -114 -52 -221.5t-137 -185.5t-196.5 -125.5t-226.5 -47.5q-186 0 -307 126t-121 311zM356 432q0 -115 75.5 -194.5t191.5 -79.5q150 0 264 112.5t114 259.5q0 116 -74.5 195.5 t-189.5 79.5q-151 0 -266 -113.5t-115 -259.5zM504 1339l125 172l389 -245l-119 -156z" />
<glyph unicode="&#xf3;" horiz-adv-x="1187" d="M160 410q0 113 51 220.5t134.5 186t195 126.5t227.5 48q187 0 309.5 -126.5t122.5 -311.5q0 -114 -52 -221.5t-137 -185.5t-196.5 -125.5t-226.5 -47.5q-186 0 -307 126t-121 311zM356 432q0 -115 75.5 -194.5t191.5 -79.5q150 0 264 112.5t114 259.5q0 116 -74.5 195.5 t-189.5 79.5q-151 0 -266 -113.5t-115 -259.5zM582 1264l477 247l65 -168l-479 -233z" />
<glyph unicode="&#xf4;" horiz-adv-x="1187" d="M160 410q0 113 51 220.5t134.5 186t195 126.5t227.5 48q187 0 309.5 -126.5t122.5 -311.5q0 -114 -52 -221.5t-137 -185.5t-196.5 -125.5t-226.5 -47.5q-186 0 -307 126t-121 311zM356 432q0 -115 75.5 -194.5t191.5 -79.5q150 0 264 112.5t114 259.5q0 116 -74.5 195.5 t-189.5 79.5q-151 0 -266 -113.5t-115 -259.5zM459 1217l332 280h135l229 -280l-129 -109l-197 229l-280 -229z" />
<glyph unicode="&#xf5;" horiz-adv-x="1187" d="M160 410q0 113 51 220.5t134.5 186t195 126.5t227.5 48q187 0 309.5 -126.5t122.5 -311.5q0 -114 -52 -221.5t-137 -185.5t-196.5 -125.5t-226.5 -47.5q-186 0 -307 126t-121 311zM356 432q0 -115 75.5 -194.5t191.5 -79.5q150 0 264 112.5t114 259.5q0 116 -74.5 195.5 t-189.5 79.5q-151 0 -266 -113.5t-115 -259.5zM451 1268q125 98 235 98q62 0 147.5 -42t127.5 -42q70 0 151 68l62 -133q-119 -109 -234 -109q-59 0 -147.5 42t-130.5 42q-66 0 -142 -62z" />
<glyph unicode="&#xf6;" horiz-adv-x="1187" d="M160 410q0 113 51 220.5t134.5 186t195 126.5t227.5 48q187 0 309.5 -126.5t122.5 -311.5q0 -114 -52 -221.5t-137 -185.5t-196.5 -125.5t-226.5 -47.5q-186 0 -307 126t-121 311zM356 432q0 -115 75.5 -194.5t191.5 -79.5q150 0 264 112.5t114 259.5q0 116 -74.5 195.5 t-189.5 79.5q-151 0 -266 -113.5t-115 -259.5zM496 1217q0 59 45 101t106 42q47 0 76 -30t29 -75q0 -61 -44 -104t-106 -43q-47 0 -76.5 31.5t-29.5 77.5zM868 1217q0 59 45.5 101t106.5 42q46 0 75 -30t29 -75q0 -61 -43.5 -104t-105.5 -43q-47 0 -77 31.5t-30 77.5z" />
<glyph unicode="&#xf7;" horiz-adv-x="1290" d="M211 612l33 191h1085l-33 -191h-1085zM575 311q0 59 45.5 102.5t106.5 43.5q46 0 75 -31t29 -76q0 -61 -44 -104t-105 -43q-47 0 -77 31t-30 77zM709 1069q0 59 45 101t106 42q47 0 76 -29.5t29 -74.5q0 -61 -44.5 -104t-105.5 -43q-47 0 -76.5 31t-29.5 77z" />
<glyph unicode="&#xf8;" horiz-adv-x="1187" d="M160 408q0 152 86 287.5t226.5 215.5t295.5 80q72 0 131 -20l98 164l121 -54l-102 -163q85 -57 134.5 -155t49.5 -212q0 -113 -52 -220t-137 -185t-196.5 -125.5t-226.5 -47.5q-65 0 -133 19l-97 -160l-118 51l98 162q-83 55 -130.5 152t-47.5 211zM356 434 q0 -64 23.5 -120t64.5 -93l351 576q-18 6 -54 6q-99 0 -187.5 -48.5t-143 -134t-54.5 -186.5zM561 166q16 -4 51 -4q99 0 188 46.5t145 132t56 187.5q0 64 -24 120.5t-66 92.5z" />
<glyph unicode="&#xf9;" horiz-adv-x="1177" d="M215 395l102 578h199l-92 -522q-15 -92 -9.5 -157t55 -100.5t146.5 -35.5q143 0 206.5 71.5t90.5 221.5l93 522h196l-102 -578q-73 -422 -516 -422q-442 0 -369 422zM494 1339l124 172l390 -245l-119 -156z" />
<glyph unicode="&#xfa;" horiz-adv-x="1177" d="M215 395l102 578h199l-92 -522q-15 -92 -9.5 -157t55 -100.5t146.5 -35.5q143 0 206.5 71.5t90.5 221.5l93 522h196l-102 -578q-73 -422 -516 -422q-442 0 -369 422zM612 1264l478 247l65 -168l-479 -233z" />
<glyph unicode="&#xfb;" horiz-adv-x="1177" d="M215 395l102 578h199l-92 -522q-15 -92 -9.5 -157t55 -100.5t146.5 -35.5q143 0 206.5 71.5t90.5 221.5l93 522h196l-102 -578q-73 -422 -516 -422q-442 0 -369 422zM455 1217l331 280h136l229 -280l-129 -109l-197 229l-280 -229z" />
<glyph unicode="&#xfc;" horiz-adv-x="1177" d="M215 395l102 578h199l-92 -522q-15 -92 -9.5 -157t55 -100.5t146.5 -35.5q143 0 206.5 71.5t90.5 221.5l93 522h196l-102 -578q-73 -422 -516 -422q-442 0 -369 422zM489 1217q0 59 45.5 101t106.5 42q46 0 75 -30t29 -75q0 -61 -43.5 -104t-105.5 -43q-47 0 -77 31.5 t-30 77.5zM862 1217q0 59 45.5 101t106.5 42q46 0 75 -30t29 -75q0 -61 -43.5 -104t-105.5 -43q-47 0 -77 31.5t-30 77.5z" />
<glyph unicode="&#xfd;" horiz-adv-x="993" d="M147 -518l267 500l-224 991h216l149 -731l391 731h197l-801 -1491h-195zM535 1264l477 247l65 -168l-479 -233z" />
<glyph unicode="&#xfe;" d="M72 -518l358 2034h197l-117 -668q146 143 350 143q190 0 311 -123t121 -309q0 -119 -51 -228t-135 -187t-196 -124.5t-230 -46.5q-203 0 -301 142l-111 -633h-196zM444 430q0 -117 73.5 -194.5t195.5 -77.5q156 0 269.5 109t113.5 261q0 120 -74.5 198.5t-194.5 78.5 q-155 0 -269 -110.5t-114 -264.5z" />
<glyph unicode="&#xff;" horiz-adv-x="993" d="M147 -518l267 500l-224 991h216l149 -731l391 731h197l-801 -1491h-195zM416 1217q0 59 45 101t106 42q47 0 76 -30t29 -75q0 -61 -44 -104t-106 -43q-47 0 -76.5 31.5t-29.5 77.5zM788 1217q0 59 45.5 101t106.5 42q46 0 75 -30t29 -75q0 -61 -43.5 -104t-105.5 -43 q-47 0 -77 31.5t-30 77.5z" />
<glyph unicode="&#x152;" horiz-adv-x="2484" d="M238 641q0 119 35.5 234.5t97.5 214t150.5 183t191.5 143.5t223 92.5t242 33.5q172 0 311.5 -67t228.5 -189l41 230h885l-37 -199h-676l-73 -428h561l-35 -197h-561l-88 -495h675l-34 -197h-885l41 227q-129 -120 -292 -187t-335 -67q-191 0 -344 87t-238 239.5 t-85 341.5zM449 668q0 -215 137.5 -359.5t351.5 -144.5q135 0 262.5 55t222.5 146t153 217.5t58 261.5q0 140 -60.5 255t-173 183t-255.5 68q-136 0 -264.5 -56.5t-223 -149.5t-151.5 -218.5t-57 -257.5z" />
<glyph unicode="&#x153;" horiz-adv-x="1986" d="M160 410q0 113 51 220.5t134 186t194.5 126.5t226.5 48q127 0 226 -58t151 -157q89 101 204 158t242 57q125 0 220 -59.5t143.5 -158t48.5 -218.5q0 -35 -3 -62.5t-5 -37.5t-7 -25l-6 -16h-790q5 -115 77 -185.5t189 -70.5q168 0 293 141l139 -100q-95 -108 -214.5 -167 t-250.5 -59t-230 57t-153 156q-88 -99 -206.5 -156t-245.5 -57q-186 0 -307 126t-121 311zM356 432q0 -115 75.5 -194.5t191.5 -79.5q150 0 264 112.5t114 257.5q0 116 -74 196.5t-190 80.5q-150 0 -265.5 -113t-115.5 -260zM1225 573h585q-5 103 -68 167.5t-177 64.5 q-110 0 -198.5 -63t-141.5 -169z" />
<glyph unicode="&#x178;" horiz-adv-x="1318" d="M281 1516h241l291 -627l518 627h238l-688 -832l-119 -684h-209l119 682zM657 1759q0 59 45.5 101.5t106.5 42.5q46 0 75 -30t29 -75q0 -61 -43.5 -104t-105.5 -43q-47 0 -77 31t-30 77zM1030 1759q0 59 45.5 101.5t106.5 42.5q46 0 75 -30t29 -75q0 -61 -43.5 -104 t-105.5 -43q-47 0 -77 31t-30 77z" />
<glyph unicode="&#x2c6;" horiz-adv-x="901" d="M317 1217l332 280h135l230 -280l-129 -109l-197 229l-280 -229z" />
<glyph unicode="&#x2dc;" horiz-adv-x="935" d="M326 1268q125 98 235 98q62 0 147.5 -42t127.5 -42q70 0 151 68l62 -133q-119 -109 -234 -109q-59 0 -147.5 42t-130.5 42q-66 0 -142 -62z" />
<glyph unicode="&#x2000;" horiz-adv-x="1027" />
<glyph unicode="&#x2001;" horiz-adv-x="2054" />
<glyph unicode="&#x2002;" horiz-adv-x="1027" />
<glyph unicode="&#x2003;" horiz-adv-x="2054" />
<glyph unicode="&#x2004;" horiz-adv-x="684" />
<glyph unicode="&#x2005;" horiz-adv-x="513" />
<glyph unicode="&#x2006;" horiz-adv-x="342" />
<glyph unicode="&#x2007;" horiz-adv-x="342" />
<glyph unicode="&#x2008;" horiz-adv-x="256" />
<glyph unicode="&#x2009;" horiz-adv-x="410" />
<glyph unicode="&#x200a;" horiz-adv-x="114" />
<glyph unicode="&#x2010;" horiz-adv-x="854" d="M213 459l33 188h588l-33 -188h-588z" />
<glyph unicode="&#x2011;" horiz-adv-x="854" d="M213 459l33 188h588l-33 -188h-588z" />
<glyph unicode="&#x2012;" horiz-adv-x="854" d="M213 459l33 188h588l-33 -188h-588z" />
<glyph unicode="&#x2013;" horiz-adv-x="1185" d="M115 459l32 188h1115l-33 -188h-1114z" />
<glyph unicode="&#x2014;" horiz-adv-x="2097" d="M115 459l32 188h2026l-33 -188h-2025z" />
<glyph unicode="&#x2018;" horiz-adv-x="458" d="M303 1157q0 76 37.5 158t107 141t148.5 62l-18 -105q-41 -7 -84 -45.5t-56 -91.5q6 2 23 2q43 0 71.5 -30.5t28.5 -76.5q0 -60 -45.5 -102.5t-107.5 -42.5q-52 0 -78.5 35.5t-26.5 95.5z" />
<glyph unicode="&#x2019;" horiz-adv-x="458" d="M311 1034l19 105q42 7 84.5 45t56.5 92q-6 -2 -22 -2q-43 0 -73 30.5t-30 75.5q0 60 45.5 103t108.5 43q52 0 79 -36t27 -97q0 -56 -23 -118.5t-61 -115t-94.5 -88t-116.5 -37.5z" />
<glyph unicode="&#x201a;" horiz-adv-x="458" d="M84 -250l18 103q42 7 85 45t57 92q-8 -2 -25 -2q-43 0 -71.5 30t-28.5 76q0 60 45 103t108 43q52 0 78.5 -36.5t26.5 -97.5q0 -74 -37 -155t-106.5 -140t-149.5 -61z" />
<glyph unicode="&#x201c;" horiz-adv-x="817" d="M303 1159q0 75 37 156t107 140.5t151 62.5l-18 -105q-42 -7 -85.5 -45.5t-56.5 -91.5q6 2 23 2q43 0 71.5 -30.5t28.5 -76.5q0 -60 -44 -102.5t-107 -42.5q-52 0 -79.5 36t-27.5 97zM662 1159q0 75 37 156t106.5 140.5t150.5 62.5l-18 -105q-42 -7 -85 -45.5t-56 -91.5 q6 2 22 2q43 0 72 -30.5t29 -76.5q0 -60 -45 -102.5t-107 -42.5q-52 0 -79 36t-27 97z" />
<glyph unicode="&#x201d;" horiz-adv-x="817" d="M311 1036l19 105q42 7 84.5 45t56.5 92q-6 -2 -22 -2q-44 0 -73.5 30t-29.5 76q0 60 45 103t107 43q54 0 81 -36t27 -97q0 -75 -37.5 -156t-107.5 -140.5t-150 -62.5zM670 1036l18 105q42 7 84.5 45t56.5 92q-6 -2 -22 -2q-44 0 -73 30t-29 76q0 60 44.5 103t106.5 43 q54 0 81.5 -36t27.5 -97q0 -75 -37.5 -156t-107.5 -140.5t-150 -62.5z" />
<glyph unicode="&#x201e;" horiz-adv-x="817" d="M84 -252l18 105q42 7 85 45t57 92q-6 -2 -23 -2q-44 0 -73 30t-29 76q0 60 44.5 103t106.5 43q52 0 80.5 -37t28.5 -97q0 -55 -23 -117t-61 -115t-94.5 -88.5t-116.5 -37.5zM442 -252l19 105q42 7 84.5 45t56.5 92q-6 -2 -22 -2q-44 0 -73.5 30t-29.5 76q0 60 45 103 t107 43q54 0 81 -36.5t27 -97.5q0 -55 -23 -117t-61 -115t-94.5 -88.5t-116.5 -37.5z" />
<glyph unicode="&#x2022;" horiz-adv-x="983" d="M285 723q0 103 57.5 194t151 144t196.5 53q124 0 202.5 -85.5t78.5 -207.5q0 -102 -57 -193.5t-150.5 -145.5t-196.5 -54q-124 0 -203 85.5t-79 209.5z" />
<glyph unicode="&#x2026;" horiz-adv-x="1986" d="M223 96q0 59 45.5 101.5t106.5 42.5q46 0 75 -30t29 -75q0 -61 -44 -104t-105 -43q-47 0 -77 31t-30 77zM885 96q0 59 45 101.5t106 42.5q47 0 77 -30.5t30 -76.5q0 -59 -45.5 -102t-106.5 -43q-47 0 -76.5 31t-29.5 77zM1548 96q0 59 45.5 101.5t106.5 42.5q46 0 75 -30 t29 -75q0 -61 -44 -104t-105 -43q-47 0 -77 31t-30 77z" />
<glyph unicode="&#x202f;" horiz-adv-x="410" />
<glyph unicode="&#x2039;" horiz-adv-x="645" d="M174 518l332 408h217l-326 -408l187 -412h-222z" />
<glyph unicode="&#x203a;" horiz-adv-x="645" d="M100 106l330 412l-180 408h217l186 -408l-331 -412h-222z" />
<glyph unicode="&#x205f;" horiz-adv-x="513" />
<glyph unicode="&#x20ac;" horiz-adv-x="1210" d="M92 518l88 160h117l25 143h-156l88 160h96q21 113 69.5 212.5t121 178t175 124.5t222.5 46q187 0 289.5 -105t83.5 -286h-205q2 95 -50.5 147t-150.5 52q-140 0 -226.5 -101.5t-123.5 -267.5h549l-88 -160h-490l-24 -143h461l-89 -160h-399q-11 -74 -4.5 -138.5 t27.5 -112.5t70.5 -75.5t123.5 -27.5q105 0 179.5 53.5t99.5 144.5h198q-43 -172 -177 -280.5t-330 -108.5q-117 0 -201 41t-130 115t-61.5 172t-1.5 217h-176z" />
<glyph unicode="&#x2122;" horiz-adv-x="1597" d="M344 1376l25 140h508l-25 -140h-178l-103 -581h-149l102 581h-180zM895 795l127 721h154l149 -259l254 259h141l-127 -721h-151l88 499l-205 -215h-65l-127 213l-89 -497h-149z" />
<glyph unicode="&#xe000;" horiz-adv-x="972" d="M0 0v973h973v-973h-973z" />
</font>
</defs>
</svg>
