<?xml version="1.0" encoding="utf-8"?>
<!-- Generator: Adobe Illustrator 17.0.0, SVG Export Plug-In . SVG Version: 6.00 Build 0)  -->
<!DOCTYPE svg PUBLIC "-//W3C//DTD SVG 1.1//EN" "http://www.w3.org/Graphics/SVG/1.1/DTD/svg11.dtd">
<svg  xmlns="http://www.w3.org/2000/svg" xmlns:xlink="http://www.w3.org/1999/xlink" x="0px" y="0px"
	 width="20px" height="20px" viewBox="0 0 414.99 414.99">
	<path fill="#fff" d="M192.328,268.447c-25.599-2.67-48.68-8.971-68.442-24.43c-2.452-1.923-4.984-3.777-7.221-5.924
		c-8.649-8.307-9.521-17.821-2.677-27.626c5.855-8.39,15.684-10.635,25.9-5.817c1.978,0.934,3.863,2.103,5.668,3.351
		c36.828,25.305,87.418,26.004,124.388,1.138c3.662-2.805,7.577-5.098,12.115-6.263c8.822-2.269,17.05,0.975,21.784,8.691
		c5.409,8.815,5.34,17.42-1.325,24.264c-10.223,10.493-22.518,18.08-36.178,23.382c-12.917,5.008-27.065,7.525-41.068,9.203
		c2.113,2.3,3.109,3.431,4.43,4.759c19.014,19.104,38.111,38.129,57.063,57.292c6.457,6.529,7.806,14.626,4.25,22.22
		c-3.887,8.3-12.589,13.757-21.124,13.173c-5.405-0.374-9.621-3.061-13.367-6.834c-14.349-14.439-28.967-28.615-43.026-43.323
		c-4.091-4.281-6.059-3.469-9.67,0.246c-14.435,14.861-29.106,29.493-43.863,44.043c-6.626,6.533-14.511,7.709-22.196,3.981
		c-8.169-3.96-13.367-12.298-12.965-20.681c0.277-5.668,3.064-9.998,6.955-13.882c18.817-18.786,37.582-37.624,56.354-56.448
		C189.361,271.712,190.52,270.384,192.328,268.447z"/>
	<path fill="#fff" d="M207.922,203.001c-45.668-0.156-83.115-38.015-82.849-83.755C125.336,73,162.808,35.732,208.925,35.86
		c46.211,0.125,83.302,37.928,83.071,84.654C291.761,166.162,254.054,203.16,207.922,203.001z M249.426,119.356
		c-0.08-22.711-18.167-40.792-40.83-40.812c-22.857-0.024-41.106,18.385-40.93,41.304c0.169,22.625,18.412,40.577,41.141,40.494
		C231.464,160.262,249.503,142.064,249.426,119.356z"/>
</svg>
