<?xml version="1.0" encoding="utf-8"?>
<!-- Generator: Adobe Illustrator 18.0.0, SVG Export Plug-In . SVG Version: 6.00 Build 0)  -->
<!DOCTYPE svg PUBLIC "-//W3C//DTD SVG 1.1//EN" "http://www.w3.org/Graphics/SVG/1.1/DTD/svg11.dtd">
<svg version="1.1" id="Layer_1" xmlns="http://www.w3.org/2000/svg" xmlns:xlink="http://www.w3.org/1999/xlink" x="0px" y="0px"
	 viewBox="0 1.8 600 596.4" enable-background="new 0 1.8 600 596.4" xml:space="preserve">
<path fill="#FF9900" d="M415.7,1.8C314,1.8,231.5,67.1,231.5,147.6c0,48,29.4,90.4,74.6,117c-4.4,24.2-18.5,52.8-38.2,72.4
	c48-3.6,90.3-17.4,118-45.7c9.7,1.3,19.6,2.1,29.8,2.1c101.8,0,184.3-65.3,184.3-145.8C600,67.1,517.5,1.8,415.7,1.8z M418.9,51.4
	c13.6,0,24.6,11,24.6,24.6c0,13.6-11,24.6-24.6,24.6s-24.6-11-24.6-24.6C394.4,62.4,405.4,51.4,418.9,51.4z M459.3,233.2h-80.8
	v-21.2h21.9v-68.9h-21.9V122h60.8v91.1h20V233.2z"/>
<path fill="#999999" d="M381,482.2c-58.4-46.9-74.8-23.9-101.3,2.6c-18.5,18.5-65.3-20.1-105.8-60.6S94.9,337,113.4,318.5
	c26.5-26.5,49.6-42.8,2.6-101.3C69,158.8,37.7,203.7,12,229.3c-29.6,29.6-1.6,140.1,107.6,249.2
	c109.2,109.1,219.6,137.2,249.2,107.6C394.5,560.5,439.4,529.2,381,482.2z M73.9,248.9c-0.8,0.3-1.9,0.8-3.4,1.4
	c-2.8,1.1-6.1,2.3-9.8,3.9c-1.7,0.8-3.7,1.7-5.4,2.9c-1.8,1.1-3.6,2.3-5.3,3.9c-1.8,1.5-3.2,3.3-4.8,5.3c-1.2,2.2-2.8,4.3-3.6,7
	c-1.2,2.5-1.7,5.4-2.4,8.2c-0.6,2.9-0.7,5.8-1,8.8c0,5.9,0.2,11.5,0.9,16.3c0.4,4.9,1.6,9,2.1,11.9c0.6,2.7,0.9,4.3,0.9,4.5
	c-0.1-0.2-1-1.6-2.4-3.9c-1.5-2.6-4-5.9-6.1-10.6c-2.5-4.6-4.9-10.2-7.1-16.5c-0.8-3.3-1.9-6.7-2.5-10.3c-0.4-3.7-1.1-7.5-0.8-11.5
	c-0.1-4,0.7-8,1.4-12.1c1.2-3.9,2.4-7.9,4.4-11.5c1.8-3.6,4-6.9,6.2-9.8c2.2-3,4.5-5.4,6.7-7.6c4.3-4.2,8-7.3,10.2-9.2
	c1.2-1.1,1.8-1.6,2.3-2.1c0.5-0.5,0.8-0.7,0.8-0.7l20,31.3C75.2,248.4,74.8,248.5,73.9,248.9z M374.6,546.6c-2,2.4-5,6.2-9.2,10.5
	c-2.2,2.1-4.5,4.4-7.4,6.6c-2.7,2.2-5.9,4.3-9.3,6.2c-3.4,1.9-7.1,3.5-10.9,4.7c-3.8,1.2-7.8,2.1-11.6,2.4l-5.8,0.4l-5.6-0.3
	c-3.7-0.1-7.1-1-10.4-1.6c-3.3-0.6-6.3-1.8-9.1-2.7c-2.9-0.8-5.4-2.2-7.8-3.1c-4.8-1.9-8.3-4.1-10.8-5.5c-2.6-1.4-4-2.2-4-2.2
	s1.6,0.3,4.5,0.7c2.9,0.4,7,1.3,11.9,1.4c2.4,0,4.9,0.5,7.7,0.2c2.7-0.2,5.6-0.1,8.4-0.6c2.8-0.6,5.8-0.7,8.5-1.8l4.1-1.3l3.8-1.8
	c10-4.9,15.5-13.4,18.6-20.5c1.6-3.7,2.7-6.9,3.5-9.5c0.9-2.7,1.5-4.2,1.5-4.2l32.5,18.2C377.6,542.9,376.5,544.3,374.6,546.6z"/>
</svg>
