<?xml version="1.0" encoding="utf-8"?>
<!-- Generator: Adobe Illustrator 18.0.0, SVG Export Plug-In . SVG Version: 6.00 Build 0)  -->
<!DOCTYPE svg PUBLIC "-//W3C//DTD SVG 1.1//EN" "http://www.w3.org/Graphics/SVG/1.1/DTD/svg11.dtd">
<svg version="1.1" id="Layer_1" xmlns="http://www.w3.org/2000/svg" xmlns:xlink="http://www.w3.org/1999/xlink" x="0px" y="0px"
	 viewBox="0 3 20 14.1" enable-background="new 0 3 20 14.1" xml:space="preserve">
<g>
	<path fill="#FF9900" d="M0.7,12.3V3.8C0.7,3.4,1.1,3,1.6,3h8.5c0.5,0,0.9,0.4,0.9,0.9v8.5c0,0.2-0.1,0.3-0.3,0.3H1
		C0.8,12.6,0.7,12.5,0.7,12.3z"/>
	<path fill="#999999" d="M5.8,13.5c-1,0-1.8,0.8-1.8,1.8S4.8,17,5.8,17c1,0,1.8-0.8,1.8-1.8S6.8,13.5,5.8,13.5z M5.8,16.1
		c-0.5,0-0.9-0.4-0.9-0.9s0.4-0.9,0.9-0.9c0.5,0,0.9,0.4,0.9,0.9S6.3,16.1,5.8,16.1z"/>
	<path fill="#A3A3A3" d="M4.3,13.5h-4c-0.2,0-0.3,0.1-0.3,0.3v0.9c0,0.2,0.1,0.3,0.3,0.3h3.2C3.6,14.3,3.8,13.8,4.3,13.5z"/>
	<path fill="#999999" d="M15.1,13.5c-1,0-1.8,0.8-1.8,1.8s0.8,1.8,1.8,1.8c1,0,1.8-0.8,1.8-1.8S16.1,13.5,15.1,13.5z M15.1,16.1
		c-0.5,0-0.9-0.4-0.9-0.9s0.4-0.9,0.9-0.9c0.5,0,0.9,0.4,0.9,0.9S15.6,16.1,15.1,16.1z"/>
	<path fill="#999999" d="M19.7,13.5H19V9.6c0-0.5-0.1-0.9-0.4-1.3l-1.7-2.6c-0.4-0.6-1.1-1-1.9-1h-2.7c-0.3,0-0.6,0.3-0.6,0.6v8.2
		H7.3c0.4,0.4,0.7,0.9,0.8,1.4h4.7c0.2-1.1,1.1-2,2.3-2c1.2,0,2.1,0.9,2.3,2h2.3c0.2,0,0.3-0.1,0.3-0.3v-0.9
		C20,13.6,19.9,13.5,19.7,13.5z M16.9,8.8h-3.5c-0.2,0-0.3-0.1-0.3-0.3v-2c0-0.2,0.1-0.3,0.3-0.3h2.2c0.1,0,0.2,0.1,0.2,0.1l1.4,2
		C17.2,8.6,17.1,8.8,16.9,8.8z"/>
</g>
</svg>
