<?xml version="1.0" encoding="utf-8"?>
<!-- Generator: Adobe Illustrator 18.0.0, SVG Export Plug-In . SVG Version: 6.00 Build 0)  -->
<!DOCTYPE svg PUBLIC "-//W3C//DTD SVG 1.1//EN" "http://www.w3.org/Graphics/SVG/1.1/DTD/svg11.dtd">
<svg version="1.1" id="Capa_1" xmlns="http://www.w3.org/2000/svg" xmlns:xlink="http://www.w3.org/1999/xlink" x="0px" y="0px"
	 viewBox="5.2 0 14.8 20" enable-background="new 5.2 0 14.8 20" xml:space="preserve">
<g>
	<path fill="#FF9900" d="M17.2,5.9c-2.8,1.7-4.9,3.9-5.7,4.9L9.4,9.1c-0.1-0.1-1.2,1-1.2,1L12,14c0,0.1,0.1,0.1,0.1,0.1l0,0
		c0.1,0,0.1-0.1,0.1-0.1c0.6-1.6,2.6-4.9,5.3-7.3c0.1-0.1,0.1-0.1,0.1-0.2L17.2,5.9z"/>
	<path fill="#999999" d="M19.7,2.4c-5.9,0-6.8-2.2-6.9-2.3c0,0-0.1-0.1-0.2-0.1l0,0c-0.2,0-0.3,0.1-0.3,0.2c0,0-1,2.3-6.8,2.3
		C5.3,2.4,5.2,2.6,5.2,2.7v10c0,4.1,7,7.2,7.3,7.3c0.1,0,0.1,0,0.1,0c0.1,0,0.1,0,0.1,0c0.3-0.1,7.3-3.2,7.3-7.3v-10
		C20,2.6,19.8,2.4,19.7,2.4z M18.4,12.1c0,3.2-5.5,5.6-5.7,5.7h-0.1c-0.1,0-0.1,0-0.1,0c-0.3-0.1-5.7-2.5-5.7-5.7V4.3
		C6.9,4.2,7,4,7.1,4c4.5,0,5.4-1.8,5.4-1.8c0.1,0,0.1-0.1,0.2-0.1l0,0c0.1,0,0.2,0.1,0.2,0.1S13.7,4,18.3,4c0.1,0,0.3,0.1,0.3,0.3
		L18.4,12.1L18.4,12.1z"/>
</g>
</svg>
