<?xml version="1.0" encoding="utf-8"?>
<!-- Generator: Adobe Illustrator 18.0.0, SVG Export Plug-In . SVG Version: 6.00 Build 0)  -->
<!DOCTYPE svg PUBLIC "-//W3C//DTD SVG 1.1//EN" "http://www.w3.org/Graphics/SVG/1.1/DTD/svg11.dtd">
<svg version="1.1" id="Layer_1" xmlns="http://www.w3.org/2000/svg" xmlns:xlink="http://www.w3.org/1999/xlink" x="0px" y="0px"
	 viewBox="0 3.4 20 16.6" enable-background="new 0 3.4 20 16.6" xml:space="preserve">
<g>
	<ellipse fill="#999999" cx="7.1" cy="15" rx="1.1" ry="1"/>
	<ellipse fill="#999999" cx="11.7" cy="15" rx="2.5" ry="2.3"/>
	<ellipse fill="#999999" cx="16.2" cy="15" rx="1.1" ry="1"/>
	<path fill="#999999" d="M3.3,10v10H20V10H3.3z M18.7,16.5L18.2,17c-0.1,0-0.1,0-0.2,0c-0.6,0-1.1,0.4-1.1,1c0,0.1,0,0.1,0,0.2
		l-0.5,0.5H7l-0.5-0.5c0-0.1,0-0.1,0-0.2c0-0.6-0.5-1-1.1-1c-0.1,0-0.1,0-0.2,0l-0.5-0.5v-3.2l0.5-0.5c0.1,0,0.1,0,0.2,0
		c0.6,0,1.1-0.4,1.1-1c0-0.1,0-0.1,0-0.2L7,11.2h9.4l0.5,0.5c0,0.1,0,0.1,0,0.2c0,0.6,0.5,1,1.1,1c0.1,0,0.1,0,0.2,0l0.5,0.5V16.5z"
		/>
	<ellipse fill="#FFFFFF" cx="7.1" cy="15" rx="1.1" ry="1"/>
	<ellipse fill="#FFFFFF" cx="11.7" cy="15" rx="2.5" ry="2.3"/>
	<ellipse fill="#FFFFFF" cx="16.2" cy="15" rx="1.1" ry="1"/>
	<ellipse fill="#999999" cx="16.2" cy="15" rx="1.1" ry="1"/>
	<ellipse fill="#999999" cx="11.7" cy="15" rx="2.5" ry="2.3"/>
	<ellipse fill="#999999" cx="7.1" cy="15" rx="1.1" ry="1"/>
	<path fill="#FF9900" d="M14.9,9c0,0.1,0,0.1,0,0.2h-2.1c0.1-0.3,0.3-0.6,0.7-0.8C14.1,8.2,14.7,8.5,14.9,9z"/>
	<path fill="#FF9900" d="M3.7,9.2H2.5v2.3l-0.1,0.2l0.1,0.2v4L0,8.9l15.8-5.5l2,5.8h-1.4l-0.8-2.1L15,6.7c-0.1,0-0.1,0.1-0.2,0.1
		c-0.6,0.2-1.2-0.1-1.4-0.6c0-0.1,0-0.1,0-0.2l-0.7-0.3L3.9,8.8L3.7,9.2z"/>
	<path fill="#FF9900" d="M8.8,8.7c0.9-0.3,1.9-0.1,2.6,0.5H8C8.2,9,8.5,8.8,8.8,8.7z"/>
</g>
</svg>
