<?xml version="1.0" encoding="utf-8"?>
<!-- Generator: Adobe Illustrator 18.0.0, SVG Export Plug-In . SVG Version: 6.00 Build 0)  -->
<!DOCTYPE svg PUBLIC "-//W3C//DTD SVG 1.1//EN" "http://www.w3.org/Graphics/SVG/1.1/DTD/svg11.dtd">
<svg version="1.1" id="Capa_1" xmlns="http://www.w3.org/2000/svg" xmlns:xlink="http://www.w3.org/1999/xlink" x="0px" y="0px"
	 viewBox="0 0 20 19.7" enable-background="new 0 0 20 19.7" xml:space="preserve">
<g>
	<path fill="#FF9900" d="M13.1,9.2c0.4-0.3,0.9-0.4,1.4-0.4L20,3.4l-3.1-3.1l-5.4,5.4c0.1,0.5-0.1,1-0.4,1.4L13.1,9.2z"/>
	<polygon fill="#FF9900" points="3.6,15.9 3.4,15.6 2.4,16.5 0.7,19.2 1.1,19.7 3.8,17.9 4.7,16.9 4.5,16.7 7.9,13.2 7.1,12.4 	"/>
	<path fill="#999999" d="M8.4,6.2c0.4-1.4,0.1-3.1-1.1-4.2C6.1,0.9,4.6,0.6,3.1,0.9l2.4,2.4L4.9,5.7L2.5,6.4L0.1,3.9
		c-0.4,1.4,0,3,1.1,4.1c1.2,1.2,2.8,1.5,4.3,1l0,0l9.9,9.9c0.4,0.4,0.9,0.6,1.4,0.6c0.5,0,1-0.2,1.4-0.6c0.8-0.7,0.8-2.1,0-2.8
		L8.4,6.2z M17.1,18.7c-0.4,0-0.7-0.4-0.7-0.7c0-0.4,0.4-0.7,0.7-0.7c0.4,0,0.7,0.4,0.7,0.7C17.9,18.4,17.5,18.7,17.1,18.7z"/>
</g>
</svg>
