<?xml version="1.0" encoding="utf-8"?>
<!-- Generator: Adobe Illustrator 18.0.0, SVG Export Plug-In . SVG Version: 6.00 Build 0)  -->
<!DOCTYPE svg PUBLIC "-//W3C//DTD SVG 1.1//EN" "http://www.w3.org/Graphics/SVG/1.1/DTD/svg11.dtd">
<svg version="1.1" id="Layer_1" xmlns="http://www.w3.org/2000/svg" xmlns:xlink="http://www.w3.org/1999/xlink" x="0px" y="0px"
	 viewBox="0 0 20 20" enable-background="new 0 0 20 20" xml:space="preserve">
<g>
	
		<rect x="16" y="-0.4" transform="matrix(-0.7067 -0.7075 0.7075 -0.7067 26.5272 17.2119)" fill="#FF9900" width="1.7" height="7.1"/>
	<path fill="#999999" d="M11.3,11.6v2.8c0,0.3-0.2,0.5-0.4,0.5c-0.2,0-0.4-0.2-0.4-0.5v-2.8c0-0.3,0.1-0.5,0.4-0.5
		C11.2,11.1,11.3,11.3,11.3,11.6z"/>
	<path fill="#999999" d="M6.9,8.2c-0.3,0-0.4,0.2-0.4,0.5v2.8c0,0.3,0.2,0.5,0.4,0.5c0.3-0.1,0.4-0.2,0.4-0.6V8.7
		C7.3,8.4,7.1,8.2,6.9,8.2z M6.9,8.2c-0.3,0-0.4,0.2-0.4,0.5v2.8c0,0.3,0.2,0.5,0.4,0.5c0.3-0.1,0.4-0.2,0.4-0.6V8.7
		C7.3,8.4,7.1,8.2,6.9,8.2z M18.3,4L17,5.3c0,0.7-0.2,1.5-0.8,1.9c-0.9,1-2.5,1-3.5,0c-1-0.9-1-2.5,0-3.5c0.5-0.5,1.2-0.8,1.9-0.7
		l1.3-1.3c-2.4-1.4-5.6-1.1-7.7,1L0,10.9L9.1,20l8.2-8.2C19.4,9.7,19.7,6.5,18.3,4z M5.8,11.3V8.7c0-0.8,0.4-1.3,1.2-1.3
		c0.7,0,1.2,0.5,1.2,1.3v2.7c0,0.8-0.4,1.3-1.2,1.3S5.7,12.2,5.8,11.3z M7.7,15.5H7l3.1-8h0.7L7.7,15.5z M12.1,14.3
		c0,0.8-0.5,1.3-1.2,1.3c-0.7,0-1.2-0.5-1.2-1.3v-2.6c0-0.8,0.4-1.3,1.2-1.3c0.7,0,1.2,0.5,1.2,1.3V14.3z M7.3,11.4V8.7
		c0-0.3-0.2-0.5-0.4-0.5c-0.3,0-0.4,0.2-0.4,0.5v2.8c0,0.3,0.2,0.5,0.4,0.5C7.2,11.9,7.3,11.8,7.3,11.4z"/>
	<path fill="#FFFFFF" d="M7.3,8.7v2.7c0,0.4-0.1,0.5-0.4,0.6c-0.2,0-0.4-0.2-0.4-0.5V8.7c0-0.3,0.1-0.5,0.4-0.5
		C7.1,8.2,7.3,8.4,7.3,8.7z"/>
	<path fill="#FFFFFF" d="M11.3,11.6v2.8c0,0.3-0.2,0.5-0.4,0.5c-0.2,0-0.4-0.2-0.4-0.5v-2.8c0-0.3,0.1-0.5,0.4-0.5
		C11.2,11.1,11.3,11.3,11.3,11.6z"/>
	<path fill="#999999" d="M11.3,11.6v2.8c0,0.3-0.2,0.5-0.4,0.5c-0.2,0-0.4-0.2-0.4-0.5v-2.8c0-0.3,0.1-0.5,0.4-0.5
		C11.2,11.1,11.3,11.3,11.3,11.6z"/>
	<path fill="#999999" d="M7.3,8.7v2.7c0,0.4-0.1,0.5-0.4,0.6c-0.2,0-0.4-0.2-0.4-0.5V8.7c0-0.3,0.1-0.5,0.4-0.5
		C7.1,8.2,7.3,8.4,7.3,8.7z"/>
</g>
</svg>
